<?xml version="1.0" encoding="UTF-8" standalone="no"?>
<!DOCTYPE svg PUBLIC "-//W3C//DTD SVG 1.1//EN"
 "http://www.w3.org/Graphics/SVG/1.1/DTD/svg11.dtd">
<!-- Generated by graphviz version 2.43.0 (0)
 -->
<!-- Pages: 1 -->
<svg width="2639pt" height="505pt"
 viewBox="0.00 0.00 2639.00 505.00" xmlns="http://www.w3.org/2000/svg" xmlns:xlink="http://www.w3.org/1999/xlink">
<g id="graph0" class="graph" transform="scale(1 1) rotate(0) translate(4 501)">
<polygon fill="#ffffff" stroke="transparent" points="-4,4 -4,-501 2635,-501 2635,4 -4,4"/>
<!-- start -->
<g id="node1" class="node">
<title>start</title>
<polygon fill="#ffb24d" stroke="#1b1b1b" points="114,-175.5 111,-179.5 90,-179.5 87,-175.5 0,-175.5 0,-139.5 114,-139.5 114,-175.5"/>
<text text-anchor="start" x="10" y="-154.9" font-family="Helvetica,sans-Serif" font-weight="bold" font-size="12.00" fill="#000000">You Are Here!</text>
</g>
<!-- web_python_basics -->
<g id="node2" class="node">
<title>web_python_basics</title>
<polygon fill="#56c8fd" stroke="#000000" points="404,-245 401,-249 380,-249 377,-245 161,-245 161,-70 404,-70 404,-245"/>
<text text-anchor="start" x="192.5" y="-229.9" font-family="Helvetica,sans-Serif" font-weight="bold" font-size="12.00" fill="#000000">Python Web Fundamentals</text>
<text text-anchor="start" x="171.5" y="-214.5" font-family="Helvetica,sans-Serif" font-style="italic" font-size="10.00" fill="#000000">Topics:</text>
<text text-anchor="start" x="171.5" y="-198.5" font-family="Helvetica,sans-Serif" font-size="10.00" fill="#000000">python syntax and standard library</text>
<text text-anchor="start" x="171.5" y="-183.5" font-family="Helvetica,sans-Serif" font-size="10.00" fill="#000000">virtual environments and packaging</text>
<text text-anchor="start" x="171.5" y="-168.5" font-family="Helvetica,sans-Serif" font-size="10.00" fill="#000000">http basics requests and responses</text>
<text text-anchor="start" x="171.5" y="-153.5" font-family="Helvetica,sans-Serif" font-size="10.00" fill="#000000">working with json and files</text>
<text text-anchor="start" x="171.5" y="-139.5" font-family="Helvetica,sans-Serif" font-style="italic" font-size="10.00" fill="#000000">Tools:</text>
<text text-anchor="start" x="199.5" y="-139.5" font-family="Helvetica,sans-Serif" font-size="10.00" fill="#000000"> Python / pip / venv</text>
<text text-anchor="start" x="171.5" y="-124.5" font-family="Helvetica,sans-Serif" font-style="italic" font-size="10.00" fill="#000000">Courses:</text>
<text text-anchor="start" x="171.5" y="-108.5" font-family="Helvetica,sans-Serif" font-size="10.00" fill="#000000">[Int.] Python a Power BI</text>
<text text-anchor="start" x="171.5" y="-93.5" font-family="Helvetica,sans-Serif" font-size="10.00" fill="#000000">[Int.] Python: Objektově orient. programování</text>
<text text-anchor="start" x="171.5" y="-78.5" font-family="Helvetica,sans-Serif" font-size="10.00" fill="#000000">[Int.] Úvod do programování v Python</text>
</g>
<!-- start&#45;&gt;web_python_basics -->
<g id="edge1" class="edge">
<title>start&#45;&gt;web_python_basics</title>
<path fill="none" stroke="#000000" stroke-width="1.5" d="M114.19,-157.5C114.19,-157.5 152.71,-157.5 152.71,-157.5"/>
<polygon fill="#000000" stroke="#000000" stroke-width="1.5" points="160.71,-157.5 152.71,-161.1 156.71,-157.75 152.71,-157.75 152.71,-157.5 152.71,-157.25 156.71,-157.25 152.71,-153.9 160.71,-157.5 160.71,-157.5"/>
</g>
<!-- django_core -->
<g id="node3" class="node">
<title>django_core</title>
<polygon fill="#56c8fd" stroke="#000000" points="746,-245 743,-249 722,-249 719,-245 451,-245 451,-70 746,-70 746,-245"/>
<text text-anchor="start" x="524" y="-229.9" font-family="Helvetica,sans-Serif" font-weight="bold" font-size="12.00" fill="#000000">Django Core Concepts</text>
<text text-anchor="start" x="461.5" y="-214.5" font-family="Helvetica,sans-Serif" font-style="italic" font-size="10.00" fill="#000000">Topics:</text>
<text text-anchor="start" x="461.5" y="-198.5" font-family="Helvetica,sans-Serif" font-size="10.00" fill="#000000">project and app structure</text>
<text text-anchor="start" x="461.5" y="-183.5" font-family="Helvetica,sans-Serif" font-size="10.00" fill="#000000">urls views and templates</text>
<text text-anchor="start" x="461.5" y="-168.5" font-family="Helvetica,sans-Serif" font-size="10.00" fill="#000000">request response lifecycle</text>
<text text-anchor="start" x="461.5" y="-153.5" font-family="Helvetica,sans-Serif" font-size="10.00" fill="#000000">django settings and configuration</text>
<text text-anchor="start" x="461.5" y="-139.5" font-family="Helvetica,sans-Serif" font-style="italic" font-size="10.00" fill="#000000">Tools:</text>
<text text-anchor="start" x="489.5" y="-139.5" font-family="Helvetica,sans-Serif" font-size="10.00" fill="#000000"> Django</text>
<text text-anchor="start" x="461.5" y="-124.5" font-family="Helvetica,sans-Serif" font-style="italic" font-size="10.00" fill="#000000">Courses:</text>
<text text-anchor="start" x="461.5" y="-108.5" font-family="Helvetica,sans-Serif" font-size="10.00" fill="#000000">[Ext.] CVE&#45;2022&#45;34265 Django: Emulation and Detection</text>
<text text-anchor="start" x="461.5" y="-93.5" font-family="Helvetica,sans-Serif" font-size="10.00" fill="#000000">[Ext.] Django</text>
<text text-anchor="start" x="461.5" y="-78.5" font-family="Helvetica,sans-Serif" font-size="10.00" fill="#000000">[Ext.] Creating Django Models</text>
</g>
<!-- web_python_basics&#45;&gt;django_core -->
<g id="edge2" class="edge">
<title>web_python_basics&#45;&gt;django_core</title>
<path fill="none" stroke="#000000" stroke-width="1.5" d="M404.22,-157.5C404.22,-157.5 442.94,-157.5 442.94,-157.5"/>
<polygon fill="#000000" stroke="#000000" stroke-width="1.5" points="450.94,-157.5 442.94,-161.1 446.94,-157.75 442.94,-157.75 442.94,-157.5 442.94,-157.25 446.94,-157.25 442.94,-153.9 450.94,-157.5 450.94,-157.5"/>
</g>
<!-- django_models -->
<g id="node4" class="node">
<title>django_models</title>
<polygon fill="#56c8fd" stroke="#000000" points="988,-284 985,-288 964,-288 961,-284 793,-284 793,-169 988,-169 988,-284"/>
<text text-anchor="start" x="808.5" y="-268.9" font-family="Helvetica,sans-Serif" font-weight="bold" font-size="12.00" fill="#000000">Django Models and ORM</text>
<text text-anchor="start" x="803.5" y="-253.5" font-family="Helvetica,sans-Serif" font-style="italic" font-size="10.00" fill="#000000">Topics:</text>
<text text-anchor="start" x="803.5" y="-237.5" font-family="Helvetica,sans-Serif" font-size="10.00" fill="#000000">defining models and fields</text>
<text text-anchor="start" x="803.5" y="-222.5" font-family="Helvetica,sans-Serif" font-size="10.00" fill="#000000">querysets and query optimization</text>
<text text-anchor="start" x="803.5" y="-207.5" font-family="Helvetica,sans-Serif" font-size="10.00" fill="#000000">migrations and schema changes</text>
<text text-anchor="start" x="803.5" y="-192.5" font-family="Helvetica,sans-Serif" font-size="10.00" fill="#000000">model relationships and constraints</text>
<text text-anchor="start" x="803.5" y="-178.5" font-family="Helvetica,sans-Serif" font-style="italic" font-size="10.00" fill="#000000">Tools:</text>
<text text-anchor="start" x="831.5" y="-178.5" font-family="Helvetica,sans-Serif" font-size="10.00" fill="#000000"> Django ORM</text>
</g>
<!-- django_core&#45;&gt;django_models -->
<g id="edge3" class="edge">
<title>django_core&#45;&gt;django_models</title>
<path fill="none" stroke="#000000" stroke-width="1.5" d="M746.21,-207C746.21,-207 784.91,-207 784.91,-207"/>
<polygon fill="#000000" stroke="#000000" stroke-width="1.5" points="792.91,-207 784.91,-210.6 788.91,-207.25 784.91,-207.25 784.91,-207 784.91,-206.75 788.91,-206.75 784.91,-203.4 792.91,-207 792.91,-207"/>
</g>
<!-- frontend_basics -->
<g id="node5" class="node">
<title>frontend_basics</title>
<polygon fill="#56c8fd" stroke="#000000" points="1665,-175 1662,-179 1641,-179 1638,-175 1320,-175 1320,0 1665,0 1665,-175"/>
<text text-anchor="start" x="1405" y="-159.9" font-family="Helvetica,sans-Serif" font-weight="bold" font-size="12.00" fill="#000000">Basic Frontend for Django</text>
<text text-anchor="start" x="1330.5" y="-144.5" font-family="Helvetica,sans-Serif" font-style="italic" font-size="10.00" fill="#000000">Topics:</text>
<text text-anchor="start" x="1330.5" y="-128.5" font-family="Helvetica,sans-Serif" font-size="10.00" fill="#000000">html templates and layout</text>
<text text-anchor="start" x="1330.5" y="-113.5" font-family="Helvetica,sans-Serif" font-size="10.00" fill="#000000">css basics and simple styling</text>
<text text-anchor="start" x="1330.5" y="-98.5" font-family="Helvetica,sans-Serif" font-size="10.00" fill="#000000">using template tags and filters</text>
<text text-anchor="start" x="1330.5" y="-83.5" font-family="Helvetica,sans-Serif" font-size="10.00" fill="#000000">basic javascript for interactions</text>
<text text-anchor="start" x="1330.5" y="-69.5" font-family="Helvetica,sans-Serif" font-style="italic" font-size="10.00" fill="#000000">Tools:</text>
<text text-anchor="start" x="1358.5" y="-69.5" font-family="Helvetica,sans-Serif" font-size="10.00" fill="#000000"> HTML / CSS / JavaScript</text>
<text text-anchor="start" x="1330.5" y="-54.5" font-family="Helvetica,sans-Serif" font-style="italic" font-size="10.00" fill="#000000">Courses:</text>
<text text-anchor="start" x="1330.5" y="-38.5" font-family="Helvetica,sans-Serif" font-size="10.00" fill="#000000">[Ext.] TypeScript Foundations: Essentials for JavaScript Developers</text>
<text text-anchor="start" x="1330.5" y="-23.5" font-family="Helvetica,sans-Serif" font-size="10.00" fill="#000000">[Ext.] HTML Essential Training</text>
<text text-anchor="start" x="1330.5" y="-8.5" font-family="Helvetica,sans-Serif" font-size="10.00" fill="#000000">[Ext.] HTML and CSS Playbook</text>
</g>
<!-- django_core&#45;&gt;frontend_basics -->
<g id="edge4" class="edge">
<title>django_core&#45;&gt;frontend_basics</title>
<path fill="none" stroke="#000000" stroke-width="1.5" d="M746.13,-119.5C746.13,-119.5 1311.77,-119.5 1311.77,-119.5"/>
<polygon fill="#000000" stroke="#000000" stroke-width="1.5" points="1319.77,-119.5 1311.77,-123.1 1315.77,-119.75 1311.77,-119.75 1311.77,-119.5 1311.77,-119.25 1315.77,-119.25 1311.77,-115.9 1319.77,-119.5 1319.77,-119.5"/>
</g>
<!-- django_forms_api -->
<g id="node6" class="node">
<title>django_forms_api</title>
<polygon fill="#56c8fd" stroke="#000000" points="1273,-466 1270,-470 1249,-470 1246,-466 1035,-466 1035,-291 1273,-291 1273,-466"/>
<text text-anchor="start" x="1075.5" y="-450.9" font-family="Helvetica,sans-Serif" font-weight="bold" font-size="12.00" fill="#000000">Django Forms and APIs</text>
<text text-anchor="start" x="1045" y="-435.5" font-family="Helvetica,sans-Serif" font-style="italic" font-size="10.00" fill="#000000">Topics:</text>
<text text-anchor="start" x="1045" y="-419.5" font-family="Helvetica,sans-Serif" font-size="10.00" fill="#000000">django forms and validation</text>
<text text-anchor="start" x="1045" y="-404.5" font-family="Helvetica,sans-Serif" font-size="10.00" fill="#000000">class based views and mixins</text>
<text text-anchor="start" x="1045" y="-389.5" font-family="Helvetica,sans-Serif" font-size="10.00" fill="#000000">creating simple rest apis</text>
<text text-anchor="start" x="1045" y="-374.5" font-family="Helvetica,sans-Serif" font-size="10.00" fill="#000000">serializing and returning json</text>
<text text-anchor="start" x="1045" y="-360.5" font-family="Helvetica,sans-Serif" font-style="italic" font-size="10.00" fill="#000000">Tools:</text>
<text text-anchor="start" x="1073" y="-360.5" font-family="Helvetica,sans-Serif" font-size="10.00" fill="#000000"> Django / Django REST Framework</text>
<text text-anchor="start" x="1045" y="-345.5" font-family="Helvetica,sans-Serif" font-style="italic" font-size="10.00" fill="#000000">Courses:</text>
<text text-anchor="start" x="1045" y="-329.5" font-family="Helvetica,sans-Serif" font-size="10.00" fill="#000000">[Ext.] Django 4 Forms and ModelForms</text>
<text text-anchor="start" x="1045" y="-314.5" font-family="Helvetica,sans-Serif" font-size="10.00" fill="#000000">[Ext.] Django</text>
<text text-anchor="start" x="1045" y="-299.5" font-family="Helvetica,sans-Serif" font-size="10.00" fill="#000000">[Ext.] Building Web Applications with Django</text>
</g>
<!-- django_models&#45;&gt;django_forms_api -->
<g id="edge5" class="edge">
<title>django_models&#45;&gt;django_forms_api</title>
<path fill="none" stroke="#000000" stroke-width="1.5" d="M988.24,-247.67C1063.23,-247.67 1154,-247.67 1154,-247.67 1154,-247.67 1154,-282.87 1154,-282.87"/>
<polygon fill="#000000" stroke="#000000" stroke-width="1.5" points="1154,-290.87 1150.4,-282.87 1153.75,-286.87 1153.75,-282.87 1154,-282.87 1154.25,-282.87 1154.25,-286.87 1157.6,-282.87 1154,-290.87 1154,-290.87"/>
</g>
<!-- databases_basics -->
<g id="node7" class="node">
<title>databases_basics</title>
<polygon fill="#56c8fd" stroke="#000000" points="2073,-319.5 2070,-323.5 2049,-323.5 2046,-319.5 1717,-319.5 1717,-133.5 2073,-133.5 2073,-319.5"/>
<text text-anchor="start" x="1803" y="-304.9" font-family="Helvetica,sans-Serif" font-weight="bold" font-size="12.00" fill="#000000">Relational Database Basics</text>
<text text-anchor="start" x="1727" y="-289.5" font-family="Helvetica,sans-Serif" font-style="italic" font-size="10.00" fill="#000000">Topics:</text>
<text text-anchor="start" x="1727" y="-273.5" font-family="Helvetica,sans-Serif" font-size="10.00" fill="#000000">sql selects inserts updates deletes</text>
<text text-anchor="start" x="1727" y="-258.5" font-family="Helvetica,sans-Serif" font-size="10.00" fill="#000000">designing simple schemas</text>
<text text-anchor="start" x="1727" y="-243.5" font-family="Helvetica,sans-Serif" font-size="10.00" fill="#000000">indexes and foreign keys</text>
<text text-anchor="start" x="1727" y="-228.5" font-family="Helvetica,sans-Serif" font-size="10.00" fill="#000000">local database setup</text>
<text text-anchor="start" x="1727" y="-214.5" font-family="Helvetica,sans-Serif" font-style="italic" font-size="10.00" fill="#000000">Tools:</text>
<text text-anchor="start" x="1755" y="-214.5" font-family="Helvetica,sans-Serif" font-size="10.00" fill="#000000"> PostgreSQL / SQLite</text>
<text text-anchor="start" x="1727" y="-199.5" font-family="Helvetica,sans-Serif" font-style="italic" font-size="10.00" fill="#000000">Courses:</text>
<text text-anchor="start" x="1727" y="-183.5" font-family="Helvetica,sans-Serif" font-size="10.00" fill="#000000">[Ext.] PostgreSQL Essential Training</text>
<text text-anchor="start" x="1727" y="-168.5" font-family="Helvetica,sans-Serif" font-size="10.00" fill="#000000">[Ext.] Migrate to Cloud SQL for PostgreSQL using Database Migration</text>
<text text-anchor="start" x="1876.5" y="-157.5" font-family="Helvetica,sans-Serif" font-size="10.00" fill="#000000">Service</text>
<text text-anchor="start" x="1727" y="-142.5" font-family="Helvetica,sans-Serif" font-size="10.00" fill="#000000">[Ext.] Datastream: PostgreSQL Replication to BigQuery</text>
</g>
<!-- django_models&#45;&gt;databases_basics -->
<g id="edge6" class="edge">
<title>django_models&#45;&gt;databases_basics</title>
<path fill="none" stroke="#000000" stroke-width="1.5" d="M988.19,-211.33C988.19,-211.33 1708.77,-211.33 1708.77,-211.33"/>
<polygon fill="#000000" stroke="#000000" stroke-width="1.5" points="1716.77,-211.33 1708.77,-214.93 1712.77,-211.58 1708.77,-211.58 1708.77,-211.33 1708.77,-211.08 1712.77,-211.08 1708.77,-207.73 1716.77,-211.33 1716.77,-211.33"/>
</g>
<!-- deployment_basics -->
<g id="node8" class="node">
<title>deployment_basics</title>
<polygon fill="#56c8fd" stroke="#000000" points="2458,-319.5 2455,-323.5 2434,-323.5 2431,-319.5 2125,-319.5 2125,-133.5 2458,-133.5 2458,-319.5"/>
<text text-anchor="start" x="2202" y="-304.9" font-family="Helvetica,sans-Serif" font-weight="bold" font-size="12.00" fill="#000000">Django Deployment Basics</text>
<text text-anchor="start" x="2135.5" y="-289.5" font-family="Helvetica,sans-Serif" font-style="italic" font-size="10.00" fill="#000000">Topics:</text>
<text text-anchor="start" x="2135.5" y="-273.5" font-family="Helvetica,sans-Serif" font-size="10.00" fill="#000000">production settings and env vars</text>
<text text-anchor="start" x="2135.5" y="-258.5" font-family="Helvetica,sans-Serif" font-size="10.00" fill="#000000">serving static and media files</text>
<text text-anchor="start" x="2135.5" y="-243.5" font-family="Helvetica,sans-Serif" font-size="10.00" fill="#000000">using gunicorn or uwsgi</text>
<text text-anchor="start" x="2135.5" y="-228.5" font-family="Helvetica,sans-Serif" font-size="10.00" fill="#000000">basic linux server operations</text>
<text text-anchor="start" x="2135.5" y="-214.5" font-family="Helvetica,sans-Serif" font-style="italic" font-size="10.00" fill="#000000">Tools:</text>
<text text-anchor="start" x="2163.5" y="-214.5" font-family="Helvetica,sans-Serif" font-size="10.00" fill="#000000"> Gunicorn / Nginx / Docker</text>
<text text-anchor="start" x="2135.5" y="-199.5" font-family="Helvetica,sans-Serif" font-style="italic" font-size="10.00" fill="#000000">Courses:</text>
<text text-anchor="start" x="2135.5" y="-183.5" font-family="Helvetica,sans-Serif" font-size="10.00" fill="#000000">[Ext.] Learning NGINX</text>
<text text-anchor="start" x="2135.5" y="-168.5" font-family="Helvetica,sans-Serif" font-size="10.00" fill="#000000">[Ext.] Configuring the NGINX Server &#45; HTTPS Virtual Hosts / Load</text>
<text text-anchor="start" x="2210" y="-157.5" font-family="Helvetica,sans-Serif" font-size="10.00" fill="#000000">Balancing / IP Access Restrictions</text>
<text text-anchor="start" x="2135.5" y="-142.5" font-family="Helvetica,sans-Serif" font-size="10.00" fill="#000000">[Ext.] Managing Docker on Windows Servers</text>
</g>
<!-- frontend_basics&#45;&gt;deployment_basics -->
<g id="edge7" class="edge">
<title>frontend_basics&#45;&gt;deployment_basics</title>
<path fill="none" stroke="#000000" stroke-width="1.5" d="M1665.49,-66.75C1900.57,-66.75 2292,-66.75 2292,-66.75 2292,-66.75 2292,-125.11 2292,-125.11"/>
<polygon fill="#000000" stroke="#000000" stroke-width="1.5" points="2292,-133.11 2288.4,-125.11 2291.75,-129.11 2291.75,-125.11 2292,-125.11 2292.25,-125.11 2292.25,-129.11 2295.6,-125.11 2292,-133.11 2292,-133.11"/>
</g>
<!-- django_auth_security -->
<g id="node9" class="node">
<title>django_auth_security</title>
<polygon fill="#56c8fd" stroke="#000000" points="1593,-466 1590,-470 1569,-470 1566,-466 1392,-466 1392,-351 1593,-351 1593,-466"/>
<text text-anchor="start" x="1412.5" y="-450.9" font-family="Helvetica,sans-Serif" font-weight="bold" font-size="12.00" fill="#000000">Auth and Basic Security</text>
<text text-anchor="start" x="1402.5" y="-435.5" font-family="Helvetica,sans-Serif" font-style="italic" font-size="10.00" fill="#000000">Topics:</text>
<text text-anchor="start" x="1402.5" y="-419.5" font-family="Helvetica,sans-Serif" font-size="10.00" fill="#000000">user model and authentication</text>
<text text-anchor="start" x="1402.5" y="-404.5" font-family="Helvetica,sans-Serif" font-size="10.00" fill="#000000">login logout and permissions</text>
<text text-anchor="start" x="1402.5" y="-389.5" font-family="Helvetica,sans-Serif" font-size="10.00" fill="#000000">csrf and common web vulnerabilities</text>
<text text-anchor="start" x="1402.5" y="-374.5" font-family="Helvetica,sans-Serif" font-size="10.00" fill="#000000">handling user input safely</text>
<text text-anchor="start" x="1402.5" y="-360.5" font-family="Helvetica,sans-Serif" font-style="italic" font-size="10.00" fill="#000000">Tools:</text>
<text text-anchor="start" x="1430.5" y="-360.5" font-family="Helvetica,sans-Serif" font-size="10.00" fill="#000000"> Django Auth</text>
</g>
<!-- django_forms_api&#45;&gt;django_auth_security -->
<g id="edge8" class="edge">
<title>django_forms_api&#45;&gt;django_auth_security</title>
<path fill="none" stroke="#000000" stroke-width="1.5" d="M1273.34,-408.5C1273.34,-408.5 1383.87,-408.5 1383.87,-408.5"/>
<polygon fill="#000000" stroke="#000000" stroke-width="1.5" points="1391.87,-408.5 1383.87,-412.1 1387.87,-408.75 1383.87,-408.75 1383.87,-408.5 1383.87,-408.25 1387.87,-408.25 1383.87,-404.9 1391.87,-408.5 1391.87,-408.5"/>
</g>
<!-- databases_basics&#45;&gt;deployment_basics -->
<g id="edge9" class="edge">
<title>databases_basics&#45;&gt;deployment_basics</title>
<path fill="none" stroke="#000000" stroke-width="1.5" d="M2073.24,-226.5C2073.24,-226.5 2116.86,-226.5 2116.86,-226.5"/>
<polygon fill="#000000" stroke="#000000" stroke-width="1.5" points="2124.86,-226.5 2116.86,-230.1 2120.86,-226.75 2116.86,-226.75 2116.86,-226.5 2116.86,-226.25 2120.86,-226.25 2116.86,-222.9 2124.86,-226.5 2124.86,-226.5"/>
</g>
<!-- target -->
<g id="node10" class="node">
<title>target</title>
<polygon fill="#ffb24d" stroke="#1b1b1b" points="2631,-244.5 2628,-248.5 2607,-248.5 2604,-244.5 2505,-244.5 2505,-208.5 2631,-208.5 2631,-244.5"/>
<text text-anchor="start" x="2515" y="-223.9" font-family="Helvetica,sans-Serif" font-weight="bold" font-size="12.00" fill="#000000">Junior Djangoss</text>
</g>
<!-- deployment_basics&#45;&gt;target -->
<g id="edge10" class="edge">
<title>deployment_basics&#45;&gt;target</title>
<path fill="none" stroke="#000000" stroke-width="1.5" d="M2458.32,-226.5C2458.32,-226.5 2496.92,-226.5 2496.92,-226.5"/>
<polygon fill="#000000" stroke="#000000" stroke-width="1.5" points="2504.92,-226.5 2496.92,-230.1 2500.92,-226.75 2496.92,-226.75 2496.92,-226.5 2496.92,-226.25 2500.92,-226.25 2496.92,-222.9 2504.92,-226.5 2504.92,-226.5"/>
</g>
<!-- django_testing_debugging -->
<g id="node11" class="node">
<title>django_testing_debugging</title>
<polygon fill="#56c8fd" stroke="#000000" points="2078,-497 2075,-501 2054,-501 2051,-497 1712,-497 1712,-352 2078,-352 2078,-497"/>
<text text-anchor="start" x="1818" y="-481.9" font-family="Helvetica,sans-Serif" font-weight="bold" font-size="12.00" fill="#000000">Testing and Debugging</text>
<text text-anchor="start" x="1722" y="-466.5" font-family="Helvetica,sans-Serif" font-style="italic" font-size="10.00" fill="#000000">Topics:</text>
<text text-anchor="start" x="1722" y="-450.5" font-family="Helvetica,sans-Serif" font-size="10.00" fill="#000000">writing unit and integration tests</text>
<text text-anchor="start" x="1722" y="-435.5" font-family="Helvetica,sans-Serif" font-size="10.00" fill="#000000">using django test client</text>
<text text-anchor="start" x="1722" y="-420.5" font-family="Helvetica,sans-Serif" font-size="10.00" fill="#000000">logging and debugging errors</text>
<text text-anchor="start" x="1722" y="-405.5" font-family="Helvetica,sans-Serif" font-size="10.00" fill="#000000">basic code quality practices</text>
<text text-anchor="start" x="1722" y="-391.5" font-family="Helvetica,sans-Serif" font-style="italic" font-size="10.00" fill="#000000">Tools:</text>
<text text-anchor="start" x="1750" y="-391.5" font-family="Helvetica,sans-Serif" font-size="10.00" fill="#000000"> pytest / Django Test Framework</text>
<text text-anchor="start" x="1722" y="-376.5" font-family="Helvetica,sans-Serif" font-style="italic" font-size="10.00" fill="#000000">Courses:</text>
<text text-anchor="start" x="1722" y="-360.5" font-family="Helvetica,sans-Serif" font-size="10.00" fill="#000000">[Ext.] Behavior&#45;driven Development (BDD) with pytest&#45;bdd and Python</text>
</g>
<!-- django_auth_security&#45;&gt;django_testing_debugging -->
<g id="edge11" class="edge">
<title>django_auth_security&#45;&gt;django_testing_debugging</title>
<path fill="none" stroke="#000000" stroke-width="1.5" d="M1593.03,-409C1593.03,-409 1703.94,-409 1703.94,-409"/>
<polygon fill="#000000" stroke="#000000" stroke-width="1.5" points="1711.94,-409 1703.94,-412.6 1707.94,-409.25 1703.94,-409.25 1703.94,-409 1703.94,-408.75 1707.94,-408.75 1703.94,-405.4 1711.94,-409 1711.94,-409"/>
</g>
<!-- django_testing_debugging&#45;&gt;deployment_basics -->
<g id="edge12" class="edge">
<title>django_testing_debugging&#45;&gt;deployment_basics</title>
<path fill="none" stroke="#000000" stroke-width="1.5" d="M2078.1,-424.5C2182.21,-424.5 2292,-424.5 2292,-424.5 2292,-424.5 2292,-327.7 2292,-327.7"/>
<polygon fill="#000000" stroke="#000000" stroke-width="1.5" points="2292,-319.7 2295.6,-327.7 2292.25,-323.7 2292.25,-327.7 2292,-327.7 2291.75,-327.7 2291.75,-323.7 2288.4,-327.7 2292,-319.7 2292,-319.7"/>
</g>
</g>
</svg>
