<?xml version="1.0" encoding="UTF-8" standalone="no"?>
<!DOCTYPE svg PUBLIC "-//W3C//DTD SVG 1.1//EN"
 "http://www.w3.org/Graphics/SVG/1.1/DTD/svg11.dtd">
<!-- Generated by graphviz version 2.43.0 (0)
 -->
<!-- Pages: 1 -->
<svg width="1864pt" height="482pt"
 viewBox="0.00 0.00 1864.00 481.50" xmlns="http://www.w3.org/2000/svg" xmlns:xlink="http://www.w3.org/1999/xlink">
<g id="graph0" class="graph" transform="scale(1 1) rotate(0) translate(4 477.5)">
<polygon fill="#ffffff" stroke="transparent" points="-4,4 -4,-477.5 1860,-477.5 1860,4 -4,4"/>
<!-- start -->
<g id="node1" class="node">
<title>start</title>
<polygon fill="#ffb24d" stroke="#1b1b1b" points="112,-208.5 109,-212.5 88,-212.5 85,-208.5 0,-208.5 0,-172.5 112,-172.5 112,-208.5"/>
<text text-anchor="start" x="10" y="-187.9" font-family="Helvetica,sans-Serif" font-weight="bold" font-size="12.00" fill="#000000">You are here!</text>
</g>
<!-- web&#45;basics -->
<g id="node2" class="node">
<title>web&#45;basics</title>
<polygon fill="#56c8fd" stroke="#000000" points="408,-170.5 405,-174.5 384,-174.5 381,-170.5 159,-170.5 159,-10.5 408,-10.5 408,-170.5"/>
<text text-anchor="start" x="219" y="-155.9" font-family="Helvetica,sans-Serif" font-weight="bold" font-size="12.00" fill="#000000">Web Fundamentals</text>
<text text-anchor="start" x="169.5" y="-140.5" font-family="Helvetica,sans-Serif" font-style="italic" font-size="10.00" fill="#000000">Topics:</text>
<text text-anchor="start" x="169.5" y="-124.5" font-family="Helvetica,sans-Serif" font-size="10.00" fill="#000000">http requests and responses</text>
<text text-anchor="start" x="169.5" y="-109.5" font-family="Helvetica,sans-Serif" font-size="10.00" fill="#000000">html css and basic layout</text>
<text text-anchor="start" x="169.5" y="-94.5" font-family="Helvetica,sans-Serif" font-size="10.00" fill="#000000">browser devtools and debugging</text>
<text text-anchor="start" x="169.5" y="-79.5" font-family="Helvetica,sans-Serif" font-size="10.00" fill="#000000">restful apis concepts</text>
<text text-anchor="start" x="169.5" y="-65.5" font-family="Helvetica,sans-Serif" font-style="italic" font-size="10.00" fill="#000000">Tools:</text>
<text text-anchor="start" x="197.5" y="-65.5" font-family="Helvetica,sans-Serif" font-size="10.00" fill="#000000"> Chrome DevTools</text>
<text text-anchor="start" x="169.5" y="-50.5" font-family="Helvetica,sans-Serif" font-style="italic" font-size="10.00" fill="#000000">Courses:</text>
<text text-anchor="start" x="169.5" y="-34.5" font-family="Helvetica,sans-Serif" font-size="10.00" fill="#000000">[Ext.] Debugging Sites with Chrome DevTools</text>
<text text-anchor="start" x="169.5" y="-19.5" font-family="Helvetica,sans-Serif" font-size="10.00" fill="#000000">[Ext.] Debugging Sites Using Chrome DevTools</text>
</g>
<!-- start&#45;&gt;web&#45;basics -->
<g id="edge1" class="edge">
<title>start&#45;&gt;web&#45;basics</title>
<path fill="none" stroke="#000000" stroke-width="1.5" d="M112.15,-185C141.34,-185 171,-185 171,-185 171,-185 171,-178.65 171,-178.65"/>
<polygon fill="#000000" stroke="#000000" stroke-width="1.5" points="171,-170.65 174.6,-178.65 171.25,-174.65 171.25,-178.65 171,-178.65 170.75,-178.65 170.75,-174.65 167.4,-178.65 171,-170.65 171,-170.65"/>
</g>
<!-- python&#45;core -->
<g id="node3" class="node">
<title>python&#45;core</title>
<polygon fill="#56c8fd" stroke="#000000" points="385.5,-380 382.5,-384 361.5,-384 358.5,-380 181.5,-380 181.5,-205 385.5,-205 385.5,-380"/>
<text text-anchor="start" x="241.5" y="-364.9" font-family="Helvetica,sans-Serif" font-weight="bold" font-size="12.00" fill="#000000">Core Python</text>
<text text-anchor="start" x="191.5" y="-349.5" font-family="Helvetica,sans-Serif" font-style="italic" font-size="10.00" fill="#000000">Topics:</text>
<text text-anchor="start" x="191.5" y="-333.5" font-family="Helvetica,sans-Serif" font-size="10.00" fill="#000000">syntax control flow and functions</text>
<text text-anchor="start" x="191.5" y="-318.5" font-family="Helvetica,sans-Serif" font-size="10.00" fill="#000000">data structures lists dicts sets</text>
<text text-anchor="start" x="191.5" y="-303.5" font-family="Helvetica,sans-Serif" font-size="10.00" fill="#000000">modules packages and virtualenvs</text>
<text text-anchor="start" x="191.5" y="-288.5" font-family="Helvetica,sans-Serif" font-size="10.00" fill="#000000">error handling and debugging</text>
<text text-anchor="start" x="191.5" y="-274.5" font-family="Helvetica,sans-Serif" font-style="italic" font-size="10.00" fill="#000000">Tools:</text>
<text text-anchor="start" x="219.5" y="-274.5" font-family="Helvetica,sans-Serif" font-size="10.00" fill="#000000"> Python / pip / venv</text>
<text text-anchor="start" x="191.5" y="-259.5" font-family="Helvetica,sans-Serif" font-style="italic" font-size="10.00" fill="#000000">Courses:</text>
<text text-anchor="start" x="191.5" y="-243.5" font-family="Helvetica,sans-Serif" font-size="10.00" fill="#000000">[Int.] Úvod do programování v Python</text>
<text text-anchor="start" x="191.5" y="-228.5" font-family="Helvetica,sans-Serif" font-size="10.00" fill="#000000">[Int.] Úvod do programování Python</text>
<text text-anchor="start" x="191.5" y="-213.5" font-family="Helvetica,sans-Serif" font-size="10.00" fill="#000000">[Int.] Python a Power BI</text>
</g>
<!-- start&#45;&gt;python&#45;core -->
<g id="edge2" class="edge">
<title>start&#45;&gt;python&#45;core</title>
<path fill="none" stroke="#000000" stroke-width="1.5" d="M112.07,-195C179.58,-195 284,-195 284,-195 284,-195 284,-196.71 284,-196.71"/>
<polygon fill="#000000" stroke="#000000" stroke-width="1.5" points="284,-204.71 280.4,-196.71 283.75,-200.71 283.75,-196.71 284,-196.71 284.25,-196.71 284.25,-200.71 287.6,-196.71 284,-204.71 284,-204.71"/>
</g>
<!-- django&#45;basics -->
<g id="node4" class="node">
<title>django&#45;basics</title>
<polygon fill="#56c8fd" stroke="#000000" points="736,-175 733,-179 712,-179 709,-175 484,-175 484,0 736,0 736,-175"/>
<text text-anchor="start" x="536.5" y="-159.9" font-family="Helvetica,sans-Serif" font-weight="bold" font-size="12.00" fill="#000000">Django Fundamentals</text>
<text text-anchor="start" x="494" y="-144.5" font-family="Helvetica,sans-Serif" font-style="italic" font-size="10.00" fill="#000000">Topics:</text>
<text text-anchor="start" x="494" y="-128.5" font-family="Helvetica,sans-Serif" font-size="10.00" fill="#000000">project and app structure</text>
<text text-anchor="start" x="494" y="-113.5" font-family="Helvetica,sans-Serif" font-size="10.00" fill="#000000">urls views and templates</text>
<text text-anchor="start" x="494" y="-98.5" font-family="Helvetica,sans-Serif" font-size="10.00" fill="#000000">models and orm basics</text>
<text text-anchor="start" x="494" y="-83.5" font-family="Helvetica,sans-Serif" font-size="10.00" fill="#000000">django admin usage</text>
<text text-anchor="start" x="494" y="-69.5" font-family="Helvetica,sans-Serif" font-style="italic" font-size="10.00" fill="#000000">Tools:</text>
<text text-anchor="start" x="522" y="-69.5" font-family="Helvetica,sans-Serif" font-size="10.00" fill="#000000"> Django</text>
<text text-anchor="start" x="494" y="-54.5" font-family="Helvetica,sans-Serif" font-style="italic" font-size="10.00" fill="#000000">Courses:</text>
<text text-anchor="start" x="494" y="-38.5" font-family="Helvetica,sans-Serif" font-size="10.00" fill="#000000">[Ext.] Unit Testing in Django</text>
<text text-anchor="start" x="494" y="-23.5" font-family="Helvetica,sans-Serif" font-size="10.00" fill="#000000">[Ext.] Django Deployment and Maintenance</text>
<text text-anchor="start" x="494" y="-8.5" font-family="Helvetica,sans-Serif" font-size="10.00" fill="#000000">[Ext.] Django 4 Views, Apps, and URL Mappings</text>
</g>
<!-- web&#45;basics&#45;&gt;django&#45;basics -->
<g id="edge3" class="edge">
<title>web&#45;basics&#45;&gt;django&#45;basics</title>
<path fill="none" stroke="#000000" stroke-width="1.5" d="M408.33,-63.83C408.33,-63.83 475.88,-63.83 475.88,-63.83"/>
<polygon fill="#000000" stroke="#000000" stroke-width="1.5" points="483.88,-63.83 475.88,-67.43 479.88,-64.08 475.88,-64.08 475.88,-63.83 475.88,-63.58 479.88,-63.58 475.88,-60.23 483.88,-63.83 483.88,-63.83"/>
</g>
<!-- python&#45;core&#45;&gt;django&#45;basics -->
<g id="edge4" class="edge">
<title>python&#45;core&#45;&gt;django&#45;basics</title>
<path fill="none" stroke="#000000" stroke-width="1.5" d="M385.83,-264.67C411.55,-264.67 432,-264.67 432,-264.67 432,-264.67 432,-117.17 432,-117.17 432,-117.17 475.96,-117.17 475.96,-117.17"/>
<polygon fill="#000000" stroke="#000000" stroke-width="1.5" points="483.96,-117.17 475.96,-120.77 479.96,-117.42 475.96,-117.42 475.96,-117.17 475.96,-116.92 479.96,-116.92 475.96,-113.57 483.96,-117.17 483.96,-117.17"/>
</g>
<!-- db&#45;basics -->
<g id="node5" class="node">
<title>db&#45;basics</title>
<polygon fill="#56c8fd" stroke="#000000" points="765,-382 762,-386 741,-386 738,-382 455,-382 455,-207 765,-207 765,-382"/>
<text text-anchor="start" x="540.5" y="-366.9" font-family="Helvetica,sans-Serif" font-weight="bold" font-size="12.00" fill="#000000">Database Essentials</text>
<text text-anchor="start" x="465" y="-351.5" font-family="Helvetica,sans-Serif" font-style="italic" font-size="10.00" fill="#000000">Topics:</text>
<text text-anchor="start" x="465" y="-335.5" font-family="Helvetica,sans-Serif" font-size="10.00" fill="#000000">relational database concepts</text>
<text text-anchor="start" x="465" y="-320.5" font-family="Helvetica,sans-Serif" font-size="10.00" fill="#000000">designing simple schemas</text>
<text text-anchor="start" x="465" y="-305.5" font-family="Helvetica,sans-Serif" font-size="10.00" fill="#000000">basic sql queries</text>
<text text-anchor="start" x="465" y="-290.5" font-family="Helvetica,sans-Serif" font-size="10.00" fill="#000000">migrations and schema changes</text>
<text text-anchor="start" x="465" y="-276.5" font-family="Helvetica,sans-Serif" font-style="italic" font-size="10.00" fill="#000000">Tools:</text>
<text text-anchor="start" x="493" y="-276.5" font-family="Helvetica,sans-Serif" font-size="10.00" fill="#000000"> PostgreSQL / SQLite</text>
<text text-anchor="start" x="465" y="-261.5" font-family="Helvetica,sans-Serif" font-style="italic" font-size="10.00" fill="#000000">Courses:</text>
<text text-anchor="start" x="465" y="-245.5" font-family="Helvetica,sans-Serif" font-size="10.00" fill="#000000">[Ext.] Migrating from On&#45;site PostgreSQL to Amazon Aurora</text>
<text text-anchor="start" x="465" y="-230.5" font-family="Helvetica,sans-Serif" font-size="10.00" fill="#000000">[Ext.] PostgreSQL: Advanced Queries</text>
<text text-anchor="start" x="465" y="-215.5" font-family="Helvetica,sans-Serif" font-size="10.00" fill="#000000">[Ext.] Capturing Logic with Custom Functions in PostgreSQL</text>
</g>
<!-- python&#45;core&#45;&gt;db&#45;basics -->
<g id="edge5" class="edge">
<title>python&#45;core&#45;&gt;db&#45;basics</title>
<path fill="none" stroke="#000000" stroke-width="1.5" d="M385.91,-322.33C385.91,-322.33 446.74,-322.33 446.74,-322.33"/>
<polygon fill="#000000" stroke="#000000" stroke-width="1.5" points="454.74,-322.33 446.74,-325.93 450.74,-322.58 446.74,-322.58 446.74,-322.33 446.74,-322.08 450.74,-322.08 446.74,-318.73 454.74,-322.33 454.74,-322.33"/>
</g>
<!-- dev&#45;practices -->
<g id="node6" class="node">
<title>dev&#45;practices</title>
<polygon fill="#56c8fd" stroke="#000000" points="1016,-468 1013,-472 992,-472 989,-468 812,-468 812,-293 1016,-293 1016,-468"/>
<text text-anchor="start" x="843" y="-452.9" font-family="Helvetica,sans-Serif" font-weight="bold" font-size="12.00" fill="#000000">Dev Workflow Basics</text>
<text text-anchor="start" x="822" y="-437.5" font-family="Helvetica,sans-Serif" font-style="italic" font-size="10.00" fill="#000000">Topics:</text>
<text text-anchor="start" x="822" y="-421.5" font-family="Helvetica,sans-Serif" font-size="10.00" fill="#000000">git branching and pull requests</text>
<text text-anchor="start" x="822" y="-406.5" font-family="Helvetica,sans-Serif" font-size="10.00" fill="#000000">virtual environments per project</text>
<text text-anchor="start" x="822" y="-391.5" font-family="Helvetica,sans-Serif" font-size="10.00" fill="#000000">basic automated tests</text>
<text text-anchor="start" x="822" y="-376.5" font-family="Helvetica,sans-Serif" font-size="10.00" fill="#000000">logging and simple debugging</text>
<text text-anchor="start" x="822" y="-362.5" font-family="Helvetica,sans-Serif" font-style="italic" font-size="10.00" fill="#000000">Tools:</text>
<text text-anchor="start" x="850" y="-362.5" font-family="Helvetica,sans-Serif" font-size="10.00" fill="#000000"> Git / pytest</text>
<text text-anchor="start" x="822" y="-347.5" font-family="Helvetica,sans-Serif" font-style="italic" font-size="10.00" fill="#000000">Courses:</text>
<text text-anchor="start" x="822" y="-331.5" font-family="Helvetica,sans-Serif" font-size="10.00" fill="#000000">[Ext.] Git Configuration and Attributes</text>
<text text-anchor="start" x="822" y="-316.5" font-family="Helvetica,sans-Serif" font-size="10.00" fill="#000000">[Ext.] Git Administration</text>
<text text-anchor="start" x="822" y="-301.5" font-family="Helvetica,sans-Serif" font-size="10.00" fill="#000000">[Ext.] Git</text>
</g>
<!-- python&#45;core&#45;&gt;dev&#45;practices -->
<g id="edge6" class="edge">
<title>python&#45;core&#45;&gt;dev&#45;practices</title>
<path fill="none" stroke="#000000" stroke-width="1.5" d="M284,-380.14C284,-404.78 284,-425 284,-425 284,-425 803.73,-425 803.73,-425"/>
<polygon fill="#000000" stroke="#000000" stroke-width="1.5" points="811.73,-425 803.73,-428.6 807.73,-425.25 803.73,-425.25 803.73,-425 803.73,-424.75 807.73,-424.75 803.73,-421.4 811.73,-425 811.73,-425"/>
</g>
<!-- django&#45;basics&#45;&gt;dev&#45;practices -->
<g id="edge7" class="edge">
<title>django&#45;basics&#45;&gt;dev&#45;practices</title>
<path fill="none" stroke="#000000" stroke-width="1.5" d="M736.26,-162.33C765.88,-162.33 789,-162.33 789,-162.33 789,-162.33 789,-337.5 789,-337.5 789,-337.5 803.93,-337.5 803.93,-337.5"/>
<polygon fill="#000000" stroke="#000000" stroke-width="1.5" points="811.93,-337.5 803.93,-341.1 807.93,-337.75 803.93,-337.75 803.93,-337.5 803.93,-337.25 807.93,-337.25 803.93,-333.9 811.93,-337.5 811.93,-337.5"/>
</g>
<!-- django&#45;orm -->
<g id="node7" class="node">
<title>django&#45;orm</title>
<polygon fill="#56c8fd" stroke="#000000" points="1014.5,-252 1011.5,-256 990.5,-256 987.5,-252 813.5,-252 813.5,-137 1014.5,-137 1014.5,-252"/>
<text text-anchor="start" x="837" y="-236.9" font-family="Helvetica,sans-Serif" font-weight="bold" font-size="12.00" fill="#000000">Django ORM &amp; Queries</text>
<text text-anchor="start" x="824" y="-221.5" font-family="Helvetica,sans-Serif" font-style="italic" font-size="10.00" fill="#000000">Topics:</text>
<text text-anchor="start" x="824" y="-205.5" font-family="Helvetica,sans-Serif" font-size="10.00" fill="#000000">model relationships and foreign keys</text>
<text text-anchor="start" x="824" y="-190.5" font-family="Helvetica,sans-Serif" font-size="10.00" fill="#000000">querysets filters and lookups</text>
<text text-anchor="start" x="824" y="-175.5" font-family="Helvetica,sans-Serif" font-size="10.00" fill="#000000">model methods and managers</text>
<text text-anchor="start" x="824" y="-160.5" font-family="Helvetica,sans-Serif" font-size="10.00" fill="#000000">migrations and data fixtures</text>
<text text-anchor="start" x="824" y="-146.5" font-family="Helvetica,sans-Serif" font-style="italic" font-size="10.00" fill="#000000">Tools:</text>
<text text-anchor="start" x="852" y="-146.5" font-family="Helvetica,sans-Serif" font-size="10.00" fill="#000000"> Django ORM</text>
</g>
<!-- django&#45;basics&#45;&gt;django&#45;orm -->
<g id="edge8" class="edge">
<title>django&#45;basics&#45;&gt;django&#45;orm</title>
<path fill="none" stroke="#000000" stroke-width="1.5" d="M736.28,-149.67C736.28,-149.67 805.1,-149.67 805.1,-149.67"/>
<polygon fill="#000000" stroke="#000000" stroke-width="1.5" points="813.1,-149.67 805.1,-153.27 809.1,-149.92 805.1,-149.92 805.1,-149.67 805.1,-149.42 809.1,-149.42 805.1,-146.07 813.1,-149.67 813.1,-149.67"/>
</g>
<!-- django&#45;forms&#45;apis -->
<g id="node8" class="node">
<title>django&#45;forms&#45;apis</title>
<polygon fill="#56c8fd" stroke="#000000" points="1303,-273 1300,-277 1279,-277 1276,-273 1063,-273 1063,-98 1303,-98 1303,-273"/>
<text text-anchor="start" x="1130" y="-257.9" font-family="Helvetica,sans-Serif" font-weight="bold" font-size="12.00" fill="#000000">Forms and APIs</text>
<text text-anchor="start" x="1073" y="-242.5" font-family="Helvetica,sans-Serif" font-style="italic" font-size="10.00" fill="#000000">Topics:</text>
<text text-anchor="start" x="1073" y="-226.5" font-family="Helvetica,sans-Serif" font-size="10.00" fill="#000000">django forms and validation</text>
<text text-anchor="start" x="1073" y="-211.5" font-family="Helvetica,sans-Serif" font-size="10.00" fill="#000000">class based views basics</text>
<text text-anchor="start" x="1073" y="-196.5" font-family="Helvetica,sans-Serif" font-size="10.00" fill="#000000">building simple rest endpoints</text>
<text text-anchor="start" x="1073" y="-181.5" font-family="Helvetica,sans-Serif" font-size="10.00" fill="#000000">input validation and error handling</text>
<text text-anchor="start" x="1073" y="-167.5" font-family="Helvetica,sans-Serif" font-style="italic" font-size="10.00" fill="#000000">Tools:</text>
<text text-anchor="start" x="1101" y="-167.5" font-family="Helvetica,sans-Serif" font-size="10.00" fill="#000000"> Django / Django REST Framework</text>
<text text-anchor="start" x="1073" y="-152.5" font-family="Helvetica,sans-Serif" font-style="italic" font-size="10.00" fill="#000000">Courses:</text>
<text text-anchor="start" x="1073" y="-136.5" font-family="Helvetica,sans-Serif" font-size="10.00" fill="#000000">[Ext.] Building RESTful Web APIs with Django</text>
<text text-anchor="start" x="1073" y="-121.5" font-family="Helvetica,sans-Serif" font-size="10.00" fill="#000000">[Ext.] Django Deployment and Maintenance</text>
<text text-anchor="start" x="1073" y="-106.5" font-family="Helvetica,sans-Serif" font-size="10.00" fill="#000000">[Ext.] Creating Django Models</text>
</g>
<!-- django&#45;basics&#45;&gt;django&#45;forms&#45;apis -->
<g id="edge9" class="edge">
<title>django&#45;basics&#45;&gt;django&#45;forms&#45;apis</title>
<path fill="none" stroke="#000000" stroke-width="1.5" d="M736.1,-117.5C736.1,-117.5 1054.6,-117.5 1054.6,-117.5"/>
<polygon fill="#000000" stroke="#000000" stroke-width="1.5" points="1062.6,-117.5 1054.6,-121.1 1058.6,-117.75 1054.6,-117.75 1054.6,-117.5 1054.6,-117.25 1058.6,-117.25 1054.6,-113.9 1062.6,-117.5 1062.6,-117.5"/>
</g>
<!-- db&#45;basics&#45;&gt;django&#45;orm -->
<g id="edge10" class="edge">
<title>db&#45;basics&#45;&gt;django&#45;orm</title>
<path fill="none" stroke="#000000" stroke-width="1.5" d="M765.12,-229.5C765.12,-229.5 805.39,-229.5 805.39,-229.5"/>
<polygon fill="#000000" stroke="#000000" stroke-width="1.5" points="813.39,-229.5 805.39,-233.1 809.39,-229.75 805.39,-229.75 805.39,-229.5 805.39,-229.25 809.39,-229.25 805.39,-225.9 813.39,-229.5 813.39,-229.5"/>
</g>
<!-- deploy&#45;basics -->
<g id="node9" class="node">
<title>deploy&#45;basics</title>
<polygon fill="#56c8fd" stroke="#000000" points="1698,-473.5 1695,-477.5 1674,-477.5 1671,-473.5 1350,-473.5 1350,-287.5 1698,-287.5 1698,-473.5"/>
<text text-anchor="start" x="1459.5" y="-458.9" font-family="Helvetica,sans-Serif" font-weight="bold" font-size="12.00" fill="#000000">Deployment Basics</text>
<text text-anchor="start" x="1360" y="-443.5" font-family="Helvetica,sans-Serif" font-style="italic" font-size="10.00" fill="#000000">Topics:</text>
<text text-anchor="start" x="1360" y="-427.5" font-family="Helvetica,sans-Serif" font-size="10.00" fill="#000000">settings for different environments</text>
<text text-anchor="start" x="1360" y="-412.5" font-family="Helvetica,sans-Serif" font-size="10.00" fill="#000000">static and media files handling</text>
<text text-anchor="start" x="1360" y="-397.5" font-family="Helvetica,sans-Serif" font-size="10.00" fill="#000000">using wsgi or asgi server</text>
<text text-anchor="start" x="1360" y="-382.5" font-family="Helvetica,sans-Serif" font-size="10.00" fill="#000000">basic production checklist</text>
<text text-anchor="start" x="1360" y="-368.5" font-family="Helvetica,sans-Serif" font-style="italic" font-size="10.00" fill="#000000">Tools:</text>
<text text-anchor="start" x="1388" y="-368.5" font-family="Helvetica,sans-Serif" font-size="10.00" fill="#000000"> Gunicorn / Nginx / Docker</text>
<text text-anchor="start" x="1360" y="-353.5" font-family="Helvetica,sans-Serif" font-style="italic" font-size="10.00" fill="#000000">Courses:</text>
<text text-anchor="start" x="1360" y="-337.5" font-family="Helvetica,sans-Serif" font-size="10.00" fill="#000000">[Ext.] Developing Docker Apps: Core Principles</text>
<text text-anchor="start" x="1360" y="-322.5" font-family="Helvetica,sans-Serif" font-size="10.00" fill="#000000">[Ext.] Developing SQL 14 Server Databases with Docker 20</text>
<text text-anchor="start" x="1360" y="-307.5" font-family="Helvetica,sans-Serif" font-size="10.00" fill="#000000">[Ext.] Docker Networking: Creating, Managing, and Troubleshooting</text>
<text text-anchor="start" x="1475.5" y="-296.5" font-family="Helvetica,sans-Serif" font-size="10.00" fill="#000000">Container Networks</text>
</g>
<!-- dev&#45;practices&#45;&gt;deploy&#45;basics -->
<g id="edge11" class="edge">
<title>dev&#45;practices&#45;&gt;deploy&#45;basics</title>
<path fill="none" stroke="#000000" stroke-width="1.5" d="M1016.1,-380.5C1016.1,-380.5 1341.82,-380.5 1341.82,-380.5"/>
<polygon fill="#000000" stroke="#000000" stroke-width="1.5" points="1349.82,-380.5 1341.82,-384.1 1345.82,-380.75 1341.82,-380.75 1341.82,-380.5 1341.82,-380.25 1345.82,-380.25 1341.82,-376.9 1349.82,-380.5 1349.82,-380.5"/>
</g>
<!-- django&#45;orm&#45;&gt;django&#45;forms&#45;apis -->
<g id="edge12" class="edge">
<title>django&#45;orm&#45;&gt;django&#45;forms&#45;apis</title>
<path fill="none" stroke="#000000" stroke-width="1.5" d="M1014.55,-194.5C1014.55,-194.5 1054.6,-194.5 1054.6,-194.5"/>
<polygon fill="#000000" stroke="#000000" stroke-width="1.5" points="1062.6,-194.5 1054.6,-198.1 1058.6,-194.75 1054.6,-194.75 1054.6,-194.5 1054.6,-194.25 1058.6,-194.25 1054.6,-190.9 1062.6,-194.5 1062.6,-194.5"/>
</g>
<!-- django&#45;forms&#45;apis&#45;&gt;deploy&#45;basics -->
<g id="edge13" class="edge">
<title>django&#45;forms&#45;apis&#45;&gt;deploy&#45;basics</title>
<path fill="none" stroke="#000000" stroke-width="1.5" d="M1303.27,-261.33C1344.29,-261.33 1380,-261.33 1380,-261.33 1380,-261.33 1380,-279.48 1380,-279.48"/>
<polygon fill="#000000" stroke="#000000" stroke-width="1.5" points="1380,-287.48 1376.4,-279.48 1379.75,-283.48 1379.75,-279.48 1380,-279.48 1380.25,-279.48 1380.25,-283.48 1383.6,-279.49 1380,-287.48 1380,-287.48"/>
</g>
<!-- auth&#45;security -->
<g id="node10" class="node">
<title>auth&#45;security</title>
<polygon fill="#56c8fd" stroke="#000000" points="1639,-255 1636,-259 1615,-259 1612,-255 1409,-255 1409,-80 1639,-80 1639,-255"/>
<text text-anchor="start" x="1463.5" y="-239.9" font-family="Helvetica,sans-Serif" font-weight="bold" font-size="12.00" fill="#000000">Auth and Security</text>
<text text-anchor="start" x="1419" y="-224.5" font-family="Helvetica,sans-Serif" font-style="italic" font-size="10.00" fill="#000000">Topics:</text>
<text text-anchor="start" x="1419" y="-208.5" font-family="Helvetica,sans-Serif" font-size="10.00" fill="#000000">django auth users and permissions</text>
<text text-anchor="start" x="1419" y="-193.5" font-family="Helvetica,sans-Serif" font-size="10.00" fill="#000000">sessions and cookies handling</text>
<text text-anchor="start" x="1419" y="-178.5" font-family="Helvetica,sans-Serif" font-size="10.00" fill="#000000">common web vulnerabilities basics</text>
<text text-anchor="start" x="1419" y="-163.5" font-family="Helvetica,sans-Serif" font-size="10.00" fill="#000000">secure password and secrets management</text>
<text text-anchor="start" x="1419" y="-149.5" font-family="Helvetica,sans-Serif" font-style="italic" font-size="10.00" fill="#000000">Tools:</text>
<text text-anchor="start" x="1447" y="-149.5" font-family="Helvetica,sans-Serif" font-size="10.00" fill="#000000"> Django</text>
<text text-anchor="start" x="1419" y="-134.5" font-family="Helvetica,sans-Serif" font-style="italic" font-size="10.00" fill="#000000">Courses:</text>
<text text-anchor="start" x="1419" y="-118.5" font-family="Helvetica,sans-Serif" font-size="10.00" fill="#000000">[Ext.] Django Testing</text>
<text text-anchor="start" x="1419" y="-103.5" font-family="Helvetica,sans-Serif" font-size="10.00" fill="#000000">[Ext.] Working with Django Models</text>
<text text-anchor="start" x="1419" y="-88.5" font-family="Helvetica,sans-Serif" font-size="10.00" fill="#000000">[Ext.] Creating Django Models</text>
</g>
<!-- django&#45;forms&#45;apis&#45;&gt;auth&#45;security -->
<g id="edge14" class="edge">
<title>django&#45;forms&#45;apis&#45;&gt;auth&#45;security</title>
<path fill="none" stroke="#000000" stroke-width="1.5" d="M1303.22,-176.5C1303.22,-176.5 1400.87,-176.5 1400.87,-176.5"/>
<polygon fill="#000000" stroke="#000000" stroke-width="1.5" points="1408.87,-176.5 1400.87,-180.1 1404.87,-176.75 1400.87,-176.75 1400.87,-176.5 1400.87,-176.25 1404.87,-176.25 1400.87,-172.9 1408.87,-176.5 1408.87,-176.5"/>
</g>
<!-- target -->
<g id="node11" class="node">
<title>target</title>
<polygon fill="#ffb24d" stroke="#1b1b1b" points="1856,-291.5 1853,-295.5 1832,-295.5 1829,-291.5 1745,-291.5 1745,-255.5 1856,-255.5 1856,-291.5"/>
<text text-anchor="start" x="1755.5" y="-270.9" font-family="Helvetica,sans-Serif" font-weight="bold" font-size="12.00" fill="#000000">Junior Django</text>
</g>
<!-- deploy&#45;basics&#45;&gt;target -->
<g id="edge15" class="edge">
<title>deploy&#45;basics&#45;&gt;target</title>
<path fill="none" stroke="#000000" stroke-width="1.5" d="M1669,-287.46C1669,-282.95 1669,-280.25 1669,-280.25 1669,-280.25 1736.73,-280.25 1736.73,-280.25"/>
<polygon fill="#000000" stroke="#000000" stroke-width="1.5" points="1744.73,-280.25 1736.73,-283.85 1740.73,-280.5 1736.73,-280.5 1736.73,-280.25 1736.73,-280 1740.73,-280 1736.73,-276.65 1744.73,-280.25 1744.73,-280.25"/>
</g>
<!-- auth&#45;security&#45;&gt;target -->
<g id="edge16" class="edge">
<title>auth&#45;security&#45;&gt;target</title>
<path fill="none" stroke="#000000" stroke-width="1.5" d="M1524,-255.34C1524,-262.57 1524,-267.17 1524,-267.17 1524,-267.17 1736.88,-267.17 1736.88,-267.17"/>
<polygon fill="#000000" stroke="#000000" stroke-width="1.5" points="1744.88,-267.17 1736.88,-270.77 1740.88,-267.42 1736.88,-267.42 1736.88,-267.17 1736.88,-266.92 1740.88,-266.92 1736.88,-263.57 1744.88,-267.17 1744.88,-267.17"/>
</g>
</g>
</svg>
