<?xml version="1.0" encoding="UTF-8" standalone="no"?>
<!DOCTYPE svg PUBLIC "-//W3C//DTD SVG 1.1//EN"
 "http://www.w3.org/Graphics/SVG/1.1/DTD/svg11.dtd">
<!-- Generated by graphviz version 2.43.0 (0)
 -->
<!-- Pages: 1 -->
<svg width="1965pt" height="477pt"
 viewBox="0.00 0.00 1965.00 477.00" xmlns="http://www.w3.org/2000/svg" xmlns:xlink="http://www.w3.org/1999/xlink">
<g id="graph0" class="graph" transform="scale(1 1) rotate(0) translate(4 473)">
<polygon fill="#ffffff" stroke="transparent" points="-4,4 -4,-473 1961,-473 1961,4 -4,4"/>
<!-- start -->
<g id="node1" class="node">
<title>start</title>
<polygon fill="#ffb24d" stroke="#1b1b1b" points="114,-222.5 111,-226.5 90,-226.5 87,-222.5 0,-222.5 0,-186.5 114,-186.5 114,-222.5"/>
<text text-anchor="start" x="10" y="-201.9" font-family="Helvetica,sans-Serif" font-weight="bold" font-size="12.00" fill="#000000">You Are Here!</text>
</g>
<!-- python&#45;basics -->
<g id="node2" class="node">
<title>python&#45;basics</title>
<polygon fill="#56c8fd" stroke="#000000" points="404,-292 401,-296 380,-296 377,-292 161,-292 161,-117 404,-117 404,-292"/>
<text text-anchor="start" x="209" y="-276.9" font-family="Helvetica,sans-Serif" font-weight="bold" font-size="12.00" fill="#000000">Python Fundamentals</text>
<text text-anchor="start" x="171.5" y="-261.5" font-family="Helvetica,sans-Serif" font-style="italic" font-size="10.00" fill="#000000">Topics:</text>
<text text-anchor="start" x="171.5" y="-245.5" font-family="Helvetica,sans-Serif" font-size="10.00" fill="#000000">data types and collections</text>
<text text-anchor="start" x="171.5" y="-230.5" font-family="Helvetica,sans-Serif" font-size="10.00" fill="#000000">functions and modules</text>
<text text-anchor="start" x="171.5" y="-215.5" font-family="Helvetica,sans-Serif" font-size="10.00" fill="#000000">control flow and error handling</text>
<text text-anchor="start" x="171.5" y="-200.5" font-family="Helvetica,sans-Serif" font-size="10.00" fill="#000000">virtual environments and packaging</text>
<text text-anchor="start" x="171.5" y="-186.5" font-family="Helvetica,sans-Serif" font-style="italic" font-size="10.00" fill="#000000">Tools:</text>
<text text-anchor="start" x="199.5" y="-186.5" font-family="Helvetica,sans-Serif" font-size="10.00" fill="#000000"> Python / pip / venv</text>
<text text-anchor="start" x="171.5" y="-171.5" font-family="Helvetica,sans-Serif" font-style="italic" font-size="10.00" fill="#000000">Courses:</text>
<text text-anchor="start" x="171.5" y="-155.5" font-family="Helvetica,sans-Serif" font-size="10.00" fill="#000000">[Int.] Datová analýza v Python</text>
<text text-anchor="start" x="171.5" y="-140.5" font-family="Helvetica,sans-Serif" font-size="10.00" fill="#000000">[Int.] Úvod do programování v Python</text>
<text text-anchor="start" x="171.5" y="-125.5" font-family="Helvetica,sans-Serif" font-size="10.00" fill="#000000">[Int.] Python: Objektově orient. programování</text>
</g>
<!-- start&#45;&gt;python&#45;basics -->
<g id="edge1" class="edge">
<title>start&#45;&gt;python&#45;basics</title>
<path fill="none" stroke="#000000" stroke-width="1.5" d="M114.19,-204.5C114.19,-204.5 152.71,-204.5 152.71,-204.5"/>
<polygon fill="#000000" stroke="#000000" stroke-width="1.5" points="160.71,-204.5 152.71,-208.1 156.71,-204.75 152.71,-204.75 152.71,-204.5 152.71,-204.25 156.71,-204.25 152.71,-200.9 160.71,-204.5 160.71,-204.5"/>
</g>
<!-- oop&#45;testing -->
<g id="node3" class="node">
<title>oop&#45;testing</title>
<polygon fill="#56c8fd" stroke="#000000" points="817,-373 814,-377 793,-377 790,-373 451,-373 451,-228 817,-228 817,-373"/>
<text text-anchor="start" x="577.5" y="-357.9" font-family="Helvetica,sans-Serif" font-weight="bold" font-size="12.00" fill="#000000">OOP and Testing</text>
<text text-anchor="start" x="461" y="-342.5" font-family="Helvetica,sans-Serif" font-style="italic" font-size="10.00" fill="#000000">Topics:</text>
<text text-anchor="start" x="461" y="-326.5" font-family="Helvetica,sans-Serif" font-size="10.00" fill="#000000">classes and inheritance</text>
<text text-anchor="start" x="461" y="-311.5" font-family="Helvetica,sans-Serif" font-size="10.00" fill="#000000">dunder methods and encapsulation</text>
<text text-anchor="start" x="461" y="-296.5" font-family="Helvetica,sans-Serif" font-size="10.00" fill="#000000">unit testing and test structure</text>
<text text-anchor="start" x="461" y="-281.5" font-family="Helvetica,sans-Serif" font-size="10.00" fill="#000000">basic debugging techniques</text>
<text text-anchor="start" x="461" y="-267.5" font-family="Helvetica,sans-Serif" font-style="italic" font-size="10.00" fill="#000000">Tools:</text>
<text text-anchor="start" x="489" y="-267.5" font-family="Helvetica,sans-Serif" font-size="10.00" fill="#000000"> unittest / pytest</text>
<text text-anchor="start" x="461" y="-252.5" font-family="Helvetica,sans-Serif" font-style="italic" font-size="10.00" fill="#000000">Courses:</text>
<text text-anchor="start" x="461" y="-236.5" font-family="Helvetica,sans-Serif" font-size="10.00" fill="#000000">[Ext.] Behavior&#45;driven Development (BDD) with pytest&#45;bdd and Python</text>
</g>
<!-- python&#45;basics&#45;&gt;oop&#45;testing -->
<g id="edge2" class="edge">
<title>python&#45;basics&#45;&gt;oop&#45;testing</title>
<path fill="none" stroke="#000000" stroke-width="1.5" d="M404.45,-260C404.45,-260 442.91,-260 442.91,-260"/>
<polygon fill="#000000" stroke="#000000" stroke-width="1.5" points="450.91,-260 442.91,-263.6 446.91,-260.25 442.91,-260.25 442.91,-260 442.91,-259.75 446.91,-259.75 442.91,-256.4 450.91,-260 450.91,-260"/>
</g>
<!-- web&#45;basics -->
<g id="node4" class="node">
<title>web&#45;basics</title>
<polygon fill="#56c8fd" stroke="#000000" points="800,-196 797,-200 776,-200 773,-196 468,-196 468,-21 800,-21 800,-196"/>
<text text-anchor="start" x="548.5" y="-180.9" font-family="Helvetica,sans-Serif" font-weight="bold" font-size="12.00" fill="#000000">Web Development Basics</text>
<text text-anchor="start" x="478" y="-165.5" font-family="Helvetica,sans-Serif" font-style="italic" font-size="10.00" fill="#000000">Topics:</text>
<text text-anchor="start" x="478" y="-149.5" font-family="Helvetica,sans-Serif" font-size="10.00" fill="#000000">http methods and status codes</text>
<text text-anchor="start" x="478" y="-134.5" font-family="Helvetica,sans-Serif" font-size="10.00" fill="#000000">html css basics</text>
<text text-anchor="start" x="478" y="-119.5" font-family="Helvetica,sans-Serif" font-size="10.00" fill="#000000">restful api concepts</text>
<text text-anchor="start" x="478" y="-104.5" font-family="Helvetica,sans-Serif" font-size="10.00" fill="#000000">json and form data handling</text>
<text text-anchor="start" x="478" y="-90.5" font-family="Helvetica,sans-Serif" font-style="italic" font-size="10.00" fill="#000000">Tools:</text>
<text text-anchor="start" x="506" y="-90.5" font-family="Helvetica,sans-Serif" font-size="10.00" fill="#000000"> HTML / CSS / Postman</text>
<text text-anchor="start" x="478" y="-75.5" font-family="Helvetica,sans-Serif" font-style="italic" font-size="10.00" fill="#000000">Courses:</text>
<text text-anchor="start" x="478" y="-59.5" font-family="Helvetica,sans-Serif" font-size="10.00" fill="#000000">[Ext.] HTML for Programmers</text>
<text text-anchor="start" x="478" y="-44.5" font-family="Helvetica,sans-Serif" font-size="10.00" fill="#000000">[Ext.] Extracting Data from HTML with BeautifulSoup</text>
<text text-anchor="start" x="478" y="-29.5" font-family="Helvetica,sans-Serif" font-size="10.00" fill="#000000">[Ext.] Guided: Creating a Vue 3 Animation Using CSS Transitions</text>
</g>
<!-- python&#45;basics&#45;&gt;web&#45;basics -->
<g id="edge3" class="edge">
<title>python&#45;basics&#45;&gt;web&#45;basics</title>
<path fill="none" stroke="#000000" stroke-width="1.5" d="M404.45,-156.5C404.45,-156.5 459.99,-156.5 459.99,-156.5"/>
<polygon fill="#000000" stroke="#000000" stroke-width="1.5" points="467.99,-156.5 459.99,-160.1 463.99,-156.75 459.99,-156.75 459.99,-156.5 459.99,-156.25 463.99,-156.25 459.99,-152.9 467.99,-156.5 467.99,-156.5"/>
</g>
<!-- django&#45;core -->
<g id="node5" class="node">
<title>django&#45;core</title>
<polygon fill="#56c8fd" stroke="#000000" points="1107,-292 1104,-296 1083,-296 1080,-292 864,-292 864,-117 1107,-117 1107,-292"/>
<text text-anchor="start" x="911" y="-276.9" font-family="Helvetica,sans-Serif" font-weight="bold" font-size="12.00" fill="#000000">Django Core Concepts</text>
<text text-anchor="start" x="874.5" y="-261.5" font-family="Helvetica,sans-Serif" font-style="italic" font-size="10.00" fill="#000000">Topics:</text>
<text text-anchor="start" x="874.5" y="-245.5" font-family="Helvetica,sans-Serif" font-size="10.00" fill="#000000">project and app structure</text>
<text text-anchor="start" x="874.5" y="-230.5" font-family="Helvetica,sans-Serif" font-size="10.00" fill="#000000">models views templates pattern</text>
<text text-anchor="start" x="874.5" y="-215.5" font-family="Helvetica,sans-Serif" font-size="10.00" fill="#000000">url routing and view types</text>
<text text-anchor="start" x="874.5" y="-200.5" font-family="Helvetica,sans-Serif" font-size="10.00" fill="#000000">django settings and manage py</text>
<text text-anchor="start" x="874.5" y="-186.5" font-family="Helvetica,sans-Serif" font-style="italic" font-size="10.00" fill="#000000">Tools:</text>
<text text-anchor="start" x="902.5" y="-186.5" font-family="Helvetica,sans-Serif" font-size="10.00" fill="#000000"> Django</text>
<text text-anchor="start" x="874.5" y="-171.5" font-family="Helvetica,sans-Serif" font-style="italic" font-size="10.00" fill="#000000">Courses:</text>
<text text-anchor="start" x="874.5" y="-155.5" font-family="Helvetica,sans-Serif" font-size="10.00" fill="#000000">[Ext.] Django 3 Deployment and Maintenance</text>
<text text-anchor="start" x="874.5" y="-140.5" font-family="Helvetica,sans-Serif" font-size="10.00" fill="#000000">[Ext.] Django</text>
<text text-anchor="start" x="874.5" y="-125.5" font-family="Helvetica,sans-Serif" font-size="10.00" fill="#000000">[Ext.] Django: Getting Started</text>
</g>
<!-- oop&#45;testing&#45;&gt;django&#45;core -->
<g id="edge4" class="edge">
<title>oop&#45;testing&#45;&gt;django&#45;core</title>
<path fill="none" stroke="#000000" stroke-width="1.5" d="M817.21,-260C817.21,-260 855.95,-260 855.95,-260"/>
<polygon fill="#000000" stroke="#000000" stroke-width="1.5" points="863.95,-260 855.95,-263.6 859.95,-260.25 855.95,-260.25 855.95,-260 855.95,-259.75 859.95,-259.75 855.95,-256.4 863.95,-260 863.95,-260"/>
</g>
<!-- web&#45;basics&#45;&gt;django&#45;core -->
<g id="edge5" class="edge">
<title>web&#45;basics&#45;&gt;django&#45;core</title>
<path fill="none" stroke="#000000" stroke-width="1.5" d="M800.23,-156.5C800.23,-156.5 855.98,-156.5 855.98,-156.5"/>
<polygon fill="#000000" stroke="#000000" stroke-width="1.5" points="863.98,-156.5 855.98,-160.1 859.98,-156.75 855.98,-156.75 855.98,-156.5 855.98,-156.25 859.98,-156.25 855.98,-152.9 863.98,-156.5 863.98,-156.5"/>
</g>
<!-- django&#45;data -->
<g id="node6" class="node">
<title>django&#45;data</title>
<polygon fill="#56c8fd" stroke="#000000" points="1445,-469 1442,-473 1421,-473 1418,-469 1154,-469 1154,-294 1445,-294 1445,-469"/>
<text text-anchor="start" x="1220.5" y="-453.9" font-family="Helvetica,sans-Serif" font-weight="bold" font-size="12.00" fill="#000000">Django ORM and Forms</text>
<text text-anchor="start" x="1164.5" y="-438.5" font-family="Helvetica,sans-Serif" font-style="italic" font-size="10.00" fill="#000000">Topics:</text>
<text text-anchor="start" x="1164.5" y="-422.5" font-family="Helvetica,sans-Serif" font-size="10.00" fill="#000000">querysets and lookups</text>
<text text-anchor="start" x="1164.5" y="-407.5" font-family="Helvetica,sans-Serif" font-size="10.00" fill="#000000">model relationships</text>
<text text-anchor="start" x="1164.5" y="-392.5" font-family="Helvetica,sans-Serif" font-size="10.00" fill="#000000">model forms and form validation</text>
<text text-anchor="start" x="1164.5" y="-377.5" font-family="Helvetica,sans-Serif" font-size="10.00" fill="#000000">database migrations</text>
<text text-anchor="start" x="1164.5" y="-363.5" font-family="Helvetica,sans-Serif" font-style="italic" font-size="10.00" fill="#000000">Tools:</text>
<text text-anchor="start" x="1192.5" y="-363.5" font-family="Helvetica,sans-Serif" font-size="10.00" fill="#000000"> Django ORM / SQLite</text>
<text text-anchor="start" x="1164.5" y="-348.5" font-family="Helvetica,sans-Serif" font-style="italic" font-size="10.00" fill="#000000">Courses:</text>
<text text-anchor="start" x="1164.5" y="-332.5" font-family="Helvetica,sans-Serif" font-size="10.00" fill="#000000">[Ext.] Introduction to SQLite</text>
<text text-anchor="start" x="1164.5" y="-317.5" font-family="Helvetica,sans-Serif" font-size="10.00" fill="#000000">[Ext.] Creating a Database with SQLite, DAO, and Room</text>
<text text-anchor="start" x="1164.5" y="-302.5" font-family="Helvetica,sans-Serif" font-size="10.00" fill="#000000">[Ext.] Android: SQLite Fundamentals</text>
</g>
<!-- django&#45;core&#45;&gt;django&#45;data -->
<g id="edge6" class="edge">
<title>django&#45;core&#45;&gt;django&#45;data</title>
<path fill="none" stroke="#000000" stroke-width="1.5" d="M1107.12,-282C1144.03,-282 1175,-282 1175,-282 1175,-282 1175,-285.8 1175,-285.8"/>
<polygon fill="#000000" stroke="#000000" stroke-width="1.5" points="1175,-293.8 1171.4,-285.8 1174.75,-289.8 1174.75,-285.8 1175,-285.8 1175.25,-285.8 1175.25,-289.8 1178.6,-285.8 1175,-293.8 1175,-293.8"/>
</g>
<!-- django&#45;auth -->
<g id="node7" class="node">
<title>django&#45;auth</title>
<polygon fill="#56c8fd" stroke="#000000" points="1404.5,-262 1401.5,-266 1380.5,-266 1377.5,-262 1194.5,-262 1194.5,-147 1404.5,-147 1404.5,-262"/>
<text text-anchor="start" x="1204.5" y="-246.9" font-family="Helvetica,sans-Serif" font-weight="bold" font-size="12.00" fill="#000000">Auth and User Management</text>
<text text-anchor="start" x="1204.5" y="-231.5" font-family="Helvetica,sans-Serif" font-style="italic" font-size="10.00" fill="#000000">Topics:</text>
<text text-anchor="start" x="1204.5" y="-215.5" font-family="Helvetica,sans-Serif" font-size="10.00" fill="#000000">django auth system</text>
<text text-anchor="start" x="1204.5" y="-200.5" font-family="Helvetica,sans-Serif" font-size="10.00" fill="#000000">login logout and registration flows</text>
<text text-anchor="start" x="1204.5" y="-185.5" font-family="Helvetica,sans-Serif" font-size="10.00" fill="#000000">permissions and authorization</text>
<text text-anchor="start" x="1204.5" y="-170.5" font-family="Helvetica,sans-Serif" font-size="10.00" fill="#000000">password hashing and security basics</text>
<text text-anchor="start" x="1204.5" y="-156.5" font-family="Helvetica,sans-Serif" font-style="italic" font-size="10.00" fill="#000000">Tools:</text>
<text text-anchor="start" x="1232.5" y="-156.5" font-family="Helvetica,sans-Serif" font-size="10.00" fill="#000000"> Django Auth</text>
</g>
<!-- django&#45;core&#45;&gt;django&#45;auth -->
<g id="edge7" class="edge">
<title>django&#45;core&#45;&gt;django&#45;auth</title>
<path fill="none" stroke="#000000" stroke-width="1.5" d="M1107.35,-204.5C1107.35,-204.5 1186.31,-204.5 1186.31,-204.5"/>
<polygon fill="#000000" stroke="#000000" stroke-width="1.5" points="1194.31,-204.5 1186.31,-208.1 1190.31,-204.75 1186.31,-204.75 1186.31,-204.5 1186.31,-204.25 1190.31,-204.25 1186.31,-200.9 1194.31,-204.5 1194.31,-204.5"/>
</g>
<!-- django&#45;rest -->
<g id="node8" class="node">
<title>django&#45;rest</title>
<polygon fill="#56c8fd" stroke="#000000" points="1385.5,-115 1382.5,-119 1361.5,-119 1358.5,-115 1213.5,-115 1213.5,0 1385.5,0 1385.5,-115"/>
<text text-anchor="start" x="1242" y="-99.9" font-family="Helvetica,sans-Serif" font-weight="bold" font-size="12.00" fill="#000000">APIs with Django</text>
<text text-anchor="start" x="1223.5" y="-84.5" font-family="Helvetica,sans-Serif" font-style="italic" font-size="10.00" fill="#000000">Topics:</text>
<text text-anchor="start" x="1223.5" y="-68.5" font-family="Helvetica,sans-Serif" font-size="10.00" fill="#000000">class based views for apis</text>
<text text-anchor="start" x="1223.5" y="-53.5" font-family="Helvetica,sans-Serif" font-size="10.00" fill="#000000">serialization of data</text>
<text text-anchor="start" x="1223.5" y="-38.5" font-family="Helvetica,sans-Serif" font-size="10.00" fill="#000000">pagination and filtering</text>
<text text-anchor="start" x="1223.5" y="-23.5" font-family="Helvetica,sans-Serif" font-size="10.00" fill="#000000">basic authentication for apis</text>
<text text-anchor="start" x="1223.5" y="-9.5" font-family="Helvetica,sans-Serif" font-style="italic" font-size="10.00" fill="#000000">Tools:</text>
<text text-anchor="start" x="1251.5" y="-9.5" font-family="Helvetica,sans-Serif" font-size="10.00" fill="#000000"> Django REST Framework</text>
</g>
<!-- django&#45;core&#45;&gt;django&#45;rest -->
<g id="edge8" class="edge">
<title>django&#45;core&#45;&gt;django&#45;rest</title>
<path fill="none" stroke="#000000" stroke-width="1.5" d="M1107.41,-137C1185,-137 1271,-137 1271,-137 1271,-137 1271,-123.28 1271,-123.28"/>
<polygon fill="#000000" stroke="#000000" stroke-width="1.5" points="1271,-115.28 1274.6,-123.28 1271.25,-119.28 1271.25,-123.28 1271,-123.28 1270.75,-123.28 1270.75,-119.28 1267.4,-123.28 1271,-115.28 1271,-115.28"/>
</g>
<!-- devops&#45;basics -->
<g id="node9" class="node">
<title>devops&#45;basics</title>
<polygon fill="#56c8fd" stroke="#000000" points="1799,-292 1796,-296 1775,-296 1772,-292 1492,-292 1492,-117 1799,-117 1799,-292"/>
<text text-anchor="start" x="1564.5" y="-276.9" font-family="Helvetica,sans-Serif" font-weight="bold" font-size="12.00" fill="#000000">Deployment and Tooling</text>
<text text-anchor="start" x="1502.5" y="-261.5" font-family="Helvetica,sans-Serif" font-style="italic" font-size="10.00" fill="#000000">Topics:</text>
<text text-anchor="start" x="1502.5" y="-245.5" font-family="Helvetica,sans-Serif" font-size="10.00" fill="#000000">environment variables and settings</text>
<text text-anchor="start" x="1502.5" y="-230.5" font-family="Helvetica,sans-Serif" font-size="10.00" fill="#000000">static and media file handling</text>
<text text-anchor="start" x="1502.5" y="-215.5" font-family="Helvetica,sans-Serif" font-size="10.00" fill="#000000">basic containerization and serving</text>
<text text-anchor="start" x="1502.5" y="-200.5" font-family="Helvetica,sans-Serif" font-size="10.00" fill="#000000">version control workflows</text>
<text text-anchor="start" x="1502.5" y="-186.5" font-family="Helvetica,sans-Serif" font-style="italic" font-size="10.00" fill="#000000">Tools:</text>
<text text-anchor="start" x="1530.5" y="-186.5" font-family="Helvetica,sans-Serif" font-size="10.00" fill="#000000"> Git / Docker / Gunicorn</text>
<text text-anchor="start" x="1502.5" y="-171.5" font-family="Helvetica,sans-Serif" font-style="italic" font-size="10.00" fill="#000000">Courses:</text>
<text text-anchor="start" x="1502.5" y="-155.5" font-family="Helvetica,sans-Serif" font-size="10.00" fill="#000000">[Ext.] Developing SQL 14 Server Databases with Docker 20</text>
<text text-anchor="start" x="1502.5" y="-140.5" font-family="Helvetica,sans-Serif" font-size="10.00" fill="#000000">[Ext.] Guided: Git Configuration, Tagging, and Releases</text>
<text text-anchor="start" x="1502.5" y="-125.5" font-family="Helvetica,sans-Serif" font-size="10.00" fill="#000000">[Ext.] Microservices with Docker</text>
</g>
<!-- django&#45;data&#45;&gt;devops&#45;basics -->
<g id="edge9" class="edge">
<title>django&#45;data&#45;&gt;devops&#45;basics</title>
<path fill="none" stroke="#000000" stroke-width="1.5" d="M1425,-293.9C1425,-281.03 1425,-272 1425,-272 1425,-272 1483.76,-272 1483.76,-272"/>
<polygon fill="#000000" stroke="#000000" stroke-width="1.5" points="1491.76,-272 1483.76,-275.6 1487.76,-272.25 1483.76,-272.25 1483.76,-272 1483.76,-271.75 1487.76,-271.75 1483.76,-268.4 1491.76,-272 1491.76,-272"/>
</g>
<!-- django&#45;auth&#45;&gt;devops&#45;basics -->
<g id="edge10" class="edge">
<title>django&#45;auth&#45;&gt;devops&#45;basics</title>
<path fill="none" stroke="#000000" stroke-width="1.5" d="M1404.72,-204.5C1404.72,-204.5 1483.69,-204.5 1483.69,-204.5"/>
<polygon fill="#000000" stroke="#000000" stroke-width="1.5" points="1491.69,-204.5 1483.69,-208.1 1487.69,-204.75 1483.69,-204.75 1483.69,-204.5 1483.69,-204.25 1487.69,-204.25 1483.69,-200.9 1491.69,-204.5 1491.69,-204.5"/>
</g>
<!-- django&#45;rest&#45;&gt;devops&#45;basics -->
<g id="edge11" class="edge">
<title>django&#45;rest&#45;&gt;devops&#45;basics</title>
<path fill="none" stroke="#000000" stroke-width="1.5" d="M1329,-115.21C1329,-122.24 1329,-127 1329,-127 1329,-127 1483.89,-127 1483.89,-127"/>
<polygon fill="#000000" stroke="#000000" stroke-width="1.5" points="1491.89,-127 1483.89,-130.6 1487.89,-127.25 1483.89,-127.25 1483.89,-127 1483.89,-126.75 1487.89,-126.75 1483.89,-123.4 1491.89,-127 1491.89,-127"/>
</g>
<!-- target -->
<g id="node10" class="node">
<title>target</title>
<polygon fill="#ffb24d" stroke="#1b1b1b" points="1957,-222.5 1954,-226.5 1933,-226.5 1930,-222.5 1846,-222.5 1846,-186.5 1957,-186.5 1957,-222.5"/>
<text text-anchor="start" x="1856.5" y="-201.9" font-family="Helvetica,sans-Serif" font-weight="bold" font-size="12.00" fill="#000000">Junior Django</text>
</g>
<!-- devops&#45;basics&#45;&gt;target -->
<g id="edge12" class="edge">
<title>devops&#45;basics&#45;&gt;target</title>
<path fill="none" stroke="#000000" stroke-width="1.5" d="M1799.22,-204.5C1799.22,-204.5 1837.94,-204.5 1837.94,-204.5"/>
<polygon fill="#000000" stroke="#000000" stroke-width="1.5" points="1845.94,-204.5 1837.94,-208.1 1841.94,-204.75 1837.94,-204.75 1837.94,-204.5 1837.94,-204.25 1841.94,-204.25 1837.94,-200.9 1845.94,-204.5 1845.94,-204.5"/>
</g>
</g>
</svg>
