<?xml version="1.0" encoding="UTF-8" standalone="no"?>
<!DOCTYPE svg PUBLIC "-//W3C//DTD SVG 1.1//EN"
 "http://www.w3.org/Graphics/SVG/1.1/DTD/svg11.dtd">
<!-- Generated by graphviz version 2.43.0 (0)
 -->
<!-- Pages: 1 -->
<svg width="3036pt" height="455pt"
 viewBox="0.00 0.00 3036.00 454.50" xmlns="http://www.w3.org/2000/svg" xmlns:xlink="http://www.w3.org/1999/xlink">
<g id="graph0" class="graph" transform="scale(1 1) rotate(0) translate(4 450.5)">
<polygon fill="#ffffff" stroke="transparent" points="-4,4 -4,-450.5 3032,-450.5 3032,4 -4,4"/>
<!-- role_start -->
<g id="node1" class="node">
<title>role_start</title>
<polygon fill="#ffb24d" stroke="#1b1b1b" points="112,-175 109,-179 88,-179 85,-175 0,-175 0,-139 112,-139 112,-175"/>
<text text-anchor="start" x="10" y="-154.4" font-family="Helvetica,sans-Serif" font-weight="bold" font-size="12.00" fill="#000000">You are here!</text>
</g>
<!-- skill_python_core -->
<g id="node2" class="node">
<title>skill_python_core</title>
<polygon fill="#56c8fd" stroke="#000000" points="340,-279.5 337,-283.5 316,-283.5 313,-279.5 159,-279.5 159,-164.5 340,-164.5 340,-279.5"/>
<text text-anchor="start" x="178" y="-264.4" font-family="Helvetica,sans-Serif" font-weight="bold" font-size="12.00" fill="#000000">Python Core Mastery</text>
<text text-anchor="start" x="169.5" y="-249" font-family="Helvetica,sans-Serif" font-style="italic" font-size="10.00" fill="#000000">Topics:</text>
<text text-anchor="start" x="169.5" y="-233" font-family="Helvetica,sans-Serif" font-size="10.00" fill="#000000">advanced functions and iterators</text>
<text text-anchor="start" x="169.5" y="-218" font-family="Helvetica,sans-Serif" font-size="10.00" fill="#000000">object oriented design patterns</text>
<text text-anchor="start" x="169.5" y="-203" font-family="Helvetica,sans-Serif" font-size="10.00" fill="#000000">error handling and logging</text>
<text text-anchor="start" x="169.5" y="-188" font-family="Helvetica,sans-Serif" font-size="10.00" fill="#000000">typing and packaging basics</text>
<text text-anchor="start" x="169.5" y="-174" font-family="Helvetica,sans-Serif" font-style="italic" font-size="10.00" fill="#000000">Tools:</text>
<text text-anchor="start" x="197.5" y="-174" font-family="Helvetica,sans-Serif" font-size="10.00" fill="#000000"> Poetry / mypy</text>
</g>
<!-- role_start&#45;&gt;skill_python_core -->
<g id="edge1" class="edge">
<title>role_start&#45;&gt;skill_python_core</title>
<path fill="none" stroke="#000000" stroke-width="1.5" d="M112.23,-169.75C112.23,-169.75 150.87,-169.75 150.87,-169.75"/>
<polygon fill="#000000" stroke="#000000" stroke-width="1.5" points="158.87,-169.75 150.87,-173.35 154.87,-170 150.87,-170 150.87,-169.75 150.87,-169.5 154.87,-169.5 150.87,-166.15 158.87,-169.75 158.87,-169.75"/>
</g>
<!-- skill_python_ecosystem -->
<g id="node3" class="node">
<title>skill_python_ecosystem</title>
<polygon fill="#56c8fd" stroke="#000000" points="753,-173 750,-177 729,-177 726,-173 387,-173 387,-13 753,-13 753,-173"/>
<text text-anchor="start" x="474" y="-158.4" font-family="Helvetica,sans-Serif" font-weight="bold" font-size="12.00" fill="#000000">Python Ecosystem &amp; Tooling</text>
<text text-anchor="start" x="397" y="-143" font-family="Helvetica,sans-Serif" font-style="italic" font-size="10.00" fill="#000000">Topics:</text>
<text text-anchor="start" x="397" y="-127" font-family="Helvetica,sans-Serif" font-size="10.00" fill="#000000">virtual environments and dependency management</text>
<text text-anchor="start" x="397" y="-112" font-family="Helvetica,sans-Serif" font-size="10.00" fill="#000000">testing and code quality</text>
<text text-anchor="start" x="397" y="-97" font-family="Helvetica,sans-Serif" font-size="10.00" fill="#000000">packaging and publishing libraries</text>
<text text-anchor="start" x="397" y="-83" font-family="Helvetica,sans-Serif" font-style="italic" font-size="10.00" fill="#000000">Tools:</text>
<text text-anchor="start" x="425" y="-83" font-family="Helvetica,sans-Serif" font-size="10.00" fill="#000000"> pytest / black / Flake8</text>
<text text-anchor="start" x="397" y="-68" font-family="Helvetica,sans-Serif" font-style="italic" font-size="10.00" fill="#000000">Courses:</text>
<text text-anchor="start" x="397" y="-52" font-family="Helvetica,sans-Serif" font-size="10.00" fill="#000000">[Ext.] Explainability Methods for Black&#45;box AI Models</text>
<text text-anchor="start" x="397" y="-37" font-family="Helvetica,sans-Serif" font-size="10.00" fill="#000000">[Ext.] Photography Foundations: Black and White</text>
<text text-anchor="start" x="397" y="-22" font-family="Helvetica,sans-Serif" font-size="10.00" fill="#000000">[Ext.] Behavior&#45;driven Development (BDD) with pytest&#45;bdd and Python</text>
</g>
<!-- role_start&#45;&gt;skill_python_ecosystem -->
<g id="edge2" class="edge">
<title>role_start&#45;&gt;skill_python_ecosystem</title>
<path fill="none" stroke="#000000" stroke-width="1.5" d="M112.48,-151.75C112.48,-151.75 378.72,-151.75 378.72,-151.75"/>
<polygon fill="#000000" stroke="#000000" stroke-width="1.5" points="386.72,-151.75 378.72,-155.35 382.72,-152 378.72,-152 378.72,-151.75 378.72,-151.5 382.72,-151.5 378.72,-148.15 386.72,-151.75 386.72,-151.75"/>
</g>
<!-- skill_data_fundamentals -->
<g id="node4" class="node">
<title>skill_data_fundamentals</title>
<polygon fill="#56c8fd" stroke="#000000" points="719.5,-446.5 716.5,-450.5 695.5,-450.5 692.5,-446.5 420.5,-446.5 420.5,-271.5 719.5,-271.5 719.5,-446.5"/>
<text text-anchor="start" x="472.5" y="-431.4" font-family="Helvetica,sans-Serif" font-weight="bold" font-size="12.00" fill="#000000">Data Handling Fundamentals</text>
<text text-anchor="start" x="431" y="-416" font-family="Helvetica,sans-Serif" font-style="italic" font-size="10.00" fill="#000000">Topics:</text>
<text text-anchor="start" x="431" y="-400" font-family="Helvetica,sans-Serif" font-size="10.00" fill="#000000">tabular data manipulation</text>
<text text-anchor="start" x="431" y="-385" font-family="Helvetica,sans-Serif" font-size="10.00" fill="#000000">data cleaning and preprocessing</text>
<text text-anchor="start" x="431" y="-370" font-family="Helvetica,sans-Serif" font-size="10.00" fill="#000000">working with large datasets</text>
<text text-anchor="start" x="431" y="-355" font-family="Helvetica,sans-Serif" font-size="10.00" fill="#000000">basic visualization and EDA</text>
<text text-anchor="start" x="431" y="-341" font-family="Helvetica,sans-Serif" font-style="italic" font-size="10.00" fill="#000000">Tools:</text>
<text text-anchor="start" x="459" y="-341" font-family="Helvetica,sans-Serif" font-size="10.00" fill="#000000"> Pandas / NumPy / Matplotlib</text>
<text text-anchor="start" x="431" y="-326" font-family="Helvetica,sans-Serif" font-style="italic" font-size="10.00" fill="#000000">Courses:</text>
<text text-anchor="start" x="431" y="-310" font-family="Helvetica,sans-Serif" font-size="10.00" fill="#000000">[Ext.] NumPy Essential Training: 1 Foundations of NumPy</text>
<text text-anchor="start" x="431" y="-295" font-family="Helvetica,sans-Serif" font-size="10.00" fill="#000000">[Ext.] Understanding Series Index and Values in pandas</text>
<text text-anchor="start" x="431" y="-280" font-family="Helvetica,sans-Serif" font-size="10.00" fill="#000000">[Ext.] Pandas Arrays and Data Structures</text>
</g>
<!-- skill_python_core&#45;&gt;skill_data_fundamentals -->
<g id="edge3" class="edge">
<title>skill_python_core&#45;&gt;skill_data_fundamentals</title>
<path fill="none" stroke="#000000" stroke-width="1.5" d="M340.06,-275.5C340.06,-275.5 412.23,-275.5 412.23,-275.5"/>
<polygon fill="#000000" stroke="#000000" stroke-width="1.5" points="420.23,-275.5 412.23,-279.1 416.23,-275.75 412.23,-275.75 412.23,-275.5 412.23,-275.25 416.23,-275.25 412.23,-271.9 420.23,-275.5 420.23,-275.5"/>
</g>
<!-- skill_ml_foundations -->
<g id="node5" class="node">
<title>skill_ml_foundations</title>
<polygon fill="#56c8fd" stroke="#000000" points="1092,-366.5 1089,-370.5 1068,-370.5 1065,-366.5 800,-366.5 800,-191.5 1092,-191.5 1092,-366.5"/>
<text text-anchor="start" x="892.5" y="-351.4" font-family="Helvetica,sans-Serif" font-weight="bold" font-size="12.00" fill="#000000">ML Foundations</text>
<text text-anchor="start" x="810" y="-336" font-family="Helvetica,sans-Serif" font-style="italic" font-size="10.00" fill="#000000">Topics:</text>
<text text-anchor="start" x="810" y="-320" font-family="Helvetica,sans-Serif" font-size="10.00" fill="#000000">supervised and unsupervised learning</text>
<text text-anchor="start" x="810" y="-305" font-family="Helvetica,sans-Serif" font-size="10.00" fill="#000000">model evaluation and metrics</text>
<text text-anchor="start" x="810" y="-290" font-family="Helvetica,sans-Serif" font-size="10.00" fill="#000000">overfitting and regularization</text>
<text text-anchor="start" x="810" y="-275" font-family="Helvetica,sans-Serif" font-size="10.00" fill="#000000">feature engineering basics</text>
<text text-anchor="start" x="810" y="-261" font-family="Helvetica,sans-Serif" font-style="italic" font-size="10.00" fill="#000000">Tools:</text>
<text text-anchor="start" x="838" y="-261" font-family="Helvetica,sans-Serif" font-size="10.00" fill="#000000"> scikit&#45;learn</text>
<text text-anchor="start" x="810" y="-246" font-family="Helvetica,sans-Serif" font-style="italic" font-size="10.00" fill="#000000">Courses:</text>
<text text-anchor="start" x="810" y="-230" font-family="Helvetica,sans-Serif" font-size="10.00" fill="#000000">[Ext.] Model Evaluation and Selection Using scikit&#45;learn</text>
<text text-anchor="start" x="810" y="-215" font-family="Helvetica,sans-Serif" font-size="10.00" fill="#000000">[Ext.] Machine Learning with Scikit&#45;Learn</text>
<text text-anchor="start" x="810" y="-200" font-family="Helvetica,sans-Serif" font-size="10.00" fill="#000000">[Ext.] Preparing Data for Modeling with scikit&#45;learn</text>
</g>
<!-- skill_python_core&#45;&gt;skill_ml_foundations -->
<g id="edge4" class="edge">
<title>skill_python_core&#45;&gt;skill_ml_foundations</title>
<path fill="none" stroke="#000000" stroke-width="1.5" d="M340.2,-231.5C340.2,-231.5 791.81,-231.5 791.81,-231.5"/>
<polygon fill="#000000" stroke="#000000" stroke-width="1.5" points="799.81,-231.5 791.81,-235.1 795.81,-231.75 791.81,-231.75 791.81,-231.5 791.81,-231.25 795.81,-231.25 791.81,-227.9 799.81,-231.5 799.81,-231.5"/>
</g>
<!-- skill_mlops_production -->
<g id="node6" class="node">
<title>skill_mlops_production</title>
<polygon fill="#56c8fd" stroke="#000000" points="2554,-186 2551,-190 2530,-190 2527,-186 2191,-186 2191,0 2554,0 2554,-186"/>
<text text-anchor="start" x="2296.5" y="-171.4" font-family="Helvetica,sans-Serif" font-weight="bold" font-size="12.00" fill="#000000">MLOps and Production</text>
<text text-anchor="start" x="2201.5" y="-156" font-family="Helvetica,sans-Serif" font-style="italic" font-size="10.00" fill="#000000">Topics:</text>
<text text-anchor="start" x="2201.5" y="-140" font-family="Helvetica,sans-Serif" font-size="10.00" fill="#000000">model serving and APIs</text>
<text text-anchor="start" x="2201.5" y="-125" font-family="Helvetica,sans-Serif" font-size="10.00" fill="#000000">experiment tracking and versioning</text>
<text text-anchor="start" x="2201.5" y="-110" font-family="Helvetica,sans-Serif" font-size="10.00" fill="#000000">monitoring and retraining workflows</text>
<text text-anchor="start" x="2201.5" y="-95" font-family="Helvetica,sans-Serif" font-size="10.00" fill="#000000">CI CD for ML projects</text>
<text text-anchor="start" x="2201.5" y="-81" font-family="Helvetica,sans-Serif" font-style="italic" font-size="10.00" fill="#000000">Tools:</text>
<text text-anchor="start" x="2229.5" y="-81" font-family="Helvetica,sans-Serif" font-size="10.00" fill="#000000"> Docker / FastAPI / MLflow</text>
<text text-anchor="start" x="2201.5" y="-66" font-family="Helvetica,sans-Serif" font-style="italic" font-size="10.00" fill="#000000">Courses:</text>
<text text-anchor="start" x="2201.5" y="-50" font-family="Helvetica,sans-Serif" font-size="10.00" fill="#000000">[Ext.] Handle Data and Stateful Applications in Docker and Kubernetes</text>
<text text-anchor="start" x="2355.5" y="-39" font-family="Helvetica,sans-Serif" font-size="10.00" fill="#000000">&#45; Part 2</text>
<text text-anchor="start" x="2201.5" y="-24" font-family="Helvetica,sans-Serif" font-size="10.00" fill="#000000">[Ext.] Managing Docker Containers on AWS with the GUI</text>
<text text-anchor="start" x="2201.5" y="-9" font-family="Helvetica,sans-Serif" font-size="10.00" fill="#000000">[Ext.] Docker for Web Developers</text>
</g>
<!-- skill_python_ecosystem&#45;&gt;skill_mlops_production -->
<g id="edge5" class="edge">
<title>skill_python_ecosystem&#45;&gt;skill_mlops_production</title>
<path fill="none" stroke="#000000" stroke-width="1.5" d="M753.17,-88C753.17,-88 2182.71,-88 2182.71,-88"/>
<polygon fill="#000000" stroke="#000000" stroke-width="1.5" points="2190.71,-88 2182.71,-91.6 2186.71,-88.25 2182.71,-88.25 2182.71,-88 2182.71,-87.75 2186.71,-87.75 2182.71,-84.4 2190.71,-88 2190.71,-88"/>
</g>
<!-- skill_data_fundamentals&#45;&gt;skill_ml_foundations -->
<g id="edge6" class="edge">
<title>skill_data_fundamentals&#45;&gt;skill_ml_foundations</title>
<path fill="none" stroke="#000000" stroke-width="1.5" d="M719.69,-319C719.69,-319 791.89,-319 791.89,-319"/>
<polygon fill="#000000" stroke="#000000" stroke-width="1.5" points="799.89,-319 791.89,-322.6 795.89,-319.25 791.89,-319.25 791.89,-319 791.89,-318.75 795.89,-318.75 791.89,-315.4 799.89,-319 799.89,-319"/>
</g>
<!-- skill_deep_learning -->
<g id="node7" class="node">
<title>skill_deep_learning</title>
<polygon fill="#56c8fd" stroke="#000000" points="1468,-366.5 1465,-370.5 1444,-370.5 1441,-366.5 1139,-366.5 1139,-191.5 1468,-191.5 1468,-366.5"/>
<text text-anchor="start" x="1218" y="-351.4" font-family="Helvetica,sans-Serif" font-weight="bold" font-size="12.00" fill="#000000">Deep Learning Essentials</text>
<text text-anchor="start" x="1149.5" y="-336" font-family="Helvetica,sans-Serif" font-style="italic" font-size="10.00" fill="#000000">Topics:</text>
<text text-anchor="start" x="1149.5" y="-320" font-family="Helvetica,sans-Serif" font-size="10.00" fill="#000000">neural network architecture basics</text>
<text text-anchor="start" x="1149.5" y="-305" font-family="Helvetica,sans-Serif" font-size="10.00" fill="#000000">training loops and optimization</text>
<text text-anchor="start" x="1149.5" y="-290" font-family="Helvetica,sans-Serif" font-size="10.00" fill="#000000">regularization and normalization</text>
<text text-anchor="start" x="1149.5" y="-275" font-family="Helvetica,sans-Serif" font-size="10.00" fill="#000000">GPU usage and performance</text>
<text text-anchor="start" x="1149.5" y="-261" font-family="Helvetica,sans-Serif" font-style="italic" font-size="10.00" fill="#000000">Tools:</text>
<text text-anchor="start" x="1177.5" y="-261" font-family="Helvetica,sans-Serif" font-size="10.00" fill="#000000"> PyTorch / TensorFlow</text>
<text text-anchor="start" x="1149.5" y="-246" font-family="Helvetica,sans-Serif" font-style="italic" font-size="10.00" fill="#000000">Courses:</text>
<text text-anchor="start" x="1149.5" y="-230" font-family="Helvetica,sans-Serif" font-size="10.00" fill="#000000">[Ext.] Introduction to Computer Vision with TensorFlow</text>
<text text-anchor="start" x="1149.5" y="-215" font-family="Helvetica,sans-Serif" font-size="10.00" fill="#000000">[Ext.] Convolutional Networks with PyTorch: Image Recognition</text>
<text text-anchor="start" x="1149.5" y="-200" font-family="Helvetica,sans-Serif" font-size="10.00" fill="#000000">[Ext.] Designing Data Pipelines with TensorFlow 2.0</text>
</g>
<!-- skill_ml_foundations&#45;&gt;skill_deep_learning -->
<g id="edge7" class="edge">
<title>skill_ml_foundations&#45;&gt;skill_deep_learning</title>
<path fill="none" stroke="#000000" stroke-width="1.5" d="M1092.18,-279C1092.18,-279 1130.72,-279 1130.72,-279"/>
<polygon fill="#000000" stroke="#000000" stroke-width="1.5" points="1138.72,-279 1130.72,-282.6 1134.72,-279.25 1130.72,-279.25 1130.72,-279 1130.72,-278.75 1134.72,-278.75 1130.72,-275.4 1138.72,-279 1138.72,-279"/>
</g>
<!-- skill_software_leadership -->
<g id="node8" class="node">
<title>skill_software_leadership</title>
<polygon fill="#56c8fd" stroke="#000000" points="2847,-214 2844,-218 2823,-218 2820,-214 2601,-214 2601,-114 2847,-114 2847,-214"/>
<text text-anchor="start" x="2611" y="-199.4" font-family="Helvetica,sans-Serif" font-weight="bold" font-size="12.00" fill="#000000">Software Engineering Leadership</text>
<text text-anchor="start" x="2611" y="-184" font-family="Helvetica,sans-Serif" font-style="italic" font-size="10.00" fill="#000000">Topics:</text>
<text text-anchor="start" x="2611" y="-168" font-family="Helvetica,sans-Serif" font-size="10.00" fill="#000000">code review and mentoring</text>
<text text-anchor="start" x="2611" y="-153" font-family="Helvetica,sans-Serif" font-size="10.00" fill="#000000">architecture and design decisions</text>
<text text-anchor="start" x="2611" y="-138" font-family="Helvetica,sans-Serif" font-size="10.00" fill="#000000">technical documentation</text>
<text text-anchor="start" x="2611" y="-123" font-family="Helvetica,sans-Serif" font-size="10.00" fill="#000000">collaboration with product and stakeholders</text>
</g>
<!-- skill_mlops_production&#45;&gt;skill_software_leadership -->
<g id="edge8" class="edge">
<title>skill_mlops_production&#45;&gt;skill_software_leadership</title>
<path fill="none" stroke="#000000" stroke-width="1.5" d="M2554.17,-150C2554.17,-150 2592.76,-150 2592.76,-150"/>
<polygon fill="#000000" stroke="#000000" stroke-width="1.5" points="2600.76,-150 2592.76,-153.6 2596.76,-150.25 2592.76,-150.25 2592.76,-150 2592.76,-149.75 2596.76,-149.75 2592.76,-146.4 2600.76,-150 2600.76,-150"/>
</g>
<!-- skill_nlp_llm -->
<g id="node9" class="node">
<title>skill_nlp_llm</title>
<polygon fill="#56c8fd" stroke="#000000" points="1868,-421 1865,-425 1844,-425 1841,-421 1515,-421 1515,-235 1868,-235 1868,-421"/>
<text text-anchor="start" x="1644.5" y="-406.4" font-family="Helvetica,sans-Serif" font-weight="bold" font-size="12.00" fill="#000000">NLP and LLMs</text>
<text text-anchor="start" x="1525.5" y="-391" font-family="Helvetica,sans-Serif" font-style="italic" font-size="10.00" fill="#000000">Topics:</text>
<text text-anchor="start" x="1525.5" y="-375" font-family="Helvetica,sans-Serif" font-size="10.00" fill="#000000">text preprocessing and embeddings</text>
<text text-anchor="start" x="1525.5" y="-360" font-family="Helvetica,sans-Serif" font-size="10.00" fill="#000000">transformer architectures</text>
<text text-anchor="start" x="1525.5" y="-345" font-family="Helvetica,sans-Serif" font-size="10.00" fill="#000000">prompt design and evaluation</text>
<text text-anchor="start" x="1525.5" y="-330" font-family="Helvetica,sans-Serif" font-size="10.00" fill="#000000">fine tuning and adaptation</text>
<text text-anchor="start" x="1525.5" y="-316" font-family="Helvetica,sans-Serif" font-style="italic" font-size="10.00" fill="#000000">Tools:</text>
<text text-anchor="start" x="1553.5" y="-316" font-family="Helvetica,sans-Serif" font-size="10.00" fill="#000000"> Hugging Face Transformers / spaCy</text>
<text text-anchor="start" x="1525.5" y="-301" font-family="Helvetica,sans-Serif" font-style="italic" font-size="10.00" fill="#000000">Courses:</text>
<text text-anchor="start" x="1525.5" y="-285" font-family="Helvetica,sans-Serif" font-size="10.00" fill="#000000">[Ext.] Applied AI: Getting Started with Hugging Face Transformers</text>
<text text-anchor="start" x="1525.5" y="-270" font-family="Helvetica,sans-Serif" font-size="10.00" fill="#000000">[Ext.] AI Sentiment Analysis with PyTorch and Hugging Face</text>
<text text-anchor="start" x="1639" y="-259" font-family="Helvetica,sans-Serif" font-size="10.00" fill="#000000">Transformers</text>
<text text-anchor="start" x="1525.5" y="-244" font-family="Helvetica,sans-Serif" font-size="10.00" fill="#000000">[Ext.] Applied AI: Building NLP Apps with Hugging Face Transformers</text>
</g>
<!-- skill_deep_learning&#45;&gt;skill_nlp_llm -->
<g id="edge9" class="edge">
<title>skill_deep_learning&#45;&gt;skill_nlp_llm</title>
<path fill="none" stroke="#000000" stroke-width="1.5" d="M1468.05,-300.75C1468.05,-300.75 1506.88,-300.75 1506.88,-300.75"/>
<polygon fill="#000000" stroke="#000000" stroke-width="1.5" points="1514.88,-300.75 1506.88,-304.35 1510.88,-301 1506.88,-301 1506.88,-300.75 1506.88,-300.5 1510.88,-300.5 1506.88,-297.15 1514.88,-300.75 1514.88,-300.75"/>
</g>
<!-- skill_ai_system_design -->
<g id="node10" class="node">
<title>skill_ai_system_design</title>
<polygon fill="#56c8fd" stroke="#000000" points="2144,-263 2141,-267 2120,-267 2117,-263 1915,-263 1915,-163 2144,-163 2144,-263"/>
<text text-anchor="start" x="1970" y="-248.4" font-family="Helvetica,sans-Serif" font-weight="bold" font-size="12.00" fill="#000000">AI System Design</text>
<text text-anchor="start" x="1925.5" y="-233" font-family="Helvetica,sans-Serif" font-style="italic" font-size="10.00" fill="#000000">Topics:</text>
<text text-anchor="start" x="1925.5" y="-217" font-family="Helvetica,sans-Serif" font-size="10.00" fill="#000000">requirements and problem framing</text>
<text text-anchor="start" x="1925.5" y="-202" font-family="Helvetica,sans-Serif" font-size="10.00" fill="#000000">data and model pipeline design</text>
<text text-anchor="start" x="1925.5" y="-187" font-family="Helvetica,sans-Serif" font-size="10.00" fill="#000000">trade offs and scalability</text>
<text text-anchor="start" x="1925.5" y="-172" font-family="Helvetica,sans-Serif" font-size="10.00" fill="#000000">evaluation and experimentation strategies</text>
</g>
<!-- skill_deep_learning&#45;&gt;skill_ai_system_design -->
<g id="edge10" class="edge">
<title>skill_deep_learning&#45;&gt;skill_ai_system_design</title>
<path fill="none" stroke="#000000" stroke-width="1.5" d="M1468.24,-213.25C1468.24,-213.25 1906.82,-213.25 1906.82,-213.25"/>
<polygon fill="#000000" stroke="#000000" stroke-width="1.5" points="1914.82,-213.25 1906.82,-216.85 1910.82,-213.5 1906.82,-213.5 1906.82,-213.25 1906.82,-213 1910.82,-213 1906.82,-209.65 1914.82,-213.25 1914.82,-213.25"/>
</g>
<!-- role_target -->
<g id="node11" class="node">
<title>role_target</title>
<polygon fill="#ffb24d" stroke="#1b1b1b" points="3028,-182 3025,-186 3004,-186 3001,-182 2894,-182 2894,-146 3028,-146 3028,-182"/>
<text text-anchor="start" x="2904" y="-161.4" font-family="Helvetica,sans-Serif" font-weight="bold" font-size="12.00" fill="#000000">Python Senior AI</text>
</g>
<!-- skill_software_leadership&#45;&gt;role_target -->
<g id="edge11" class="edge">
<title>skill_software_leadership&#45;&gt;role_target</title>
<path fill="none" stroke="#000000" stroke-width="1.5" d="M2847.01,-164C2847.01,-164 2885.84,-164 2885.84,-164"/>
<polygon fill="#000000" stroke="#000000" stroke-width="1.5" points="2893.84,-164 2885.84,-167.6 2889.84,-164.25 2885.84,-164.25 2885.84,-164 2885.84,-163.75 2889.84,-163.75 2885.84,-160.4 2893.84,-164 2893.84,-164"/>
</g>
<!-- skill_nlp_llm&#45;&gt;skill_ai_system_design -->
<g id="edge12" class="edge">
<title>skill_nlp_llm&#45;&gt;skill_ai_system_design</title>
<path fill="none" stroke="#000000" stroke-width="1.5" d="M1868.42,-249C1868.42,-249 1906.57,-249 1906.57,-249"/>
<polygon fill="#000000" stroke="#000000" stroke-width="1.5" points="1914.57,-249 1906.57,-252.6 1910.57,-249.25 1906.57,-249.25 1906.57,-249 1906.57,-248.75 1910.57,-248.75 1906.57,-245.4 1914.57,-249 1914.57,-249"/>
</g>
<!-- skill_ai_system_design&#45;&gt;skill_mlops_production -->
<g id="edge13" class="edge">
<title>skill_ai_system_design&#45;&gt;skill_mlops_production</title>
<path fill="none" stroke="#000000" stroke-width="1.5" d="M2144.19,-174.5C2144.19,-174.5 2182.91,-174.5 2182.91,-174.5"/>
<polygon fill="#000000" stroke="#000000" stroke-width="1.5" points="2190.91,-174.5 2182.91,-178.1 2186.91,-174.75 2182.91,-174.75 2182.91,-174.5 2182.91,-174.25 2186.91,-174.25 2182.91,-170.9 2190.91,-174.5 2190.91,-174.5"/>
</g>
<!-- skill_ai_system_design&#45;&gt;skill_software_leadership -->
<g id="edge14" class="edge">
<title>skill_ai_system_design&#45;&gt;skill_software_leadership</title>
<path fill="none" stroke="#000000" stroke-width="1.5" d="M2144.18,-200C2144.18,-200 2592.95,-200 2592.95,-200"/>
<polygon fill="#000000" stroke="#000000" stroke-width="1.5" points="2600.95,-200 2592.95,-203.6 2596.95,-200.25 2592.95,-200.25 2592.95,-200 2592.95,-199.75 2596.95,-199.75 2592.95,-196.4 2600.95,-200 2600.95,-200"/>
</g>
</g>
</svg>
