<?xml version="1.0" encoding="UTF-8" standalone="no"?>
<!DOCTYPE svg PUBLIC "-//W3C//DTD SVG 1.1//EN"
 "http://www.w3.org/Graphics/SVG/1.1/DTD/svg11.dtd">
<!-- Generated by graphviz version 2.43.0 (0)
 -->
<!-- Pages: 1 -->
<svg width="1729pt" height="744pt"
 viewBox="0.00 0.00 1729.00 744.00" xmlns="http://www.w3.org/2000/svg" xmlns:xlink="http://www.w3.org/1999/xlink">
<g id="graph0" class="graph" transform="scale(1 1) rotate(0) translate(4 740)">
<polygon fill="#ffffff" stroke="transparent" points="-4,4 -4,-740 1725,-740 1725,4 -4,4"/>
<!-- start -->
<g id="node1" class="node">
<title>start</title>
<polygon fill="#ffb24d" stroke="#1b1b1b" points="114,-400.5 111,-404.5 90,-404.5 87,-400.5 0,-400.5 0,-364.5 114,-364.5 114,-400.5"/>
<text text-anchor="start" x="10" y="-379.9" font-family="Helvetica,sans-Serif" font-weight="bold" font-size="12.00" fill="#000000">You Are Here!</text>
</g>
<!-- python_fundamentals -->
<g id="node2" class="node">
<title>python_fundamentals</title>
<polygon fill="#56c8fd" stroke="#000000" points="365,-470 362,-474 341,-474 338,-470 161,-470 161,-295 365,-295 365,-470"/>
<text text-anchor="start" x="189" y="-454.9" font-family="Helvetica,sans-Serif" font-weight="bold" font-size="12.00" fill="#000000">Python Fundamentals</text>
<text text-anchor="start" x="171" y="-439.5" font-family="Helvetica,sans-Serif" font-style="italic" font-size="10.00" fill="#000000">Topics:</text>
<text text-anchor="start" x="171" y="-423.5" font-family="Helvetica,sans-Serif" font-size="10.00" fill="#000000">syntax, data types, control flow</text>
<text text-anchor="start" x="171" y="-408.5" font-family="Helvetica,sans-Serif" font-size="10.00" fill="#000000">functions, modules and packages</text>
<text text-anchor="start" x="171" y="-393.5" font-family="Helvetica,sans-Serif" font-size="10.00" fill="#000000">error handling and debugging</text>
<text text-anchor="start" x="171" y="-378.5" font-family="Helvetica,sans-Serif" font-size="10.00" fill="#000000">virtual environments and pip</text>
<text text-anchor="start" x="171" y="-364.5" font-family="Helvetica,sans-Serif" font-style="italic" font-size="10.00" fill="#000000">Tools:</text>
<text text-anchor="start" x="199" y="-364.5" font-family="Helvetica,sans-Serif" font-size="10.00" fill="#000000"> Python / pip / venv</text>
<text text-anchor="start" x="171" y="-349.5" font-family="Helvetica,sans-Serif" font-style="italic" font-size="10.00" fill="#000000">Courses:</text>
<text text-anchor="start" x="171" y="-333.5" font-family="Helvetica,sans-Serif" font-size="10.00" fill="#000000">[Int.] Python a Power BI</text>
<text text-anchor="start" x="171" y="-318.5" font-family="Helvetica,sans-Serif" font-size="10.00" fill="#000000">[Int.] Datová analýza v Python</text>
<text text-anchor="start" x="171" y="-303.5" font-family="Helvetica,sans-Serif" font-size="10.00" fill="#000000">[Int.] Úvod do programování v Python</text>
</g>
<!-- start&#45;&gt;python_fundamentals -->
<g id="edge1" class="edge">
<title>start&#45;&gt;python_fundamentals</title>
<path fill="none" stroke="#000000" stroke-width="1.5" d="M114.11,-382.5C114.11,-382.5 152.73,-382.5 152.73,-382.5"/>
<polygon fill="#000000" stroke="#000000" stroke-width="1.5" points="160.73,-382.5 152.73,-386.1 156.73,-382.75 152.73,-382.75 152.73,-382.5 152.73,-382.25 156.73,-382.25 152.73,-378.9 160.73,-382.5 160.73,-382.5"/>
</g>
<!-- oop_and_patterns -->
<g id="node3" class="node">
<title>oop_and_patterns</title>
<polygon fill="#56c8fd" stroke="#000000" points="641,-517.5 638,-521.5 617,-521.5 614,-517.5 458,-517.5 458,-417.5 641,-417.5 641,-517.5"/>
<text text-anchor="start" x="471.5" y="-502.9" font-family="Helvetica,sans-Serif" font-weight="bold" font-size="12.00" fill="#000000">OOP and Design Basics</text>
<text text-anchor="start" x="468.5" y="-487.5" font-family="Helvetica,sans-Serif" font-style="italic" font-size="10.00" fill="#000000">Topics:</text>
<text text-anchor="start" x="468.5" y="-471.5" font-family="Helvetica,sans-Serif" font-size="10.00" fill="#000000">classes, objects and inheritance</text>
<text text-anchor="start" x="468.5" y="-456.5" font-family="Helvetica,sans-Serif" font-size="10.00" fill="#000000">encapsulation and polymorphism</text>
<text text-anchor="start" x="468.5" y="-441.5" font-family="Helvetica,sans-Serif" font-size="10.00" fill="#000000">basic design principles</text>
<text text-anchor="start" x="468.5" y="-426.5" font-family="Helvetica,sans-Serif" font-size="10.00" fill="#000000">code organization and modules</text>
</g>
<!-- python_fundamentals&#45;&gt;oop_and_patterns -->
<g id="edge2" class="edge">
<title>python_fundamentals&#45;&gt;oop_and_patterns</title>
<path fill="none" stroke="#000000" stroke-width="1.5" d="M365.22,-443.75C365.22,-443.75 449.81,-443.75 449.81,-443.75"/>
<polygon fill="#000000" stroke="#000000" stroke-width="1.5" points="457.81,-443.75 449.81,-447.35 453.81,-444 449.81,-444 449.81,-443.75 449.81,-443.5 453.81,-443.5 449.81,-440.15 457.81,-443.75 457.81,-443.75"/>
</g>
<!-- web_basics -->
<g id="node4" class="node">
<title>web_basics</title>
<polygon fill="#56c8fd" stroke="#000000" points="687,-385 684,-389 663,-389 660,-385 412,-385 412,-210 687,-210 687,-385"/>
<text text-anchor="start" x="464.5" y="-369.9" font-family="Helvetica,sans-Serif" font-weight="bold" font-size="12.00" fill="#000000">Web Development Basics</text>
<text text-anchor="start" x="422.5" y="-354.5" font-family="Helvetica,sans-Serif" font-style="italic" font-size="10.00" fill="#000000">Topics:</text>
<text text-anchor="start" x="422.5" y="-338.5" font-family="Helvetica,sans-Serif" font-size="10.00" fill="#000000">http methods and status codes</text>
<text text-anchor="start" x="422.5" y="-323.5" font-family="Helvetica,sans-Serif" font-size="10.00" fill="#000000">restful apis concepts</text>
<text text-anchor="start" x="422.5" y="-308.5" font-family="Helvetica,sans-Serif" font-size="10.00" fill="#000000">html css js basics</text>
<text text-anchor="start" x="422.5" y="-293.5" font-family="Helvetica,sans-Serif" font-size="10.00" fill="#000000">json and client server flow</text>
<text text-anchor="start" x="422.5" y="-279.5" font-family="Helvetica,sans-Serif" font-style="italic" font-size="10.00" fill="#000000">Tools:</text>
<text text-anchor="start" x="450.5" y="-279.5" font-family="Helvetica,sans-Serif" font-size="10.00" fill="#000000"> Postman / Browser DevTools</text>
<text text-anchor="start" x="422.5" y="-264.5" font-family="Helvetica,sans-Serif" font-style="italic" font-size="10.00" fill="#000000">Courses:</text>
<text text-anchor="start" x="422.5" y="-248.5" font-family="Helvetica,sans-Serif" font-size="10.00" fill="#000000">[Ext.] Postman Essential Training</text>
<text text-anchor="start" x="422.5" y="-233.5" font-family="Helvetica,sans-Serif" font-size="10.00" fill="#000000">[Ext.] Introducing Postman</text>
<text text-anchor="start" x="422.5" y="-218.5" font-family="Helvetica,sans-Serif" font-size="10.00" fill="#000000">[Ext.] Quality Engineering: API Testing with Postman</text>
</g>
<!-- python_fundamentals&#45;&gt;web_basics -->
<g id="edge3" class="edge">
<title>python_fundamentals&#45;&gt;web_basics</title>
<path fill="none" stroke="#000000" stroke-width="1.5" d="M365.22,-340C365.22,-340 403.78,-340 403.78,-340"/>
<polygon fill="#000000" stroke="#000000" stroke-width="1.5" points="411.78,-340 403.78,-343.6 407.78,-340.25 403.78,-340.25 403.78,-340 403.78,-339.75 407.78,-339.75 403.78,-336.4 411.78,-340 411.78,-340"/>
</g>
<!-- django_core -->
<g id="node5" class="node">
<title>django_core</title>
<polygon fill="#56c8fd" stroke="#000000" points="912,-470 909,-474 888,-474 885,-470 734,-470 734,-295 912,-295 912,-470"/>
<text text-anchor="start" x="748" y="-454.9" font-family="Helvetica,sans-Serif" font-weight="bold" font-size="12.00" fill="#000000">Django Core Concepts</text>
<text text-anchor="start" x="744" y="-439.5" font-family="Helvetica,sans-Serif" font-style="italic" font-size="10.00" fill="#000000">Topics:</text>
<text text-anchor="start" x="744" y="-423.5" font-family="Helvetica,sans-Serif" font-size="10.00" fill="#000000">project and app structure</text>
<text text-anchor="start" x="744" y="-408.5" font-family="Helvetica,sans-Serif" font-size="10.00" fill="#000000">urls views and templates</text>
<text text-anchor="start" x="744" y="-393.5" font-family="Helvetica,sans-Serif" font-size="10.00" fill="#000000">models and orm basics</text>
<text text-anchor="start" x="744" y="-378.5" font-family="Helvetica,sans-Serif" font-size="10.00" fill="#000000">settings and configurations</text>
<text text-anchor="start" x="744" y="-364.5" font-family="Helvetica,sans-Serif" font-style="italic" font-size="10.00" fill="#000000">Tools:</text>
<text text-anchor="start" x="772" y="-364.5" font-family="Helvetica,sans-Serif" font-size="10.00" fill="#000000"> Django</text>
<text text-anchor="start" x="744" y="-349.5" font-family="Helvetica,sans-Serif" font-style="italic" font-size="10.00" fill="#000000">Courses:</text>
<text text-anchor="start" x="744" y="-333.5" font-family="Helvetica,sans-Serif" font-size="10.00" fill="#000000">[Ext.] Secure Coding in Django 4</text>
<text text-anchor="start" x="744" y="-318.5" font-family="Helvetica,sans-Serif" font-size="10.00" fill="#000000">[Ext.] Introduction to Django</text>
<text text-anchor="start" x="744" y="-303.5" font-family="Helvetica,sans-Serif" font-size="10.00" fill="#000000">[Ext.] Creating Django Models</text>
</g>
<!-- oop_and_patterns&#45;&gt;django_core -->
<g id="edge4" class="edge">
<title>oop_and_patterns&#45;&gt;django_core</title>
<path fill="none" stroke="#000000" stroke-width="1.5" d="M641.33,-443.75C641.33,-443.75 725.73,-443.75 725.73,-443.75"/>
<polygon fill="#000000" stroke="#000000" stroke-width="1.5" points="733.73,-443.75 725.73,-447.35 729.73,-444 725.73,-444 725.73,-443.75 725.73,-443.5 729.73,-443.5 725.73,-440.15 733.73,-443.75 733.73,-443.75"/>
</g>
<!-- web_basics&#45;&gt;django_core -->
<g id="edge5" class="edge">
<title>web_basics&#45;&gt;django_core</title>
<path fill="none" stroke="#000000" stroke-width="1.5" d="M687.05,-340C687.05,-340 725.65,-340 725.65,-340"/>
<polygon fill="#000000" stroke="#000000" stroke-width="1.5" points="733.65,-340 725.65,-343.6 729.65,-340.25 725.65,-340.25 725.65,-340 725.65,-339.75 729.65,-339.75 725.65,-336.4 733.65,-340 733.65,-340"/>
</g>
<!-- django_data_access -->
<g id="node6" class="node">
<title>django_data_access</title>
<polygon fill="#56c8fd" stroke="#000000" points="1250,-736 1247,-740 1226,-740 1223,-736 962,-736 962,-561 1250,-561 1250,-736"/>
<text text-anchor="start" x="1031.5" y="-720.9" font-family="Helvetica,sans-Serif" font-weight="bold" font-size="12.00" fill="#000000">Django ORM and Data</text>
<text text-anchor="start" x="972" y="-705.5" font-family="Helvetica,sans-Serif" font-style="italic" font-size="10.00" fill="#000000">Topics:</text>
<text text-anchor="start" x="972" y="-689.5" font-family="Helvetica,sans-Serif" font-size="10.00" fill="#000000">model relationships and queries</text>
<text text-anchor="start" x="972" y="-674.5" font-family="Helvetica,sans-Serif" font-size="10.00" fill="#000000">migrations and schema changes</text>
<text text-anchor="start" x="972" y="-659.5" font-family="Helvetica,sans-Serif" font-size="10.00" fill="#000000">querysets filtering and aggregation</text>
<text text-anchor="start" x="972" y="-644.5" font-family="Helvetica,sans-Serif" font-size="10.00" fill="#000000">using admin for data management</text>
<text text-anchor="start" x="972" y="-630.5" font-family="Helvetica,sans-Serif" font-style="italic" font-size="10.00" fill="#000000">Tools:</text>
<text text-anchor="start" x="1000" y="-630.5" font-family="Helvetica,sans-Serif" font-size="10.00" fill="#000000"> Django ORM / PostgreSQL</text>
<text text-anchor="start" x="972" y="-615.5" font-family="Helvetica,sans-Serif" font-style="italic" font-size="10.00" fill="#000000">Courses:</text>
<text text-anchor="start" x="972" y="-599.5" font-family="Helvetica,sans-Serif" font-size="10.00" fill="#000000">[Ext.] Datastream: PostgreSQL Replication to BigQuery</text>
<text text-anchor="start" x="972" y="-584.5" font-family="Helvetica,sans-Serif" font-size="10.00" fill="#000000">[Ext.] PostgreSQL: Advanced Queries</text>
<text text-anchor="start" x="972" y="-569.5" font-family="Helvetica,sans-Serif" font-size="10.00" fill="#000000">[Ext.] PostgreSQL Essential Training</text>
</g>
<!-- django_core&#45;&gt;django_data_access -->
<g id="edge6" class="edge">
<title>django_core&#45;&gt;django_data_access</title>
<path fill="none" stroke="#000000" stroke-width="1.5" d="M912.15,-451.33C944.84,-451.33 974,-451.33 974,-451.33 974,-451.33 974,-552.87 974,-552.87"/>
<polygon fill="#000000" stroke="#000000" stroke-width="1.5" points="974,-560.87 970.4,-552.87 973.75,-556.87 973.75,-552.87 974,-552.87 974.25,-552.87 974.25,-556.87 977.6,-552.87 974,-560.87 974,-560.87"/>
</g>
<!-- django_rest_api -->
<g id="node7" class="node">
<title>django_rest_api</title>
<polygon fill="#56c8fd" stroke="#000000" points="1193,-529 1190,-533 1169,-533 1166,-529 1019,-529 1019,-414 1193,-414 1193,-529"/>
<text text-anchor="start" x="1045.5" y="-513.9" font-family="Helvetica,sans-Serif" font-weight="bold" font-size="12.00" fill="#000000">Django REST APIs</text>
<text text-anchor="start" x="1029" y="-498.5" font-family="Helvetica,sans-Serif" font-style="italic" font-size="10.00" fill="#000000">Topics:</text>
<text text-anchor="start" x="1029" y="-482.5" font-family="Helvetica,sans-Serif" font-size="10.00" fill="#000000">serializers and viewsets</text>
<text text-anchor="start" x="1029" y="-467.5" font-family="Helvetica,sans-Serif" font-size="10.00" fill="#000000">routing and api versioning</text>
<text text-anchor="start" x="1029" y="-452.5" font-family="Helvetica,sans-Serif" font-size="10.00" fill="#000000">authentication and permissions</text>
<text text-anchor="start" x="1029" y="-437.5" font-family="Helvetica,sans-Serif" font-size="10.00" fill="#000000">pagination and filtering</text>
<text text-anchor="start" x="1029" y="-423.5" font-family="Helvetica,sans-Serif" font-style="italic" font-size="10.00" fill="#000000">Tools:</text>
<text text-anchor="start" x="1057" y="-423.5" font-family="Helvetica,sans-Serif" font-size="10.00" fill="#000000"> Django REST Framework</text>
</g>
<!-- django_core&#45;&gt;django_rest_api -->
<g id="edge7" class="edge">
<title>django_core&#45;&gt;django_rest_api</title>
<path fill="none" stroke="#000000" stroke-width="1.5" d="M912.15,-432.67C912.15,-432.67 1010.75,-432.67 1010.75,-432.67"/>
<polygon fill="#000000" stroke="#000000" stroke-width="1.5" points="1018.75,-432.67 1010.75,-436.27 1014.75,-432.92 1010.75,-432.92 1010.75,-432.67 1010.75,-432.42 1014.75,-432.42 1010.75,-429.07 1018.75,-432.67 1018.75,-432.67"/>
</g>
<!-- django_auth_security -->
<g id="node8" class="node">
<title>django_auth_security</title>
<polygon fill="#56c8fd" stroke="#000000" points="1232,-382 1229,-386 1208,-386 1205,-382 980,-382 980,-207 1232,-207 1232,-382"/>
<text text-anchor="start" x="1020" y="-366.9" font-family="Helvetica,sans-Serif" font-weight="bold" font-size="12.00" fill="#000000">Django Auth and Security</text>
<text text-anchor="start" x="990" y="-351.5" font-family="Helvetica,sans-Serif" font-style="italic" font-size="10.00" fill="#000000">Topics:</text>
<text text-anchor="start" x="990" y="-335.5" font-family="Helvetica,sans-Serif" font-size="10.00" fill="#000000">user model and auth flows</text>
<text text-anchor="start" x="990" y="-320.5" font-family="Helvetica,sans-Serif" font-size="10.00" fill="#000000">sessions and cookies</text>
<text text-anchor="start" x="990" y="-305.5" font-family="Helvetica,sans-Serif" font-size="10.00" fill="#000000">csrf and common web vulnerabilities</text>
<text text-anchor="start" x="990" y="-290.5" font-family="Helvetica,sans-Serif" font-size="10.00" fill="#000000">validation and secure settings</text>
<text text-anchor="start" x="990" y="-276.5" font-family="Helvetica,sans-Serif" font-style="italic" font-size="10.00" fill="#000000">Tools:</text>
<text text-anchor="start" x="1018" y="-276.5" font-family="Helvetica,sans-Serif" font-size="10.00" fill="#000000"> Django</text>
<text text-anchor="start" x="990" y="-261.5" font-family="Helvetica,sans-Serif" font-style="italic" font-size="10.00" fill="#000000">Courses:</text>
<text text-anchor="start" x="990" y="-245.5" font-family="Helvetica,sans-Serif" font-size="10.00" fill="#000000">[Ext.] Django 4 Views, Apps, and URL Mappings</text>
<text text-anchor="start" x="990" y="-230.5" font-family="Helvetica,sans-Serif" font-size="10.00" fill="#000000">[Ext.] Building RESTful Web APIs with Django</text>
<text text-anchor="start" x="990" y="-215.5" font-family="Helvetica,sans-Serif" font-size="10.00" fill="#000000">[Ext.] Django 4 Forms and ModelForms</text>
</g>
<!-- django_core&#45;&gt;django_auth_security -->
<g id="edge8" class="edge">
<title>django_core&#45;&gt;django_auth_security</title>
<path fill="none" stroke="#000000" stroke-width="1.5" d="M912.15,-353C912.15,-353 971.76,-353 971.76,-353"/>
<polygon fill="#000000" stroke="#000000" stroke-width="1.5" points="979.76,-353 971.76,-356.6 975.76,-353.25 971.76,-353.25 971.76,-353 971.76,-352.75 975.76,-352.75 971.76,-349.4 979.76,-353 979.76,-353"/>
</g>
<!-- dev_tools_practices -->
<g id="node9" class="node">
<title>dev_tools_practices</title>
<polygon fill="#56c8fd" stroke="#000000" points="1253,-175 1250,-179 1229,-179 1226,-175 959,-175 959,0 1253,0 1253,-175"/>
<text text-anchor="start" x="1025.5" y="-159.9" font-family="Helvetica,sans-Serif" font-weight="bold" font-size="12.00" fill="#000000">Dev Tools and Practices</text>
<text text-anchor="start" x="969" y="-144.5" font-family="Helvetica,sans-Serif" font-style="italic" font-size="10.00" fill="#000000">Topics:</text>
<text text-anchor="start" x="969" y="-128.5" font-family="Helvetica,sans-Serif" font-size="10.00" fill="#000000">git branching and pull requests</text>
<text text-anchor="start" x="969" y="-113.5" font-family="Helvetica,sans-Serif" font-size="10.00" fill="#000000">basic testing and pytest or unittest</text>
<text text-anchor="start" x="969" y="-98.5" font-family="Helvetica,sans-Serif" font-size="10.00" fill="#000000">logging and debugging django apps</text>
<text text-anchor="start" x="969" y="-83.5" font-family="Helvetica,sans-Serif" font-size="10.00" fill="#000000">using environment variables</text>
<text text-anchor="start" x="969" y="-69.5" font-family="Helvetica,sans-Serif" font-style="italic" font-size="10.00" fill="#000000">Tools:</text>
<text text-anchor="start" x="997" y="-69.5" font-family="Helvetica,sans-Serif" font-size="10.00" fill="#000000"> Git / Pytest / Docker</text>
<text text-anchor="start" x="969" y="-54.5" font-family="Helvetica,sans-Serif" font-style="italic" font-size="10.00" fill="#000000">Courses:</text>
<text text-anchor="start" x="969" y="-38.5" font-family="Helvetica,sans-Serif" font-size="10.00" fill="#000000">[Ext.] Building with Git in Jenkins</text>
<text text-anchor="start" x="969" y="-23.5" font-family="Helvetica,sans-Serif" font-size="10.00" fill="#000000">[Ext.] Tactics and Tools for Troubleshooting Docker</text>
<text text-anchor="start" x="969" y="-8.5" font-family="Helvetica,sans-Serif" font-size="10.00" fill="#000000">[Ext.] Working with Git and GitHub in Visual Studio 2022</text>
</g>
<!-- django_core&#45;&gt;dev_tools_practices -->
<g id="edge9" class="edge">
<title>django_core&#45;&gt;dev_tools_practices</title>
<path fill="none" stroke="#000000" stroke-width="1.5" d="M912.35,-324C942.19,-324 968,-324 968,-324 968,-324 968,-183.23 968,-183.23"/>
<polygon fill="#000000" stroke="#000000" stroke-width="1.5" points="968,-175.23 971.6,-183.23 968.25,-179.23 968.25,-183.23 968,-183.23 967.75,-183.23 967.75,-179.23 964.4,-183.23 968,-175.23 968,-175.23"/>
</g>
<!-- django_deployment -->
<g id="node10" class="node">
<title>django_deployment</title>
<polygon fill="#56c8fd" stroke="#000000" points="1563,-470 1560,-474 1539,-474 1536,-470 1300,-470 1300,-295 1563,-295 1563,-470"/>
<text text-anchor="start" x="1342" y="-454.9" font-family="Helvetica,sans-Serif" font-weight="bold" font-size="12.00" fill="#000000">Django Deployment Basics</text>
<text text-anchor="start" x="1310.5" y="-439.5" font-family="Helvetica,sans-Serif" font-style="italic" font-size="10.00" fill="#000000">Topics:</text>
<text text-anchor="start" x="1310.5" y="-423.5" font-family="Helvetica,sans-Serif" font-size="10.00" fill="#000000">serving django with wsgi or asgi</text>
<text text-anchor="start" x="1310.5" y="-408.5" font-family="Helvetica,sans-Serif" font-size="10.00" fill="#000000">static and media files handling</text>
<text text-anchor="start" x="1310.5" y="-393.5" font-family="Helvetica,sans-Serif" font-size="10.00" fill="#000000">basic ci cd and environment configs</text>
<text text-anchor="start" x="1310.5" y="-378.5" font-family="Helvetica,sans-Serif" font-size="10.00" fill="#000000">using sqlite vs production databases</text>
<text text-anchor="start" x="1310.5" y="-364.5" font-family="Helvetica,sans-Serif" font-style="italic" font-size="10.00" fill="#000000">Tools:</text>
<text text-anchor="start" x="1338.5" y="-364.5" font-family="Helvetica,sans-Serif" font-size="10.00" fill="#000000"> Gunicorn / Nginx / GitHub Actions</text>
<text text-anchor="start" x="1310.5" y="-349.5" font-family="Helvetica,sans-Serif" font-style="italic" font-size="10.00" fill="#000000">Courses:</text>
<text text-anchor="start" x="1310.5" y="-333.5" font-family="Helvetica,sans-Serif" font-size="10.00" fill="#000000">[Ext.] GitHub Actions Cert Prep by Microsoft Press</text>
<text text-anchor="start" x="1310.5" y="-318.5" font-family="Helvetica,sans-Serif" font-size="10.00" fill="#000000">[Ext.] Getting Started with GitHub Actions</text>
<text text-anchor="start" x="1310.5" y="-303.5" font-family="Helvetica,sans-Serif" font-size="10.00" fill="#000000">[Ext.] Consuming GitHub Actions Workflows</text>
</g>
<!-- django_data_access&#45;&gt;django_deployment -->
<g id="edge10" class="edge">
<title>django_data_access&#45;&gt;django_deployment</title>
<path fill="none" stroke="#000000" stroke-width="1.5" d="M1244,-560.87C1244,-508.21 1244,-451.33 1244,-451.33 1244,-451.33 1291.75,-451.33 1291.75,-451.33"/>
<polygon fill="#000000" stroke="#000000" stroke-width="1.5" points="1299.75,-451.33 1291.75,-454.93 1295.75,-451.58 1291.75,-451.58 1291.75,-451.33 1291.75,-451.08 1295.75,-451.08 1291.75,-447.73 1299.75,-451.33 1299.75,-451.33"/>
</g>
<!-- django_rest_api&#45;&gt;django_deployment -->
<g id="edge11" class="edge">
<title>django_rest_api&#45;&gt;django_deployment</title>
<path fill="none" stroke="#000000" stroke-width="1.5" d="M1193.23,-432.67C1193.23,-432.67 1291.92,-432.67 1291.92,-432.67"/>
<polygon fill="#000000" stroke="#000000" stroke-width="1.5" points="1299.92,-432.67 1291.92,-436.27 1295.92,-432.92 1291.92,-432.92 1291.92,-432.67 1291.92,-432.42 1295.92,-432.42 1291.92,-429.07 1299.92,-432.67 1299.92,-432.67"/>
</g>
<!-- django_auth_security&#45;&gt;django_deployment -->
<g id="edge12" class="edge">
<title>django_auth_security&#45;&gt;django_deployment</title>
<path fill="none" stroke="#000000" stroke-width="1.5" d="M1232.31,-353C1232.31,-353 1291.88,-353 1291.88,-353"/>
<polygon fill="#000000" stroke="#000000" stroke-width="1.5" points="1299.88,-353 1291.88,-356.6 1295.88,-353.25 1291.88,-353.25 1291.88,-353 1291.88,-352.75 1295.88,-352.75 1291.88,-349.4 1299.88,-353 1299.88,-353"/>
</g>
<!-- dev_tools_practices&#45;&gt;django_deployment -->
<g id="edge13" class="edge">
<title>dev_tools_practices&#45;&gt;django_deployment</title>
<path fill="none" stroke="#000000" stroke-width="1.5" d="M1238,-175.23C1238,-242.53 1238,-324 1238,-324 1238,-324 1291.76,-324 1291.76,-324"/>
<polygon fill="#000000" stroke="#000000" stroke-width="1.5" points="1299.76,-324 1291.76,-327.6 1295.76,-324.25 1291.76,-324.25 1291.76,-324 1291.76,-323.75 1295.76,-323.75 1291.76,-320.4 1299.76,-324 1299.76,-324"/>
</g>
<!-- target -->
<g id="node11" class="node">
<title>target</title>
<polygon fill="#ffb24d" stroke="#1b1b1b" points="1721,-400.5 1718,-404.5 1697,-404.5 1694,-400.5 1610,-400.5 1610,-364.5 1721,-364.5 1721,-400.5"/>
<text text-anchor="start" x="1620.5" y="-379.9" font-family="Helvetica,sans-Serif" font-weight="bold" font-size="12.00" fill="#000000">Junior Django</text>
</g>
<!-- django_deployment&#45;&gt;target -->
<g id="edge14" class="edge">
<title>django_deployment&#45;&gt;target</title>
<path fill="none" stroke="#000000" stroke-width="1.5" d="M1563.2,-382.5C1563.2,-382.5 1601.97,-382.5 1601.97,-382.5"/>
<polygon fill="#000000" stroke="#000000" stroke-width="1.5" points="1609.97,-382.5 1601.97,-386.1 1605.97,-382.75 1601.97,-382.75 1601.97,-382.5 1601.97,-382.25 1605.97,-382.25 1601.97,-378.9 1609.97,-382.5 1609.97,-382.5"/>
</g>
</g>
</svg>
