<?xml version="1.0" encoding="UTF-8" standalone="no"?>
<!DOCTYPE svg PUBLIC "-//W3C//DTD SVG 1.1//EN"
 "http://www.w3.org/Graphics/SVG/1.1/DTD/svg11.dtd">
<!-- Generated by graphviz version 2.43.0 (0)
 -->
<!-- Pages: 1 -->
<svg width="2169pt" height="300pt"
 viewBox="0.00 0.00 2169.00 300.00" xmlns="http://www.w3.org/2000/svg" xmlns:xlink="http://www.w3.org/1999/xlink">
<g id="graph0" class="graph" transform="scale(1 1) rotate(0) translate(4 296)">
<polygon fill="#ffffff" stroke="transparent" points="-4,4 -4,-296 2165,-296 2165,4 -4,4"/>
<!-- start -->
<g id="node1" class="node">
<title>start</title>
<polygon fill="#ffb24d" stroke="#1b1b1b" points="114,-179 111,-183 90,-183 87,-179 0,-179 0,-143 114,-143 114,-179"/>
<text text-anchor="start" x="10" y="-158.4" font-family="Helvetica,sans-Serif" font-weight="bold" font-size="12.00" fill="#000000">You Are Here!</text>
</g>
<!-- python&#45;basics -->
<g id="node2" class="node">
<title>python&#45;basics</title>
<polygon fill="#56c8fd" stroke="#000000" points="404,-241 401,-245 380,-245 377,-241 161,-241 161,-81 404,-81 404,-241"/>
<text text-anchor="start" x="215.5" y="-226.4" font-family="Helvetica,sans-Serif" font-weight="bold" font-size="12.00" fill="#000000">Python Foundations</text>
<text text-anchor="start" x="171.5" y="-211" font-family="Helvetica,sans-Serif" font-style="italic" font-size="10.00" fill="#000000">Topics:</text>
<text text-anchor="start" x="171.5" y="-195" font-family="Helvetica,sans-Serif" font-size="10.00" fill="#000000">variables, data types, control flow</text>
<text text-anchor="start" x="171.5" y="-180" font-family="Helvetica,sans-Serif" font-size="10.00" fill="#000000">functions, modules, packages</text>
<text text-anchor="start" x="171.5" y="-165" font-family="Helvetica,sans-Serif" font-size="10.00" fill="#000000">error handling and debugging</text>
<text text-anchor="start" x="171.5" y="-151" font-family="Helvetica,sans-Serif" font-style="italic" font-size="10.00" fill="#000000">Tools:</text>
<text text-anchor="start" x="199.5" y="-151" font-family="Helvetica,sans-Serif" font-size="10.00" fill="#000000"> Python / PyCharm / VS Code</text>
<text text-anchor="start" x="171.5" y="-136" font-family="Helvetica,sans-Serif" font-style="italic" font-size="10.00" fill="#000000">Courses:</text>
<text text-anchor="start" x="171.5" y="-120" font-family="Helvetica,sans-Serif" font-size="10.00" fill="#000000">[Int.] Úvod do programování Python</text>
<text text-anchor="start" x="171.5" y="-105" font-family="Helvetica,sans-Serif" font-size="10.00" fill="#000000">[Int.] Datová analýza v Python</text>
<text text-anchor="start" x="171.5" y="-90" font-family="Helvetica,sans-Serif" font-size="10.00" fill="#000000">[Int.] Python: Objektově orient. programování</text>
</g>
<!-- start&#45;&gt;python&#45;basics -->
<g id="edge1" class="edge">
<title>start&#45;&gt;python&#45;basics</title>
<path fill="none" stroke="#000000" stroke-width="1.5" d="M114.19,-161C114.19,-161 152.71,-161 152.71,-161"/>
<polygon fill="#000000" stroke="#000000" stroke-width="1.5" points="160.71,-161 152.71,-164.6 156.71,-161.25 152.71,-161.25 152.71,-161 152.71,-160.75 156.71,-160.75 152.71,-157.4 160.71,-161 160.71,-161"/>
</g>
<!-- python&#45;oop -->
<g id="node3" class="node">
<title>python&#45;oop</title>
<polygon fill="#56c8fd" stroke="#000000" points="665,-274 662,-278 641,-278 638,-274 451,-274 451,-174 665,-174 665,-274"/>
<text text-anchor="start" x="475" y="-259.4" font-family="Helvetica,sans-Serif" font-weight="bold" font-size="12.00" fill="#000000">Python OOP &amp; Packages</text>
<text text-anchor="start" x="461" y="-244" font-family="Helvetica,sans-Serif" font-style="italic" font-size="10.00" fill="#000000">Topics:</text>
<text text-anchor="start" x="461" y="-228" font-family="Helvetica,sans-Serif" font-size="10.00" fill="#000000">classes, objects, inheritance</text>
<text text-anchor="start" x="461" y="-213" font-family="Helvetica,sans-Serif" font-size="10.00" fill="#000000">modules and package structure</text>
<text text-anchor="start" x="461" y="-198" font-family="Helvetica,sans-Serif" font-size="10.00" fill="#000000">virtual environments and dependencies</text>
<text text-anchor="start" x="461" y="-184" font-family="Helvetica,sans-Serif" font-style="italic" font-size="10.00" fill="#000000">Tools:</text>
<text text-anchor="start" x="489" y="-184" font-family="Helvetica,sans-Serif" font-size="10.00" fill="#000000"> venv / pip</text>
</g>
<!-- python&#45;basics&#45;&gt;python&#45;oop -->
<g id="edge2" class="edge">
<title>python&#45;basics&#45;&gt;python&#45;oop</title>
<path fill="none" stroke="#000000" stroke-width="1.5" d="M404.14,-207.5C404.14,-207.5 442.87,-207.5 442.87,-207.5"/>
<polygon fill="#000000" stroke="#000000" stroke-width="1.5" points="450.87,-207.5 442.87,-211.1 446.87,-207.75 442.87,-207.75 442.87,-207.5 442.87,-207.25 446.87,-207.25 442.87,-203.9 450.87,-207.5 450.87,-207.5"/>
</g>
<!-- web&#45;basics -->
<g id="node4" class="node">
<title>web&#45;basics</title>
<polygon fill="#56c8fd" stroke="#000000" points="646.5,-141.5 643.5,-145.5 622.5,-145.5 619.5,-141.5 469.5,-141.5 469.5,-56.5 646.5,-56.5 646.5,-141.5"/>
<text text-anchor="start" x="493.5" y="-126.4" font-family="Helvetica,sans-Serif" font-weight="bold" font-size="12.00" fill="#000000">Web Fundamentals</text>
<text text-anchor="start" x="480" y="-111" font-family="Helvetica,sans-Serif" font-style="italic" font-size="10.00" fill="#000000">Topics:</text>
<text text-anchor="start" x="480" y="-95" font-family="Helvetica,sans-Serif" font-size="10.00" fill="#000000">HTTP methods and status codes</text>
<text text-anchor="start" x="480" y="-80" font-family="Helvetica,sans-Serif" font-size="10.00" fill="#000000">REST principles and JSON</text>
<text text-anchor="start" x="480" y="-65" font-family="Helvetica,sans-Serif" font-size="10.00" fill="#000000">HTML forms and basic CSS</text>
</g>
<!-- python&#45;basics&#45;&gt;web&#45;basics -->
<g id="edge3" class="edge">
<title>python&#45;basics&#45;&gt;web&#45;basics</title>
<path fill="none" stroke="#000000" stroke-width="1.5" d="M404.14,-111.25C404.14,-111.25 461.27,-111.25 461.27,-111.25"/>
<polygon fill="#000000" stroke="#000000" stroke-width="1.5" points="469.27,-111.25 461.27,-114.85 465.27,-111.5 461.27,-111.5 461.27,-111.25 461.27,-111 465.27,-111 461.27,-107.65 469.27,-111.25 469.27,-111.25"/>
</g>
<!-- django&#45;core -->
<g id="node5" class="node">
<title>django&#45;core</title>
<polygon fill="#56c8fd" stroke="#000000" points="950,-241 947,-245 926,-245 923,-241 712,-241 712,-81 950,-81 950,-241"/>
<text text-anchor="start" x="756" y="-226.4" font-family="Helvetica,sans-Serif" font-weight="bold" font-size="12.00" fill="#000000">Django Core Concepts</text>
<text text-anchor="start" x="722" y="-211" font-family="Helvetica,sans-Serif" font-style="italic" font-size="10.00" fill="#000000">Topics:</text>
<text text-anchor="start" x="722" y="-195" font-family="Helvetica,sans-Serif" font-size="10.00" fill="#000000">project and app structure</text>
<text text-anchor="start" x="722" y="-180" font-family="Helvetica,sans-Serif" font-size="10.00" fill="#000000">models, views, templates (MVT)</text>
<text text-anchor="start" x="722" y="-165" font-family="Helvetica,sans-Serif" font-size="10.00" fill="#000000">URL routing and settings</text>
<text text-anchor="start" x="722" y="-151" font-family="Helvetica,sans-Serif" font-style="italic" font-size="10.00" fill="#000000">Tools:</text>
<text text-anchor="start" x="750" y="-151" font-family="Helvetica,sans-Serif" font-size="10.00" fill="#000000"> Django</text>
<text text-anchor="start" x="722" y="-136" font-family="Helvetica,sans-Serif" font-style="italic" font-size="10.00" fill="#000000">Courses:</text>
<text text-anchor="start" x="722" y="-120" font-family="Helvetica,sans-Serif" font-size="10.00" fill="#000000">[Ext.] Building Web Applications with Django</text>
<text text-anchor="start" x="722" y="-105" font-family="Helvetica,sans-Serif" font-size="10.00" fill="#000000">[Ext.] Django Fundamentals</text>
<text text-anchor="start" x="722" y="-90" font-family="Helvetica,sans-Serif" font-size="10.00" fill="#000000">[Ext.] Django 4 Templates</text>
</g>
<!-- python&#45;oop&#45;&gt;django&#45;core -->
<g id="edge4" class="edge">
<title>python&#45;oop&#45;&gt;django&#45;core</title>
<path fill="none" stroke="#000000" stroke-width="1.5" d="M665.11,-207.5C665.11,-207.5 703.55,-207.5 703.55,-207.5"/>
<polygon fill="#000000" stroke="#000000" stroke-width="1.5" points="711.55,-207.5 703.55,-211.1 707.55,-207.75 703.55,-207.75 703.55,-207.5 703.55,-207.25 707.55,-207.25 703.55,-203.9 711.55,-207.5 711.55,-207.5"/>
</g>
<!-- web&#45;basics&#45;&gt;django&#45;core -->
<g id="edge5" class="edge">
<title>web&#45;basics&#45;&gt;django&#45;core</title>
<path fill="none" stroke="#000000" stroke-width="1.5" d="M646.64,-111.25C646.64,-111.25 703.53,-111.25 703.53,-111.25"/>
<polygon fill="#000000" stroke="#000000" stroke-width="1.5" points="711.53,-111.25 703.53,-114.85 707.53,-111.5 703.53,-111.5 703.53,-111.25 703.53,-111 707.53,-111 703.53,-107.65 711.53,-111.25 711.53,-111.25"/>
</g>
<!-- django&#45;data -->
<g id="node6" class="node">
<title>django&#45;data</title>
<polygon fill="#56c8fd" stroke="#000000" points="1212.5,-292 1209.5,-296 1188.5,-296 1185.5,-292 1033.5,-292 1033.5,-192 1212.5,-192 1212.5,-292"/>
<text text-anchor="start" x="1048" y="-277.4" font-family="Helvetica,sans-Serif" font-weight="bold" font-size="12.00" fill="#000000">Django Models &amp; ORM</text>
<text text-anchor="start" x="1044" y="-262" font-family="Helvetica,sans-Serif" font-style="italic" font-size="10.00" fill="#000000">Topics:</text>
<text text-anchor="start" x="1044" y="-246" font-family="Helvetica,sans-Serif" font-size="10.00" fill="#000000">model fields and relationships</text>
<text text-anchor="start" x="1044" y="-231" font-family="Helvetica,sans-Serif" font-size="10.00" fill="#000000">querysets and managers</text>
<text text-anchor="start" x="1044" y="-216" font-family="Helvetica,sans-Serif" font-size="10.00" fill="#000000">migrations and schema changes</text>
<text text-anchor="start" x="1044" y="-202" font-family="Helvetica,sans-Serif" font-style="italic" font-size="10.00" fill="#000000">Tools:</text>
<text text-anchor="start" x="1072" y="-202" font-family="Helvetica,sans-Serif" font-size="10.00" fill="#000000"> Django ORM</text>
</g>
<!-- django&#45;core&#45;&gt;django&#45;data -->
<g id="edge6" class="edge">
<title>django&#45;core&#45;&gt;django&#45;data</title>
<path fill="none" stroke="#000000" stroke-width="1.5" d="M950.19,-216.5C950.19,-216.5 1025.27,-216.5 1025.27,-216.5"/>
<polygon fill="#000000" stroke="#000000" stroke-width="1.5" points="1033.27,-216.5 1025.27,-220.1 1029.27,-216.75 1025.27,-216.75 1025.27,-216.5 1025.27,-216.25 1029.27,-216.25 1025.27,-212.9 1033.27,-216.5 1033.27,-216.5"/>
</g>
<!-- django&#45;views&#45;forms -->
<g id="node7" class="node">
<title>django&#45;views&#45;forms</title>
<polygon fill="#56c8fd" stroke="#000000" points="1249,-160 1246,-164 1225,-164 1222,-160 997,-160 997,0 1249,0 1249,-160"/>
<text text-anchor="start" x="1046.5" y="-145.4" font-family="Helvetica,sans-Serif" font-weight="bold" font-size="12.00" fill="#000000">Django Views &amp; Forms</text>
<text text-anchor="start" x="1007" y="-130" font-family="Helvetica,sans-Serif" font-style="italic" font-size="10.00" fill="#000000">Topics:</text>
<text text-anchor="start" x="1007" y="-114" font-family="Helvetica,sans-Serif" font-size="10.00" fill="#000000">function and class based views</text>
<text text-anchor="start" x="1007" y="-99" font-family="Helvetica,sans-Serif" font-size="10.00" fill="#000000">forms and ModelForms</text>
<text text-anchor="start" x="1007" y="-84" font-family="Helvetica,sans-Serif" font-size="10.00" fill="#000000">validation and error handling</text>
<text text-anchor="start" x="1007" y="-70" font-family="Helvetica,sans-Serif" font-style="italic" font-size="10.00" fill="#000000">Tools:</text>
<text text-anchor="start" x="1035" y="-70" font-family="Helvetica,sans-Serif" font-size="10.00" fill="#000000"> Django</text>
<text text-anchor="start" x="1007" y="-55" font-family="Helvetica,sans-Serif" font-style="italic" font-size="10.00" fill="#000000">Courses:</text>
<text text-anchor="start" x="1007" y="-39" font-family="Helvetica,sans-Serif" font-size="10.00" fill="#000000">[Ext.] Django 4 Views, Apps, and URL Mappings</text>
<text text-anchor="start" x="1007" y="-24" font-family="Helvetica,sans-Serif" font-size="10.00" fill="#000000">[Ext.] Building React and Django Apps</text>
<text text-anchor="start" x="1007" y="-9" font-family="Helvetica,sans-Serif" font-size="10.00" fill="#000000">[Ext.] Unit Testing in Django</text>
</g>
<!-- django&#45;core&#45;&gt;django&#45;views&#45;forms -->
<g id="edge7" class="edge">
<title>django&#45;core&#45;&gt;django&#45;views&#45;forms</title>
<path fill="none" stroke="#000000" stroke-width="1.5" d="M950.19,-120.5C950.19,-120.5 988.6,-120.5 988.6,-120.5"/>
<polygon fill="#000000" stroke="#000000" stroke-width="1.5" points="996.6,-120.5 988.6,-124.1 992.6,-120.75 988.6,-120.75 988.6,-120.5 988.6,-120.25 992.6,-120.25 988.6,-116.9 996.6,-120.5 996.6,-120.5"/>
</g>
<!-- django&#45;auth -->
<g id="node8" class="node">
<title>django&#45;auth</title>
<polygon fill="#56c8fd" stroke="#000000" points="1474,-211 1471,-215 1450,-215 1447,-211 1296,-211 1296,-111 1474,-111 1474,-211"/>
<text text-anchor="start" x="1306" y="-196.4" font-family="Helvetica,sans-Serif" font-weight="bold" font-size="12.00" fill="#000000">Django Auth &amp; Security</text>
<text text-anchor="start" x="1306" y="-181" font-family="Helvetica,sans-Serif" font-style="italic" font-size="10.00" fill="#000000">Topics:</text>
<text text-anchor="start" x="1306" y="-165" font-family="Helvetica,sans-Serif" font-size="10.00" fill="#000000">user model and authentication</text>
<text text-anchor="start" x="1306" y="-150" font-family="Helvetica,sans-Serif" font-size="10.00" fill="#000000">permissions and authorization</text>
<text text-anchor="start" x="1306" y="-135" font-family="Helvetica,sans-Serif" font-size="10.00" fill="#000000">basic security best practices</text>
<text text-anchor="start" x="1306" y="-121" font-family="Helvetica,sans-Serif" font-style="italic" font-size="10.00" fill="#000000">Tools:</text>
<text text-anchor="start" x="1334" y="-121" font-family="Helvetica,sans-Serif" font-size="10.00" fill="#000000"> Django Auth</text>
</g>
<!-- django&#45;data&#45;&gt;django&#45;auth -->
<g id="edge8" class="edge">
<title>django&#45;data&#45;&gt;django&#45;auth</title>
<path fill="none" stroke="#000000" stroke-width="1.5" d="M1212.8,-201.5C1212.8,-201.5 1287.76,-201.5 1287.76,-201.5"/>
<polygon fill="#000000" stroke="#000000" stroke-width="1.5" points="1295.76,-201.5 1287.76,-205.1 1291.76,-201.75 1287.76,-201.75 1287.76,-201.5 1287.76,-201.25 1291.76,-201.25 1287.76,-197.9 1295.76,-201.5 1295.76,-201.5"/>
</g>
<!-- django&#45;views&#45;forms&#45;&gt;django&#45;auth -->
<g id="edge9" class="edge">
<title>django&#45;views&#45;forms&#45;&gt;django&#45;auth</title>
<path fill="none" stroke="#000000" stroke-width="1.5" d="M1249.01,-135.5C1249.01,-135.5 1287.96,-135.5 1287.96,-135.5"/>
<polygon fill="#000000" stroke="#000000" stroke-width="1.5" points="1295.96,-135.5 1287.96,-139.1 1291.96,-135.75 1287.96,-135.75 1287.96,-135.5 1287.96,-135.25 1291.96,-135.25 1287.96,-131.9 1295.96,-135.5 1295.96,-135.5"/>
</g>
<!-- django&#45;rest -->
<g id="node9" class="node">
<title>django&#45;rest</title>
<polygon fill="#56c8fd" stroke="#000000" points="1705,-211 1702,-215 1681,-215 1678,-211 1521,-211 1521,-111 1705,-111 1705,-211"/>
<text text-anchor="start" x="1546.5" y="-196.4" font-family="Helvetica,sans-Serif" font-weight="bold" font-size="12.00" fill="#000000">Django REST Basics</text>
<text text-anchor="start" x="1531" y="-181" font-family="Helvetica,sans-Serif" font-style="italic" font-size="10.00" fill="#000000">Topics:</text>
<text text-anchor="start" x="1531" y="-165" font-family="Helvetica,sans-Serif" font-size="10.00" fill="#000000">serializers and viewsets</text>
<text text-anchor="start" x="1531" y="-150" font-family="Helvetica,sans-Serif" font-size="10.00" fill="#000000">API endpoints and routing</text>
<text text-anchor="start" x="1531" y="-135" font-family="Helvetica,sans-Serif" font-size="10.00" fill="#000000">pagination and basic permissions</text>
<text text-anchor="start" x="1531" y="-121" font-family="Helvetica,sans-Serif" font-style="italic" font-size="10.00" fill="#000000">Tools:</text>
<text text-anchor="start" x="1559" y="-121" font-family="Helvetica,sans-Serif" font-size="10.00" fill="#000000"> Django REST Framework</text>
</g>
<!-- django&#45;auth&#45;&gt;django&#45;rest -->
<g id="edge10" class="edge">
<title>django&#45;auth&#45;&gt;django&#45;rest</title>
<path fill="none" stroke="#000000" stroke-width="1.5" d="M1474.13,-161C1474.13,-161 1512.93,-161 1512.93,-161"/>
<polygon fill="#000000" stroke="#000000" stroke-width="1.5" points="1520.93,-161 1512.93,-164.6 1516.93,-161.25 1512.93,-161.25 1512.93,-161 1512.93,-160.75 1516.93,-160.75 1512.93,-157.4 1520.93,-161 1520.93,-161"/>
</g>
<!-- django&#45;deploy -->
<g id="node10" class="node">
<title>django&#45;deploy</title>
<polygon fill="#56c8fd" stroke="#000000" points="1996,-241 1993,-245 1972,-245 1969,-241 1752,-241 1752,-81 1996,-81 1996,-241"/>
<text text-anchor="start" x="1784" y="-226.4" font-family="Helvetica,sans-Serif" font-weight="bold" font-size="12.00" fill="#000000">Django Deployment Basics</text>
<text text-anchor="start" x="1762" y="-211" font-family="Helvetica,sans-Serif" font-style="italic" font-size="10.00" fill="#000000">Topics:</text>
<text text-anchor="start" x="1762" y="-195" font-family="Helvetica,sans-Serif" font-size="10.00" fill="#000000">environment variables and settings</text>
<text text-anchor="start" x="1762" y="-180" font-family="Helvetica,sans-Serif" font-size="10.00" fill="#000000">static and media files handling</text>
<text text-anchor="start" x="1762" y="-165" font-family="Helvetica,sans-Serif" font-size="10.00" fill="#000000">running with production server</text>
<text text-anchor="start" x="1762" y="-151" font-family="Helvetica,sans-Serif" font-style="italic" font-size="10.00" fill="#000000">Tools:</text>
<text text-anchor="start" x="1790" y="-151" font-family="Helvetica,sans-Serif" font-size="10.00" fill="#000000"> Gunicorn / Nginx / Docker</text>
<text text-anchor="start" x="1762" y="-136" font-family="Helvetica,sans-Serif" font-style="italic" font-size="10.00" fill="#000000">Courses:</text>
<text text-anchor="start" x="1762" y="-120" font-family="Helvetica,sans-Serif" font-size="10.00" fill="#000000">[Ext.] Working with Docker Networks</text>
<text text-anchor="start" x="1762" y="-105" font-family="Helvetica,sans-Serif" font-size="10.00" fill="#000000">[Ext.] Docker for Windows</text>
<text text-anchor="start" x="1762" y="-90" font-family="Helvetica,sans-Serif" font-size="10.00" fill="#000000">[Ext.] Deploying a Docker Image to Cloud Run</text>
</g>
<!-- django&#45;rest&#45;&gt;django&#45;deploy -->
<g id="edge11" class="edge">
<title>django&#45;rest&#45;&gt;django&#45;deploy</title>
<path fill="none" stroke="#000000" stroke-width="1.5" d="M1705.02,-161C1705.02,-161 1743.72,-161 1743.72,-161"/>
<polygon fill="#000000" stroke="#000000" stroke-width="1.5" points="1751.72,-161 1743.72,-164.6 1747.72,-161.25 1743.72,-161.25 1743.72,-161 1743.72,-160.75 1747.72,-160.75 1743.72,-157.4 1751.72,-161 1751.72,-161"/>
</g>
<!-- target -->
<g id="node11" class="node">
<title>target</title>
<polygon fill="#ffb24d" stroke="#1b1b1b" points="2161,-179 2158,-183 2137,-183 2134,-179 2043,-179 2043,-143 2161,-143 2161,-179"/>
<text text-anchor="start" x="2053" y="-158.4" font-family="Helvetica,sans-Serif" font-weight="bold" font-size="12.00" fill="#000000">Juniors Django</text>
</g>
<!-- django&#45;deploy&#45;&gt;target -->
<g id="edge12" class="edge">
<title>django&#45;deploy&#45;&gt;target</title>
<path fill="none" stroke="#000000" stroke-width="1.5" d="M1996.01,-161C1996.01,-161 2034.92,-161 2034.92,-161"/>
<polygon fill="#000000" stroke="#000000" stroke-width="1.5" points="2042.92,-161 2034.92,-164.6 2038.92,-161.25 2034.92,-161.25 2034.92,-161 2034.92,-160.75 2038.92,-160.75 2034.92,-157.4 2042.92,-161 2042.92,-161"/>
</g>
</g>
</svg>
