<?xml version="1.0" encoding="UTF-8" standalone="no"?>
<!DOCTYPE svg PUBLIC "-//W3C//DTD SVG 1.1//EN"
 "http://www.w3.org/Graphics/SVG/1.1/DTD/svg11.dtd">
<!-- Generated by graphviz version 2.43.0 (0)
 -->
<!-- Pages: 1 -->
<svg width="1925pt" height="737pt"
 viewBox="0.00 0.00 1925.00 736.50" xmlns="http://www.w3.org/2000/svg" xmlns:xlink="http://www.w3.org/1999/xlink">
<g id="graph0" class="graph" transform="scale(1 1) rotate(0) translate(4 732.5)">
<polygon fill="#ffffff" stroke="transparent" points="-4,4 -4,-732.5 1921,-732.5 1921,4 -4,4"/>
<!-- start -->
<g id="node1" class="node">
<title>start</title>
<polygon fill="#ffb24d" stroke="#1b1b1b" points="112,-343.5 109,-347.5 88,-347.5 85,-343.5 0,-343.5 0,-307.5 112,-307.5 112,-343.5"/>
<text text-anchor="start" x="10" y="-322.9" font-family="Helvetica,sans-Serif" font-weight="bold" font-size="12.00" fill="#000000">You are here!</text>
</g>
<!-- python&#45;basics -->
<g id="node2" class="node">
<title>python&#45;basics</title>
<polygon fill="#56c8fd" stroke="#000000" points="402,-413 399,-417 378,-417 375,-413 159,-413 159,-238 402,-238 402,-413"/>
<text text-anchor="start" x="207" y="-397.9" font-family="Helvetica,sans-Serif" font-weight="bold" font-size="12.00" fill="#000000">Python Fundamentals</text>
<text text-anchor="start" x="169.5" y="-382.5" font-family="Helvetica,sans-Serif" font-style="italic" font-size="10.00" fill="#000000">Topics:</text>
<text text-anchor="start" x="169.5" y="-366.5" font-family="Helvetica,sans-Serif" font-size="10.00" fill="#000000">variables control flow and functions</text>
<text text-anchor="start" x="169.5" y="-351.5" font-family="Helvetica,sans-Serif" font-size="10.00" fill="#000000">lists dicts and sets</text>
<text text-anchor="start" x="169.5" y="-336.5" font-family="Helvetica,sans-Serif" font-size="10.00" fill="#000000">modules packages and virtualenvs</text>
<text text-anchor="start" x="169.5" y="-321.5" font-family="Helvetica,sans-Serif" font-size="10.00" fill="#000000">error handling and basic OOP</text>
<text text-anchor="start" x="169.5" y="-307.5" font-family="Helvetica,sans-Serif" font-style="italic" font-size="10.00" fill="#000000">Tools:</text>
<text text-anchor="start" x="197.5" y="-307.5" font-family="Helvetica,sans-Serif" font-size="10.00" fill="#000000"> Python / pip / venv</text>
<text text-anchor="start" x="169.5" y="-292.5" font-family="Helvetica,sans-Serif" font-style="italic" font-size="10.00" fill="#000000">Courses:</text>
<text text-anchor="start" x="169.5" y="-276.5" font-family="Helvetica,sans-Serif" font-size="10.00" fill="#000000">[Int.] Úvod do programování v Python</text>
<text text-anchor="start" x="169.5" y="-261.5" font-family="Helvetica,sans-Serif" font-size="10.00" fill="#000000">[Int.] Python: Objektově orient. programování</text>
<text text-anchor="start" x="169.5" y="-246.5" font-family="Helvetica,sans-Serif" font-size="10.00" fill="#000000">[Int.] Python a Power BI</text>
</g>
<!-- start&#45;&gt;python&#45;basics -->
<g id="edge1" class="edge">
<title>start&#45;&gt;python&#45;basics</title>
<path fill="none" stroke="#000000" stroke-width="1.5" d="M112.07,-325.5C112.07,-325.5 150.92,-325.5 150.92,-325.5"/>
<polygon fill="#000000" stroke="#000000" stroke-width="1.5" points="158.92,-325.5 150.92,-329.1 154.92,-325.75 150.92,-325.75 150.92,-325.5 150.92,-325.25 154.92,-325.25 150.92,-321.9 158.92,-325.5 158.92,-325.5"/>
</g>
<!-- web&#45;basics -->
<g id="node3" class="node">
<title>web&#45;basics</title>
<polygon fill="#56c8fd" stroke="#000000" points="724,-482 721,-486 700,-486 697,-482 449,-482 449,-307 724,-307 724,-482"/>
<text text-anchor="start" x="501.5" y="-466.9" font-family="Helvetica,sans-Serif" font-weight="bold" font-size="12.00" fill="#000000">Web Development Basics</text>
<text text-anchor="start" x="459.5" y="-451.5" font-family="Helvetica,sans-Serif" font-style="italic" font-size="10.00" fill="#000000">Topics:</text>
<text text-anchor="start" x="459.5" y="-435.5" font-family="Helvetica,sans-Serif" font-size="10.00" fill="#000000">http methods and status codes</text>
<text text-anchor="start" x="459.5" y="-420.5" font-family="Helvetica,sans-Serif" font-size="10.00" fill="#000000">restful api concepts</text>
<text text-anchor="start" x="459.5" y="-405.5" font-family="Helvetica,sans-Serif" font-size="10.00" fill="#000000">html and basic forms</text>
<text text-anchor="start" x="459.5" y="-390.5" font-family="Helvetica,sans-Serif" font-size="10.00" fill="#000000">json and client server flow</text>
<text text-anchor="start" x="459.5" y="-376.5" font-family="Helvetica,sans-Serif" font-style="italic" font-size="10.00" fill="#000000">Tools:</text>
<text text-anchor="start" x="487.5" y="-376.5" font-family="Helvetica,sans-Serif" font-size="10.00" fill="#000000"> Postman / Browser DevTools</text>
<text text-anchor="start" x="459.5" y="-361.5" font-family="Helvetica,sans-Serif" font-style="italic" font-size="10.00" fill="#000000">Courses:</text>
<text text-anchor="start" x="459.5" y="-345.5" font-family="Helvetica,sans-Serif" font-size="10.00" fill="#000000">[Ext.] Quality Engineering: API Testing with Postman</text>
<text text-anchor="start" x="459.5" y="-330.5" font-family="Helvetica,sans-Serif" font-size="10.00" fill="#000000">[Ext.] Postman Essential Training</text>
<text text-anchor="start" x="459.5" y="-315.5" font-family="Helvetica,sans-Serif" font-size="10.00" fill="#000000">[Ext.] Introducing Postman</text>
</g>
<!-- python&#45;basics&#45;&gt;web&#45;basics -->
<g id="edge2" class="edge">
<title>python&#45;basics&#45;&gt;web&#45;basics</title>
<path fill="none" stroke="#000000" stroke-width="1.5" d="M402.32,-360C402.32,-360 440.98,-360 440.98,-360"/>
<polygon fill="#000000" stroke="#000000" stroke-width="1.5" points="448.98,-360 440.98,-363.6 444.98,-360.25 440.98,-360.25 440.98,-360 440.98,-359.75 444.98,-359.75 440.98,-356.4 448.98,-360 448.98,-360"/>
</g>
<!-- django&#45;core -->
<g id="node4" class="node">
<title>django&#45;core</title>
<polygon fill="#56c8fd" stroke="#000000" points="1014,-413 1011,-417 990,-417 987,-413 771,-413 771,-238 1014,-238 1014,-413"/>
<text text-anchor="start" x="818" y="-397.9" font-family="Helvetica,sans-Serif" font-weight="bold" font-size="12.00" fill="#000000">Django Core Concepts</text>
<text text-anchor="start" x="781.5" y="-382.5" font-family="Helvetica,sans-Serif" font-style="italic" font-size="10.00" fill="#000000">Topics:</text>
<text text-anchor="start" x="781.5" y="-366.5" font-family="Helvetica,sans-Serif" font-size="10.00" fill="#000000">project and app structure</text>
<text text-anchor="start" x="781.5" y="-351.5" font-family="Helvetica,sans-Serif" font-size="10.00" fill="#000000">urls views and templates</text>
<text text-anchor="start" x="781.5" y="-336.5" font-family="Helvetica,sans-Serif" font-size="10.00" fill="#000000">models and orm basics</text>
<text text-anchor="start" x="781.5" y="-321.5" font-family="Helvetica,sans-Serif" font-size="10.00" fill="#000000">admin site configuration</text>
<text text-anchor="start" x="781.5" y="-307.5" font-family="Helvetica,sans-Serif" font-style="italic" font-size="10.00" fill="#000000">Tools:</text>
<text text-anchor="start" x="809.5" y="-307.5" font-family="Helvetica,sans-Serif" font-size="10.00" fill="#000000"> Django</text>
<text text-anchor="start" x="781.5" y="-292.5" font-family="Helvetica,sans-Serif" font-style="italic" font-size="10.00" fill="#000000">Courses:</text>
<text text-anchor="start" x="781.5" y="-276.5" font-family="Helvetica,sans-Serif" font-size="10.00" fill="#000000">[Ext.] Django Essential Training</text>
<text text-anchor="start" x="781.5" y="-261.5" font-family="Helvetica,sans-Serif" font-size="10.00" fill="#000000">[Ext.] Django Deployment and Maintenance</text>
<text text-anchor="start" x="781.5" y="-246.5" font-family="Helvetica,sans-Serif" font-size="10.00" fill="#000000">[Ext.] Django 3 Deployment and Maintenance</text>
</g>
<!-- python&#45;basics&#45;&gt;django&#45;core -->
<g id="edge3" class="edge">
<title>python&#45;basics&#45;&gt;django&#45;core</title>
<path fill="none" stroke="#000000" stroke-width="1.5" d="M402.14,-272.5C402.14,-272.5 762.83,-272.5 762.83,-272.5"/>
<polygon fill="#000000" stroke="#000000" stroke-width="1.5" points="770.83,-272.5 762.83,-276.1 766.83,-272.75 762.83,-272.75 762.83,-272.5 762.83,-272.25 766.83,-272.25 762.83,-268.9 770.83,-272.5 770.83,-272.5"/>
</g>
<!-- web&#45;basics&#45;&gt;django&#45;core -->
<g id="edge4" class="edge">
<title>web&#45;basics&#45;&gt;django&#45;core</title>
<path fill="none" stroke="#000000" stroke-width="1.5" d="M724.28,-360C724.28,-360 762.9,-360 762.9,-360"/>
<polygon fill="#000000" stroke="#000000" stroke-width="1.5" points="770.9,-360 762.9,-363.6 766.9,-360.25 762.9,-360.25 762.9,-360 762.9,-359.75 766.9,-359.75 762.9,-356.4 770.9,-360 770.9,-360"/>
</g>
<!-- django&#45;forms&#45;auth -->
<g id="node5" class="node">
<title>django&#45;forms&#45;auth</title>
<polygon fill="#56c8fd" stroke="#000000" points="1410,-728.5 1407,-732.5 1386,-732.5 1383,-728.5 1078,-728.5 1078,-542.5 1410,-542.5 1410,-728.5"/>
<text text-anchor="start" x="1156.5" y="-713.9" font-family="Helvetica,sans-Serif" font-weight="bold" font-size="12.00" fill="#000000">Forms and Authentication</text>
<text text-anchor="start" x="1088" y="-698.5" font-family="Helvetica,sans-Serif" font-style="italic" font-size="10.00" fill="#000000">Topics:</text>
<text text-anchor="start" x="1088" y="-682.5" font-family="Helvetica,sans-Serif" font-size="10.00" fill="#000000">django forms and model forms</text>
<text text-anchor="start" x="1088" y="-667.5" font-family="Helvetica,sans-Serif" font-size="10.00" fill="#000000">user model and auth system</text>
<text text-anchor="start" x="1088" y="-652.5" font-family="Helvetica,sans-Serif" font-size="10.00" fill="#000000">sessions and messages framework</text>
<text text-anchor="start" x="1088" y="-637.5" font-family="Helvetica,sans-Serif" font-size="10.00" fill="#000000">login logout and registration flows</text>
<text text-anchor="start" x="1088" y="-623.5" font-family="Helvetica,sans-Serif" font-style="italic" font-size="10.00" fill="#000000">Tools:</text>
<text text-anchor="start" x="1116" y="-623.5" font-family="Helvetica,sans-Serif" font-size="10.00" fill="#000000"> Django</text>
<text text-anchor="start" x="1088" y="-608.5" font-family="Helvetica,sans-Serif" font-style="italic" font-size="10.00" fill="#000000">Courses:</text>
<text text-anchor="start" x="1088" y="-592.5" font-family="Helvetica,sans-Serif" font-size="10.00" fill="#000000">[Ext.] Django Fundamentals</text>
<text text-anchor="start" x="1088" y="-577.5" font-family="Helvetica,sans-Serif" font-size="10.00" fill="#000000">[Ext.] Django 4 Templates</text>
<text text-anchor="start" x="1088" y="-562.5" font-family="Helvetica,sans-Serif" font-size="10.00" fill="#000000">[Ext.] Advanced Django Project: Build High&#45;Traffic Websites with</text>
<text text-anchor="start" x="1226.5" y="-551.5" font-family="Helvetica,sans-Serif" font-size="10.00" fill="#000000">Django</text>
</g>
<!-- django&#45;core&#45;&gt;django&#45;forms&#45;auth -->
<g id="edge5" class="edge">
<title>django&#45;core&#45;&gt;django&#45;forms&#45;auth</title>
<path fill="none" stroke="#000000" stroke-width="1.5" d="M893,-413.09C893,-504.76 893,-635.5 893,-635.5 893,-635.5 1069.75,-635.5 1069.75,-635.5"/>
<polygon fill="#000000" stroke="#000000" stroke-width="1.5" points="1077.75,-635.5 1069.75,-639.1 1073.75,-635.75 1069.75,-635.75 1069.75,-635.5 1069.75,-635.25 1073.75,-635.25 1069.75,-631.9 1077.75,-635.5 1077.75,-635.5"/>
</g>
<!-- django&#45;orm&#45;advanced -->
<g id="node6" class="node">
<title>django&#45;orm&#45;advanced</title>
<polygon fill="#56c8fd" stroke="#000000" points="1422,-510.5 1419,-514.5 1398,-514.5 1395,-510.5 1066,-510.5 1066,-324.5 1422,-324.5 1422,-510.5"/>
<text text-anchor="start" x="1149" y="-495.9" font-family="Helvetica,sans-Serif" font-weight="bold" font-size="12.00" fill="#000000">Database and ORM Mastery</text>
<text text-anchor="start" x="1076" y="-480.5" font-family="Helvetica,sans-Serif" font-style="italic" font-size="10.00" fill="#000000">Topics:</text>
<text text-anchor="start" x="1076" y="-464.5" font-family="Helvetica,sans-Serif" font-size="10.00" fill="#000000">complex queries and annotations</text>
<text text-anchor="start" x="1076" y="-449.5" font-family="Helvetica,sans-Serif" font-size="10.00" fill="#000000">relationships and related managers</text>
<text text-anchor="start" x="1076" y="-434.5" font-family="Helvetica,sans-Serif" font-size="10.00" fill="#000000">migrations and schema changes</text>
<text text-anchor="start" x="1076" y="-419.5" font-family="Helvetica,sans-Serif" font-size="10.00" fill="#000000">query optimization basics</text>
<text text-anchor="start" x="1076" y="-405.5" font-family="Helvetica,sans-Serif" font-style="italic" font-size="10.00" fill="#000000">Tools:</text>
<text text-anchor="start" x="1104" y="-405.5" font-family="Helvetica,sans-Serif" font-size="10.00" fill="#000000"> Django ORM / PostgreSQL</text>
<text text-anchor="start" x="1076" y="-390.5" font-family="Helvetica,sans-Serif" font-style="italic" font-size="10.00" fill="#000000">Courses:</text>
<text text-anchor="start" x="1076" y="-374.5" font-family="Helvetica,sans-Serif" font-size="10.00" fill="#000000">[Ext.] Migrate to Cloud SQL for PostgreSQL using Database Migration</text>
<text text-anchor="start" x="1225.5" y="-363.5" font-family="Helvetica,sans-Serif" font-size="10.00" fill="#000000">Service</text>
<text text-anchor="start" x="1076" y="-348.5" font-family="Helvetica,sans-Serif" font-size="10.00" fill="#000000">[Ext.] Datastream: PostgreSQL Replication to BigQuery</text>
<text text-anchor="start" x="1076" y="-333.5" font-family="Helvetica,sans-Serif" font-size="10.00" fill="#000000">[Ext.] PostgreSQL: Client Applications</text>
</g>
<!-- django&#45;core&#45;&gt;django&#45;orm&#45;advanced -->
<g id="edge6" class="edge">
<title>django&#45;core&#45;&gt;django&#45;orm&#45;advanced</title>
<path fill="none" stroke="#000000" stroke-width="1.5" d="M1014.45,-368.75C1014.45,-368.75 1057.88,-368.75 1057.88,-368.75"/>
<polygon fill="#000000" stroke="#000000" stroke-width="1.5" points="1065.88,-368.75 1057.88,-372.35 1061.88,-369 1057.88,-369 1057.88,-368.75 1057.88,-368.5 1061.88,-368.5 1057.88,-365.15 1065.88,-368.75 1065.88,-368.75"/>
</g>
<!-- django&#45;rest -->
<g id="node7" class="node">
<title>django&#45;rest</title>
<polygon fill="#56c8fd" stroke="#000000" points="1330,-292 1327,-296 1306,-296 1303,-292 1158,-292 1158,-177 1330,-177 1330,-292"/>
<text text-anchor="start" x="1183.5" y="-276.9" font-family="Helvetica,sans-Serif" font-weight="bold" font-size="12.00" fill="#000000">Django REST APIs</text>
<text text-anchor="start" x="1168" y="-261.5" font-family="Helvetica,sans-Serif" font-style="italic" font-size="10.00" fill="#000000">Topics:</text>
<text text-anchor="start" x="1168" y="-245.5" font-family="Helvetica,sans-Serif" font-size="10.00" fill="#000000">serialization and validation</text>
<text text-anchor="start" x="1168" y="-230.5" font-family="Helvetica,sans-Serif" font-size="10.00" fill="#000000">class based api views</text>
<text text-anchor="start" x="1168" y="-215.5" font-family="Helvetica,sans-Serif" font-size="10.00" fill="#000000">auth and permissions for apis</text>
<text text-anchor="start" x="1168" y="-200.5" font-family="Helvetica,sans-Serif" font-size="10.00" fill="#000000">pagination and filtering</text>
<text text-anchor="start" x="1168" y="-186.5" font-family="Helvetica,sans-Serif" font-style="italic" font-size="10.00" fill="#000000">Tools:</text>
<text text-anchor="start" x="1196" y="-186.5" font-family="Helvetica,sans-Serif" font-size="10.00" fill="#000000"> Django REST Framework</text>
</g>
<!-- django&#45;core&#45;&gt;django&#45;rest -->
<g id="edge7" class="edge">
<title>django&#45;core&#45;&gt;django&#45;rest</title>
<path fill="none" stroke="#000000" stroke-width="1.5" d="M1014.45,-274C1014.45,-274 1149.96,-274 1149.96,-274"/>
<polygon fill="#000000" stroke="#000000" stroke-width="1.5" points="1157.96,-274 1149.96,-277.6 1153.96,-274.25 1149.96,-274.25 1149.96,-274 1149.96,-273.75 1153.96,-273.75 1149.96,-270.4 1157.96,-274 1157.96,-274"/>
</g>
<!-- testing&#45;debugging -->
<g id="node8" class="node">
<title>testing&#45;debugging</title>
<polygon fill="#56c8fd" stroke="#000000" points="1427,-145 1424,-149 1403,-149 1400,-145 1061,-145 1061,0 1427,0 1427,-145"/>
<text text-anchor="start" x="1167" y="-129.9" font-family="Helvetica,sans-Serif" font-weight="bold" font-size="12.00" fill="#000000">Testing and Debugging</text>
<text text-anchor="start" x="1071" y="-114.5" font-family="Helvetica,sans-Serif" font-style="italic" font-size="10.00" fill="#000000">Topics:</text>
<text text-anchor="start" x="1071" y="-98.5" font-family="Helvetica,sans-Serif" font-size="10.00" fill="#000000">unit tests for views and models</text>
<text text-anchor="start" x="1071" y="-83.5" font-family="Helvetica,sans-Serif" font-size="10.00" fill="#000000">using django test client</text>
<text text-anchor="start" x="1071" y="-68.5" font-family="Helvetica,sans-Serif" font-size="10.00" fill="#000000">debugging and logging</text>
<text text-anchor="start" x="1071" y="-53.5" font-family="Helvetica,sans-Serif" font-size="10.00" fill="#000000">basic coverage and refactoring</text>
<text text-anchor="start" x="1071" y="-39.5" font-family="Helvetica,sans-Serif" font-style="italic" font-size="10.00" fill="#000000">Tools:</text>
<text text-anchor="start" x="1099" y="-39.5" font-family="Helvetica,sans-Serif" font-size="10.00" fill="#000000"> pytest / Django Test Framework</text>
<text text-anchor="start" x="1071" y="-24.5" font-family="Helvetica,sans-Serif" font-style="italic" font-size="10.00" fill="#000000">Courses:</text>
<text text-anchor="start" x="1071" y="-8.5" font-family="Helvetica,sans-Serif" font-size="10.00" fill="#000000">[Ext.] Behavior&#45;driven Development (BDD) with pytest&#45;bdd and Python</text>
</g>
<!-- django&#45;core&#45;&gt;testing&#45;debugging -->
<g id="edge8" class="edge">
<title>django&#45;core&#45;&gt;testing&#45;debugging</title>
<path fill="none" stroke="#000000" stroke-width="1.5" d="M1014.13,-256C1064.77,-256 1112,-256 1112,-256 1112,-256 1112,-153.02 1112,-153.02"/>
<polygon fill="#000000" stroke="#000000" stroke-width="1.5" points="1112,-145.02 1115.6,-153.02 1112.25,-149.02 1112.25,-153.02 1112,-153.02 1111.75,-153.02 1111.75,-149.02 1108.4,-153.02 1112,-145.02 1112,-145.02"/>
</g>
<!-- deployment&#45;basics -->
<g id="node9" class="node">
<title>deployment&#45;basics</title>
<polygon fill="#56c8fd" stroke="#000000" points="1759,-413 1756,-417 1735,-417 1732,-413 1474,-413 1474,-238 1759,-238 1759,-413"/>
<text text-anchor="start" x="1516.5" y="-397.9" font-family="Helvetica,sans-Serif" font-weight="bold" font-size="12.00" fill="#000000">Deployment and Environment</text>
<text text-anchor="start" x="1484.5" y="-382.5" font-family="Helvetica,sans-Serif" font-style="italic" font-size="10.00" fill="#000000">Topics:</text>
<text text-anchor="start" x="1484.5" y="-366.5" font-family="Helvetica,sans-Serif" font-size="10.00" fill="#000000">settings for dev and prod</text>
<text text-anchor="start" x="1484.5" y="-351.5" font-family="Helvetica,sans-Serif" font-size="10.00" fill="#000000">static and media files handling</text>
<text text-anchor="start" x="1484.5" y="-336.5" font-family="Helvetica,sans-Serif" font-size="10.00" fill="#000000">wsgi servers and reverse proxy</text>
<text text-anchor="start" x="1484.5" y="-321.5" font-family="Helvetica,sans-Serif" font-size="10.00" fill="#000000">basic security and env variables</text>
<text text-anchor="start" x="1484.5" y="-307.5" font-family="Helvetica,sans-Serif" font-style="italic" font-size="10.00" fill="#000000">Tools:</text>
<text text-anchor="start" x="1512.5" y="-307.5" font-family="Helvetica,sans-Serif" font-size="10.00" fill="#000000"> Gunicorn / Nginx / Docker</text>
<text text-anchor="start" x="1484.5" y="-292.5" font-family="Helvetica,sans-Serif" font-style="italic" font-size="10.00" fill="#000000">Courses:</text>
<text text-anchor="start" x="1484.5" y="-276.5" font-family="Helvetica,sans-Serif" font-size="10.00" fill="#000000">[Ext.] Containerizing Angular Applications with Docker</text>
<text text-anchor="start" x="1484.5" y="-261.5" font-family="Helvetica,sans-Serif" font-size="10.00" fill="#000000">[Ext.] Managing Docker Networking</text>
<text text-anchor="start" x="1484.5" y="-246.5" font-family="Helvetica,sans-Serif" font-size="10.00" fill="#000000">[Ext.] Docker for Developers</text>
</g>
<!-- django&#45;forms&#45;auth&#45;&gt;deployment&#45;basics -->
<g id="edge9" class="edge">
<title>django&#45;forms&#45;auth&#45;&gt;deployment&#45;basics</title>
<path fill="none" stroke="#000000" stroke-width="1.5" d="M1410.05,-635.5C1509.59,-635.5 1617,-635.5 1617,-635.5 1617,-635.5 1617,-421.09 1617,-421.09"/>
<polygon fill="#000000" stroke="#000000" stroke-width="1.5" points="1617,-413.09 1620.6,-421.09 1617.25,-417.09 1617.25,-421.09 1617,-421.09 1616.75,-421.09 1616.75,-417.09 1613.4,-421.09 1617,-413.09 1617,-413.09"/>
</g>
<!-- django&#45;orm&#45;advanced&#45;&gt;deployment&#45;basics -->
<g id="edge10" class="edge">
<title>django&#45;orm&#45;advanced&#45;&gt;deployment&#45;basics</title>
<path fill="none" stroke="#000000" stroke-width="1.5" d="M1422.07,-368.75C1422.07,-368.75 1465.93,-368.75 1465.93,-368.75"/>
<polygon fill="#000000" stroke="#000000" stroke-width="1.5" points="1473.93,-368.75 1465.93,-372.35 1469.93,-369 1465.93,-369 1465.93,-368.75 1465.93,-368.5 1469.93,-368.5 1465.93,-365.15 1473.93,-368.75 1473.93,-368.75"/>
</g>
<!-- django&#45;rest&#45;&gt;deployment&#45;basics -->
<g id="edge11" class="edge">
<title>django&#45;rest&#45;&gt;deployment&#45;basics</title>
<path fill="none" stroke="#000000" stroke-width="1.5" d="M1330.4,-274C1330.4,-274 1465.68,-274 1465.68,-274"/>
<polygon fill="#000000" stroke="#000000" stroke-width="1.5" points="1473.68,-274 1465.68,-277.6 1469.68,-274.25 1465.68,-274.25 1465.68,-274 1465.68,-273.75 1469.68,-273.75 1465.68,-270.4 1473.68,-274 1473.68,-274"/>
</g>
<!-- testing&#45;debugging&#45;&gt;deployment&#45;basics -->
<g id="edge12" class="edge">
<title>testing&#45;debugging&#45;&gt;deployment&#45;basics</title>
<path fill="none" stroke="#000000" stroke-width="1.5" d="M1376,-145.02C1376,-196.32 1376,-256 1376,-256 1376,-256 1465.82,-256 1465.82,-256"/>
<polygon fill="#000000" stroke="#000000" stroke-width="1.5" points="1473.82,-256 1465.82,-259.6 1469.82,-256.25 1465.82,-256.25 1465.82,-256 1465.82,-255.75 1469.82,-255.75 1465.82,-252.4 1473.82,-256 1473.82,-256"/>
</g>
<!-- junior&#45;django&#45;role -->
<g id="node10" class="node">
<title>junior&#45;django&#45;role</title>
<polygon fill="#ffb24d" stroke="#1b1b1b" points="1917,-343.5 1914,-347.5 1893,-347.5 1890,-343.5 1806,-343.5 1806,-307.5 1917,-307.5 1917,-343.5"/>
<text text-anchor="start" x="1816.5" y="-322.9" font-family="Helvetica,sans-Serif" font-weight="bold" font-size="12.00" fill="#000000">Junior Django</text>
</g>
<!-- deployment&#45;basics&#45;&gt;junior&#45;django&#45;role -->
<g id="edge13" class="edge">
<title>deployment&#45;basics&#45;&gt;junior&#45;django&#45;role</title>
<path fill="none" stroke="#000000" stroke-width="1.5" d="M1759.02,-325.5C1759.02,-325.5 1797.85,-325.5 1797.85,-325.5"/>
<polygon fill="#000000" stroke="#000000" stroke-width="1.5" points="1805.85,-325.5 1797.85,-329.1 1801.85,-325.75 1797.85,-325.75 1797.85,-325.5 1797.85,-325.25 1801.85,-325.25 1797.85,-321.9 1805.85,-325.5 1805.85,-325.5"/>
</g>
</g>
</svg>
