<?xml version="1.0" encoding="UTF-8" standalone="no"?>
<!DOCTYPE svg PUBLIC "-//W3C//DTD SVG 1.1//EN"
 "http://www.w3.org/Graphics/SVG/1.1/DTD/svg11.dtd">
<!-- Generated by graphviz version 2.43.0 (0)
 -->
<!-- Pages: 1 -->
<svg width="2288pt" height="620pt"
 viewBox="0.00 0.00 2288.00 619.50" xmlns="http://www.w3.org/2000/svg" xmlns:xlink="http://www.w3.org/1999/xlink">
<g id="graph0" class="graph" transform="scale(1 1) rotate(0) translate(4 615.5)">
<polygon fill="#ffffff" stroke="transparent" points="-4,4 -4,-615.5 2284,-615.5 2284,4 -4,4"/>
<!-- start -->
<g id="node1" class="node">
<title>start</title>
<polygon fill="#ffb24d" stroke="#1b1b1b" points="114,-318.5 111,-322.5 90,-322.5 87,-318.5 0,-318.5 0,-282.5 114,-282.5 114,-318.5"/>
<text text-anchor="start" x="10" y="-297.9" font-family="Helvetica,sans-Serif" font-weight="bold" font-size="12.00" fill="#000000">You Are Here!</text>
</g>
<!-- python_basics -->
<g id="node2" class="node">
<title>python_basics</title>
<polygon fill="#56c8fd" stroke="#000000" points="365,-388 362,-392 341,-392 338,-388 161,-388 161,-213 365,-213 365,-388"/>
<text text-anchor="start" x="173" y="-372.9" font-family="Helvetica,sans-Serif" font-weight="bold" font-size="12.00" fill="#000000">Core Python Programming</text>
<text text-anchor="start" x="171" y="-357.5" font-family="Helvetica,sans-Serif" font-style="italic" font-size="10.00" fill="#000000">Topics:</text>
<text text-anchor="start" x="171" y="-341.5" font-family="Helvetica,sans-Serif" font-size="10.00" fill="#000000">variables control flow functions</text>
<text text-anchor="start" x="171" y="-326.5" font-family="Helvetica,sans-Serif" font-size="10.00" fill="#000000">modules packages and imports</text>
<text text-anchor="start" x="171" y="-311.5" font-family="Helvetica,sans-Serif" font-size="10.00" fill="#000000">error handling and debugging</text>
<text text-anchor="start" x="171" y="-296.5" font-family="Helvetica,sans-Serif" font-size="10.00" fill="#000000">virtual environments and packaging</text>
<text text-anchor="start" x="171" y="-282.5" font-family="Helvetica,sans-Serif" font-style="italic" font-size="10.00" fill="#000000">Tools:</text>
<text text-anchor="start" x="199" y="-282.5" font-family="Helvetica,sans-Serif" font-size="10.00" fill="#000000"> Python / pip / venv</text>
<text text-anchor="start" x="171" y="-267.5" font-family="Helvetica,sans-Serif" font-style="italic" font-size="10.00" fill="#000000">Courses:</text>
<text text-anchor="start" x="171" y="-251.5" font-family="Helvetica,sans-Serif" font-size="10.00" fill="#000000">[Int.] Datová analýza v Python</text>
<text text-anchor="start" x="171" y="-236.5" font-family="Helvetica,sans-Serif" font-size="10.00" fill="#000000">[Int.] Úvod do programování v Python</text>
<text text-anchor="start" x="171" y="-221.5" font-family="Helvetica,sans-Serif" font-size="10.00" fill="#000000">[Int.] Python a Power BI</text>
</g>
<!-- start&#45;&gt;python_basics -->
<g id="edge1" class="edge">
<title>start&#45;&gt;python_basics</title>
<path fill="none" stroke="#000000" stroke-width="1.5" d="M114.11,-300.5C114.11,-300.5 152.73,-300.5 152.73,-300.5"/>
<polygon fill="#000000" stroke="#000000" stroke-width="1.5" points="160.73,-300.5 152.73,-304.1 156.73,-300.75 152.73,-300.75 152.73,-300.5 152.73,-300.25 156.73,-300.25 152.73,-296.9 160.73,-300.5 160.73,-300.5"/>
</g>
<!-- python_advanced -->
<g id="node3" class="node">
<title>python_advanced</title>
<polygon fill="#56c8fd" stroke="#000000" points="655,-473 652,-477 631,-477 628,-473 412,-473 412,-298 655,-298 655,-473"/>
<text text-anchor="start" x="430" y="-457.9" font-family="Helvetica,sans-Serif" font-weight="bold" font-size="12.00" fill="#000000">Intermediate Python Concepts</text>
<text text-anchor="start" x="422.5" y="-442.5" font-family="Helvetica,sans-Serif" font-style="italic" font-size="10.00" fill="#000000">Topics:</text>
<text text-anchor="start" x="422.5" y="-426.5" font-family="Helvetica,sans-Serif" font-size="10.00" fill="#000000">object oriented programming</text>
<text text-anchor="start" x="422.5" y="-411.5" font-family="Helvetica,sans-Serif" font-size="10.00" fill="#000000">iterables generators comprehensions</text>
<text text-anchor="start" x="422.5" y="-396.5" font-family="Helvetica,sans-Serif" font-size="10.00" fill="#000000">typing and docstrings</text>
<text text-anchor="start" x="422.5" y="-381.5" font-family="Helvetica,sans-Serif" font-size="10.00" fill="#000000">file io and standard library usage</text>
<text text-anchor="start" x="422.5" y="-367.5" font-family="Helvetica,sans-Serif" font-style="italic" font-size="10.00" fill="#000000">Tools:</text>
<text text-anchor="start" x="450.5" y="-367.5" font-family="Helvetica,sans-Serif" font-size="10.00" fill="#000000"> Python</text>
<text text-anchor="start" x="422.5" y="-352.5" font-family="Helvetica,sans-Serif" font-style="italic" font-size="10.00" fill="#000000">Courses:</text>
<text text-anchor="start" x="422.5" y="-336.5" font-family="Helvetica,sans-Serif" font-size="10.00" fill="#000000">[Int.] Datová analýza v Python</text>
<text text-anchor="start" x="422.5" y="-321.5" font-family="Helvetica,sans-Serif" font-size="10.00" fill="#000000">[Int.] Python: Objektově orient. programování</text>
<text text-anchor="start" x="422.5" y="-306.5" font-family="Helvetica,sans-Serif" font-size="10.00" fill="#000000">[Int.] Úvod do programování Python</text>
</g>
<!-- python_basics&#45;&gt;python_advanced -->
<g id="edge2" class="edge">
<title>python_basics&#45;&gt;python_advanced</title>
<path fill="none" stroke="#000000" stroke-width="1.5" d="M365.26,-343C365.26,-343 403.99,-343 403.99,-343"/>
<polygon fill="#000000" stroke="#000000" stroke-width="1.5" points="411.99,-343 403.99,-346.6 407.99,-343.25 403.99,-343.25 403.99,-343 403.99,-342.75 407.99,-342.75 403.99,-339.4 411.99,-343 411.99,-343"/>
</g>
<!-- web_basics -->
<g id="node4" class="node">
<title>web_basics</title>
<polygon fill="#56c8fd" stroke="#000000" points="629.5,-265.5 626.5,-269.5 605.5,-269.5 602.5,-265.5 437.5,-265.5 437.5,-165.5 629.5,-165.5 629.5,-265.5"/>
<text text-anchor="start" x="468.5" y="-250.9" font-family="Helvetica,sans-Serif" font-weight="bold" font-size="12.00" fill="#000000">Web Fundamentals</text>
<text text-anchor="start" x="447.5" y="-235.5" font-family="Helvetica,sans-Serif" font-style="italic" font-size="10.00" fill="#000000">Topics:</text>
<text text-anchor="start" x="447.5" y="-219.5" font-family="Helvetica,sans-Serif" font-size="10.00" fill="#000000">http methods and status codes</text>
<text text-anchor="start" x="447.5" y="-204.5" font-family="Helvetica,sans-Serif" font-size="10.00" fill="#000000">html forms and basic css</text>
<text text-anchor="start" x="447.5" y="-189.5" font-family="Helvetica,sans-Serif" font-size="10.00" fill="#000000">json and rest principles</text>
<text text-anchor="start" x="447.5" y="-174.5" font-family="Helvetica,sans-Serif" font-size="10.00" fill="#000000">client server request response flow</text>
</g>
<!-- python_basics&#45;&gt;web_basics -->
<g id="edge3" class="edge">
<title>python_basics&#45;&gt;web_basics</title>
<path fill="none" stroke="#000000" stroke-width="1.5" d="M365.26,-239.25C365.26,-239.25 429.34,-239.25 429.34,-239.25"/>
<polygon fill="#000000" stroke="#000000" stroke-width="1.5" points="437.34,-239.25 429.34,-242.85 433.34,-239.5 429.34,-239.5 429.34,-239.25 429.34,-239 433.34,-239 429.34,-235.65 437.34,-239.25 437.34,-239.25"/>
</g>
<!-- django_core -->
<g id="node5" class="node">
<title>django_core</title>
<polygon fill="#56c8fd" stroke="#000000" points="1034,-393.5 1031,-397.5 1010,-397.5 1007,-393.5 702,-393.5 702,-207.5 1034,-207.5 1034,-393.5"/>
<text text-anchor="start" x="793" y="-378.9" font-family="Helvetica,sans-Serif" font-weight="bold" font-size="12.00" fill="#000000">Django Core Concepts</text>
<text text-anchor="start" x="712" y="-363.5" font-family="Helvetica,sans-Serif" font-style="italic" font-size="10.00" fill="#000000">Topics:</text>
<text text-anchor="start" x="712" y="-347.5" font-family="Helvetica,sans-Serif" font-size="10.00" fill="#000000">project and app structure</text>
<text text-anchor="start" x="712" y="-332.5" font-family="Helvetica,sans-Serif" font-size="10.00" fill="#000000">models views templates pattern</text>
<text text-anchor="start" x="712" y="-317.5" font-family="Helvetica,sans-Serif" font-size="10.00" fill="#000000">url routing and reverse resolution</text>
<text text-anchor="start" x="712" y="-302.5" font-family="Helvetica,sans-Serif" font-size="10.00" fill="#000000">django settings and environments</text>
<text text-anchor="start" x="712" y="-288.5" font-family="Helvetica,sans-Serif" font-style="italic" font-size="10.00" fill="#000000">Tools:</text>
<text text-anchor="start" x="740" y="-288.5" font-family="Helvetica,sans-Serif" font-size="10.00" fill="#000000"> Django</text>
<text text-anchor="start" x="712" y="-273.5" font-family="Helvetica,sans-Serif" font-style="italic" font-size="10.00" fill="#000000">Courses:</text>
<text text-anchor="start" x="712" y="-257.5" font-family="Helvetica,sans-Serif" font-size="10.00" fill="#000000">[Ext.] Advanced Django Project: Build High&#45;Traffic Websites with</text>
<text text-anchor="start" x="850.5" y="-246.5" font-family="Helvetica,sans-Serif" font-size="10.00" fill="#000000">Django</text>
<text text-anchor="start" x="712" y="-231.5" font-family="Helvetica,sans-Serif" font-size="10.00" fill="#000000">[Ext.] Django Essential Training</text>
<text text-anchor="start" x="712" y="-216.5" font-family="Helvetica,sans-Serif" font-size="10.00" fill="#000000">[Ext.] Django 5: The Big Picture</text>
</g>
<!-- python_advanced&#45;&gt;django_core -->
<g id="edge4" class="edge">
<title>python_advanced&#45;&gt;django_core</title>
<path fill="none" stroke="#000000" stroke-width="1.5" d="M655.21,-345.75C655.21,-345.75 693.96,-345.75 693.96,-345.75"/>
<polygon fill="#000000" stroke="#000000" stroke-width="1.5" points="701.96,-345.75 693.96,-349.35 697.96,-346 693.96,-346 693.96,-345.75 693.96,-345.5 697.96,-345.5 693.96,-342.15 701.96,-345.75 701.96,-345.75"/>
</g>
<!-- web_basics&#45;&gt;django_core -->
<g id="edge5" class="edge">
<title>web_basics&#45;&gt;django_core</title>
<path fill="none" stroke="#000000" stroke-width="1.5" d="M629.8,-236.5C629.8,-236.5 693.75,-236.5 693.75,-236.5"/>
<polygon fill="#000000" stroke="#000000" stroke-width="1.5" points="701.75,-236.5 693.75,-240.1 697.75,-236.75 693.75,-236.75 693.75,-236.5 693.75,-236.25 697.75,-236.25 693.75,-232.9 701.75,-236.5 701.75,-236.5"/>
</g>
<!-- django_data -->
<g id="node6" class="node">
<title>django_data</title>
<polygon fill="#56c8fd" stroke="#000000" points="1437,-611.5 1434,-615.5 1413,-615.5 1410,-611.5 1081,-611.5 1081,-425.5 1437,-425.5 1437,-611.5"/>
<text text-anchor="start" x="1184.5" y="-596.9" font-family="Helvetica,sans-Serif" font-weight="bold" font-size="12.00" fill="#000000">Django ORM and Data</text>
<text text-anchor="start" x="1091" y="-581.5" font-family="Helvetica,sans-Serif" font-style="italic" font-size="10.00" fill="#000000">Topics:</text>
<text text-anchor="start" x="1091" y="-565.5" font-family="Helvetica,sans-Serif" font-size="10.00" fill="#000000">model design and relationships</text>
<text text-anchor="start" x="1091" y="-550.5" font-family="Helvetica,sans-Serif" font-size="10.00" fill="#000000">querysets filtering and aggregation</text>
<text text-anchor="start" x="1091" y="-535.5" font-family="Helvetica,sans-Serif" font-size="10.00" fill="#000000">migrations and schema changes</text>
<text text-anchor="start" x="1091" y="-520.5" font-family="Helvetica,sans-Serif" font-size="10.00" fill="#000000">basic database indexing and constraints</text>
<text text-anchor="start" x="1091" y="-506.5" font-family="Helvetica,sans-Serif" font-style="italic" font-size="10.00" fill="#000000">Tools:</text>
<text text-anchor="start" x="1119" y="-506.5" font-family="Helvetica,sans-Serif" font-size="10.00" fill="#000000"> Django ORM / PostgreSQL</text>
<text text-anchor="start" x="1091" y="-491.5" font-family="Helvetica,sans-Serif" font-style="italic" font-size="10.00" fill="#000000">Courses:</text>
<text text-anchor="start" x="1091" y="-475.5" font-family="Helvetica,sans-Serif" font-size="10.00" fill="#000000">[Ext.] Migrate to Cloud SQL for PostgreSQL using Database Migration</text>
<text text-anchor="start" x="1240.5" y="-464.5" font-family="Helvetica,sans-Serif" font-size="10.00" fill="#000000">Service</text>
<text text-anchor="start" x="1091" y="-449.5" font-family="Helvetica,sans-Serif" font-size="10.00" fill="#000000">[Ext.] PostgreSQL Data Manipulation Playbook</text>
<text text-anchor="start" x="1091" y="-434.5" font-family="Helvetica,sans-Serif" font-size="10.00" fill="#000000">[Ext.] Introduction to PostgreSQL</text>
</g>
<!-- django_core&#45;&gt;django_data -->
<g id="edge6" class="edge">
<title>django_core&#45;&gt;django_data</title>
<path fill="none" stroke="#000000" stroke-width="1.5" d="M1034.27,-331.5C1064.67,-331.5 1087,-331.5 1087,-331.5 1087,-331.5 1087,-417.27 1087,-417.27"/>
<polygon fill="#000000" stroke="#000000" stroke-width="1.5" points="1087,-425.27 1083.4,-417.27 1086.75,-421.27 1086.75,-417.27 1087,-417.27 1087.25,-417.27 1087.25,-421.27 1090.6,-417.27 1087,-425.27 1087,-425.27"/>
</g>
<!-- django_views_api -->
<g id="node7" class="node">
<title>django_views_api</title>
<polygon fill="#56c8fd" stroke="#000000" points="1425,-393.5 1422,-397.5 1401,-397.5 1398,-393.5 1093,-393.5 1093,-207.5 1425,-207.5 1425,-393.5"/>
<text text-anchor="start" x="1170" y="-378.9" font-family="Helvetica,sans-Serif" font-weight="bold" font-size="12.00" fill="#000000">Views Templates and APIs</text>
<text text-anchor="start" x="1103" y="-363.5" font-family="Helvetica,sans-Serif" font-style="italic" font-size="10.00" fill="#000000">Topics:</text>
<text text-anchor="start" x="1103" y="-347.5" font-family="Helvetica,sans-Serif" font-size="10.00" fill="#000000">function and class based views</text>
<text text-anchor="start" x="1103" y="-332.5" font-family="Helvetica,sans-Serif" font-size="10.00" fill="#000000">template inheritance and context</text>
<text text-anchor="start" x="1103" y="-317.5" font-family="Helvetica,sans-Serif" font-size="10.00" fill="#000000">forms handling and validation</text>
<text text-anchor="start" x="1103" y="-302.5" font-family="Helvetica,sans-Serif" font-size="10.00" fill="#000000">basic rest APIs with django</text>
<text text-anchor="start" x="1103" y="-288.5" font-family="Helvetica,sans-Serif" font-style="italic" font-size="10.00" fill="#000000">Tools:</text>
<text text-anchor="start" x="1131" y="-288.5" font-family="Helvetica,sans-Serif" font-size="10.00" fill="#000000"> Django / Django REST Framework</text>
<text text-anchor="start" x="1103" y="-273.5" font-family="Helvetica,sans-Serif" font-style="italic" font-size="10.00" fill="#000000">Courses:</text>
<text text-anchor="start" x="1103" y="-257.5" font-family="Helvetica,sans-Serif" font-size="10.00" fill="#000000">[Ext.] Django</text>
<text text-anchor="start" x="1103" y="-242.5" font-family="Helvetica,sans-Serif" font-size="10.00" fill="#000000">[Ext.] Building React and Django Apps</text>
<text text-anchor="start" x="1103" y="-227.5" font-family="Helvetica,sans-Serif" font-size="10.00" fill="#000000">[Ext.] Advanced Django Project: Build High&#45;Traffic Websites with</text>
<text text-anchor="start" x="1241.5" y="-216.5" font-family="Helvetica,sans-Serif" font-size="10.00" fill="#000000">Django</text>
</g>
<!-- django_core&#45;&gt;django_views_api -->
<g id="edge7" class="edge">
<title>django_core&#45;&gt;django_views_api</title>
<path fill="none" stroke="#000000" stroke-width="1.5" d="M1034.1,-269.5C1034.1,-269.5 1084.84,-269.5 1084.84,-269.5"/>
<polygon fill="#000000" stroke="#000000" stroke-width="1.5" points="1092.84,-269.5 1084.84,-273.1 1088.84,-269.75 1084.84,-269.75 1084.84,-269.5 1084.84,-269.25 1088.84,-269.25 1084.84,-265.9 1092.84,-269.5 1092.84,-269.5"/>
</g>
<!-- django_auth_security -->
<g id="node8" class="node">
<title>django_auth_security</title>
<polygon fill="#56c8fd" stroke="#000000" points="1406.5,-175 1403.5,-179 1382.5,-179 1379.5,-175 1111.5,-175 1111.5,0 1406.5,0 1406.5,-175"/>
<text text-anchor="start" x="1175" y="-159.9" font-family="Helvetica,sans-Serif" font-weight="bold" font-size="12.00" fill="#000000">Auth and Security Basics</text>
<text text-anchor="start" x="1122" y="-144.5" font-family="Helvetica,sans-Serif" font-style="italic" font-size="10.00" fill="#000000">Topics:</text>
<text text-anchor="start" x="1122" y="-128.5" font-family="Helvetica,sans-Serif" font-size="10.00" fill="#000000">django auth users and permissions</text>
<text text-anchor="start" x="1122" y="-113.5" font-family="Helvetica,sans-Serif" font-size="10.00" fill="#000000">sessions and cookies handling</text>
<text text-anchor="start" x="1122" y="-98.5" font-family="Helvetica,sans-Serif" font-size="10.00" fill="#000000">csrf xss and common web risks</text>
<text text-anchor="start" x="1122" y="-83.5" font-family="Helvetica,sans-Serif" font-size="10.00" fill="#000000">secure settings and password handling</text>
<text text-anchor="start" x="1122" y="-69.5" font-family="Helvetica,sans-Serif" font-style="italic" font-size="10.00" fill="#000000">Tools:</text>
<text text-anchor="start" x="1150" y="-69.5" font-family="Helvetica,sans-Serif" font-size="10.00" fill="#000000"> Django</text>
<text text-anchor="start" x="1122" y="-54.5" font-family="Helvetica,sans-Serif" font-style="italic" font-size="10.00" fill="#000000">Courses:</text>
<text text-anchor="start" x="1122" y="-38.5" font-family="Helvetica,sans-Serif" font-size="10.00" fill="#000000">[Ext.] Django: Getting Started</text>
<text text-anchor="start" x="1122" y="-23.5" font-family="Helvetica,sans-Serif" font-size="10.00" fill="#000000">[Ext.] CVE&#45;2022&#45;34265 Django: Emulation and Detection</text>
<text text-anchor="start" x="1122" y="-8.5" font-family="Helvetica,sans-Serif" font-size="10.00" fill="#000000">[Ext.] Working with Django Models</text>
</g>
<!-- django_core&#45;&gt;django_auth_security -->
<g id="edge8" class="edge">
<title>django_core&#45;&gt;django_auth_security</title>
<path fill="none" stroke="#000000" stroke-width="1.5" d="M868,-207.23C868,-186.35 868,-170.25 868,-170.25 868,-170.25 1103.46,-170.25 1103.46,-170.25"/>
<polygon fill="#000000" stroke="#000000" stroke-width="1.5" points="1111.46,-170.25 1103.46,-173.85 1107.46,-170.5 1103.46,-170.5 1103.46,-170.25 1103.46,-170 1107.46,-170 1103.46,-166.65 1111.46,-170.25 1111.46,-170.25"/>
</g>
<!-- django_practices -->
<g id="node9" class="node">
<title>django_practices</title>
<polygon fill="#56c8fd" stroke="#000000" points="1703,-388 1700,-392 1679,-392 1676,-388 1484,-388 1484,-213 1703,-213 1703,-388"/>
<text text-anchor="start" x="1503.5" y="-372.9" font-family="Helvetica,sans-Serif" font-weight="bold" font-size="12.00" fill="#000000">Testing and Best Practices</text>
<text text-anchor="start" x="1494.5" y="-357.5" font-family="Helvetica,sans-Serif" font-style="italic" font-size="10.00" fill="#000000">Topics:</text>
<text text-anchor="start" x="1494.5" y="-341.5" font-family="Helvetica,sans-Serif" font-size="10.00" fill="#000000">unit and integration tests in django</text>
<text text-anchor="start" x="1494.5" y="-326.5" font-family="Helvetica,sans-Serif" font-size="10.00" fill="#000000">settings for multiple environments</text>
<text text-anchor="start" x="1494.5" y="-311.5" font-family="Helvetica,sans-Serif" font-size="10.00" fill="#000000">logging error handling and debug toolbar</text>
<text text-anchor="start" x="1494.5" y="-296.5" font-family="Helvetica,sans-Serif" font-size="10.00" fill="#000000">code style and simple refactoring</text>
<text text-anchor="start" x="1494.5" y="-282.5" font-family="Helvetica,sans-Serif" font-style="italic" font-size="10.00" fill="#000000">Tools:</text>
<text text-anchor="start" x="1522.5" y="-282.5" font-family="Helvetica,sans-Serif" font-size="10.00" fill="#000000"> pytest / Django</text>
<text text-anchor="start" x="1494.5" y="-267.5" font-family="Helvetica,sans-Serif" font-style="italic" font-size="10.00" fill="#000000">Courses:</text>
<text text-anchor="start" x="1494.5" y="-251.5" font-family="Helvetica,sans-Serif" font-size="10.00" fill="#000000">[Ext.] Django Fundamentals</text>
<text text-anchor="start" x="1494.5" y="-236.5" font-family="Helvetica,sans-Serif" font-size="10.00" fill="#000000">[Ext.] Securing Django Applications</text>
<text text-anchor="start" x="1494.5" y="-221.5" font-family="Helvetica,sans-Serif" font-size="10.00" fill="#000000">[Ext.] Django 4 Templates</text>
</g>
<!-- django_data&#45;&gt;django_practices -->
<g id="edge9" class="edge">
<title>django_data&#45;&gt;django_practices</title>
<path fill="none" stroke="#000000" stroke-width="1.5" d="M1431,-425.47C1431,-377.8 1431,-329.67 1431,-329.67 1431,-329.67 1475.76,-329.67 1475.76,-329.67"/>
<polygon fill="#000000" stroke="#000000" stroke-width="1.5" points="1483.76,-329.67 1475.76,-333.27 1479.76,-329.92 1475.76,-329.92 1475.76,-329.67 1475.76,-329.42 1479.76,-329.42 1475.76,-326.07 1483.76,-329.67 1483.76,-329.67"/>
</g>
<!-- django_views_api&#45;&gt;django_practices -->
<g id="edge10" class="edge">
<title>django_views_api&#45;&gt;django_practices</title>
<path fill="none" stroke="#000000" stroke-width="1.5" d="M1425.27,-271.33C1425.27,-271.33 1475.73,-271.33 1475.73,-271.33"/>
<polygon fill="#000000" stroke="#000000" stroke-width="1.5" points="1483.73,-271.33 1475.73,-274.93 1479.73,-271.58 1475.73,-271.58 1475.73,-271.33 1475.73,-271.08 1479.73,-271.08 1475.73,-267.73 1483.73,-271.33 1483.73,-271.33"/>
</g>
<!-- django_auth_security&#45;&gt;django_practices -->
<g id="edge11" class="edge">
<title>django_auth_security&#45;&gt;django_practices</title>
<path fill="none" stroke="#000000" stroke-width="1.5" d="M1406.91,-87.5C1496.65,-87.5 1594,-87.5 1594,-87.5 1594,-87.5 1594,-204.94 1594,-204.94"/>
<polygon fill="#000000" stroke="#000000" stroke-width="1.5" points="1594,-212.94 1590.4,-204.94 1593.75,-208.94 1593.75,-204.94 1594,-204.94 1594.25,-204.94 1594.25,-208.94 1597.6,-204.94 1594,-212.94 1594,-212.94"/>
</g>
<!-- deployment_basics -->
<g id="node10" class="node">
<title>deployment_basics</title>
<polygon fill="#56c8fd" stroke="#000000" points="2107,-388 2104,-392 2083,-392 2080,-388 1750,-388 1750,-213 2107,-213 2107,-388"/>
<text text-anchor="start" x="1851.5" y="-372.9" font-family="Helvetica,sans-Serif" font-weight="bold" font-size="12.00" fill="#000000">Deployment Essentials</text>
<text text-anchor="start" x="1760.5" y="-357.5" font-family="Helvetica,sans-Serif" font-style="italic" font-size="10.00" fill="#000000">Topics:</text>
<text text-anchor="start" x="1760.5" y="-341.5" font-family="Helvetica,sans-Serif" font-size="10.00" fill="#000000">serving django with wsgi or asgi</text>
<text text-anchor="start" x="1760.5" y="-326.5" font-family="Helvetica,sans-Serif" font-size="10.00" fill="#000000">static and media files handling</text>
<text text-anchor="start" x="1760.5" y="-311.5" font-family="Helvetica,sans-Serif" font-size="10.00" fill="#000000">basic linux and environment setup</text>
<text text-anchor="start" x="1760.5" y="-296.5" font-family="Helvetica,sans-Serif" font-size="10.00" fill="#000000">using git and simple ci workflow</text>
<text text-anchor="start" x="1760.5" y="-282.5" font-family="Helvetica,sans-Serif" font-style="italic" font-size="10.00" fill="#000000">Tools:</text>
<text text-anchor="start" x="1788.5" y="-282.5" font-family="Helvetica,sans-Serif" font-size="10.00" fill="#000000"> Git / Gunicorn / Docker</text>
<text text-anchor="start" x="1760.5" y="-267.5" font-family="Helvetica,sans-Serif" font-style="italic" font-size="10.00" fill="#000000">Courses:</text>
<text text-anchor="start" x="1760.5" y="-251.5" font-family="Helvetica,sans-Serif" font-size="10.00" fill="#000000">[Ext.] Git Deep Dive</text>
<text text-anchor="start" x="1760.5" y="-236.5" font-family="Helvetica,sans-Serif" font-size="10.00" fill="#000000">[Ext.] Fundamentals of Docker and Kubernetes for .NET 5 Developers</text>
<text text-anchor="start" x="1760.5" y="-221.5" font-family="Helvetica,sans-Serif" font-size="10.00" fill="#000000">[Ext.] Docker Basic Concepts and Configuration</text>
</g>
<!-- django_practices&#45;&gt;deployment_basics -->
<g id="edge12" class="edge">
<title>django_practices&#45;&gt;deployment_basics</title>
<path fill="none" stroke="#000000" stroke-width="1.5" d="M1703.19,-300.5C1703.19,-300.5 1741.97,-300.5 1741.97,-300.5"/>
<polygon fill="#000000" stroke="#000000" stroke-width="1.5" points="1749.97,-300.5 1741.97,-304.1 1745.97,-300.75 1741.97,-300.75 1741.97,-300.5 1741.97,-300.25 1745.97,-300.25 1741.97,-296.9 1749.97,-300.5 1749.97,-300.5"/>
</g>
<!-- target -->
<g id="node11" class="node">
<title>target</title>
<polygon fill="#ffb24d" stroke="#1b1b1b" points="2280,-318.5 2277,-322.5 2256,-322.5 2253,-318.5 2154,-318.5 2154,-282.5 2280,-282.5 2280,-318.5"/>
<text text-anchor="start" x="2164" y="-297.9" font-family="Helvetica,sans-Serif" font-weight="bold" font-size="12.00" fill="#000000">Junior Djangoss</text>
</g>
<!-- deployment_basics&#45;&gt;target -->
<g id="edge13" class="edge">
<title>deployment_basics&#45;&gt;target</title>
<path fill="none" stroke="#000000" stroke-width="1.5" d="M2107.11,-300.5C2107.11,-300.5 2145.72,-300.5 2145.72,-300.5"/>
<polygon fill="#000000" stroke="#000000" stroke-width="1.5" points="2153.72,-300.5 2145.72,-304.1 2149.72,-300.75 2145.72,-300.75 2145.72,-300.5 2145.72,-300.25 2149.72,-300.25 2145.72,-296.9 2153.72,-300.5 2153.72,-300.5"/>
</g>
</g>
</svg>
