<?xml version="1.0" encoding="UTF-8" standalone="no"?>
<!DOCTYPE svg PUBLIC "-//W3C//DTD SVG 1.1//EN"
 "http://www.w3.org/Graphics/SVG/1.1/DTD/svg11.dtd">
<!-- Generated by graphviz version 2.43.0 (0)
 -->
<!-- Pages: 1 -->
<svg width="2466pt" height="583pt"
 viewBox="0.00 0.00 2466.00 583.00" xmlns="http://www.w3.org/2000/svg" xmlns:xlink="http://www.w3.org/1999/xlink">
<g id="graph0" class="graph" transform="scale(1 1) rotate(0) translate(4 579)">
<polygon fill="#ffffff" stroke="transparent" points="-4,4 -4,-579 2462,-579 2462,4 -4,4"/>
<!-- start -->
<g id="node1" class="node">
<title>start</title>
<polygon fill="#ffb24d" stroke="#1b1b1b" points="114,-312.5 111,-316.5 90,-316.5 87,-312.5 0,-312.5 0,-276.5 114,-276.5 114,-312.5"/>
<text text-anchor="start" x="10" y="-291.9" font-family="Helvetica,sans-Serif" font-weight="bold" font-size="12.00" fill="#000000">You Are Here!</text>
</g>
<!-- py&#45;core -->
<g id="node2" class="node">
<title>py&#45;core</title>
<polygon fill="#56c8fd" stroke="#000000" points="365,-382 362,-386 341,-386 338,-382 161,-382 161,-207 365,-207 365,-382"/>
<text text-anchor="start" x="173" y="-366.9" font-family="Helvetica,sans-Serif" font-weight="bold" font-size="12.00" fill="#000000">Core Python Programming</text>
<text text-anchor="start" x="171" y="-351.5" font-family="Helvetica,sans-Serif" font-style="italic" font-size="10.00" fill="#000000">Topics:</text>
<text text-anchor="start" x="171" y="-335.5" font-family="Helvetica,sans-Serif" font-size="10.00" fill="#000000">control flow and data structures</text>
<text text-anchor="start" x="171" y="-320.5" font-family="Helvetica,sans-Serif" font-size="10.00" fill="#000000">functions and modules</text>
<text text-anchor="start" x="171" y="-305.5" font-family="Helvetica,sans-Serif" font-size="10.00" fill="#000000">error handling and debugging</text>
<text text-anchor="start" x="171" y="-290.5" font-family="Helvetica,sans-Serif" font-size="10.00" fill="#000000">standard library and virtualenvs</text>
<text text-anchor="start" x="171" y="-276.5" font-family="Helvetica,sans-Serif" font-style="italic" font-size="10.00" fill="#000000">Tools:</text>
<text text-anchor="start" x="199" y="-276.5" font-family="Helvetica,sans-Serif" font-size="10.00" fill="#000000"> Python / pip / venv</text>
<text text-anchor="start" x="171" y="-261.5" font-family="Helvetica,sans-Serif" font-style="italic" font-size="10.00" fill="#000000">Courses:</text>
<text text-anchor="start" x="171" y="-245.5" font-family="Helvetica,sans-Serif" font-size="10.00" fill="#000000">[Int.] Úvod do programování v Python</text>
<text text-anchor="start" x="171" y="-230.5" font-family="Helvetica,sans-Serif" font-size="10.00" fill="#000000">[Int.] Úvod do programování Python</text>
<text text-anchor="start" x="171" y="-215.5" font-family="Helvetica,sans-Serif" font-size="10.00" fill="#000000">[Int.] Python a Power BI</text>
</g>
<!-- start&#45;&gt;py&#45;core -->
<g id="edge1" class="edge">
<title>start&#45;&gt;py&#45;core</title>
<path fill="none" stroke="#000000" stroke-width="1.5" d="M114.11,-294.5C114.11,-294.5 152.73,-294.5 152.73,-294.5"/>
<polygon fill="#000000" stroke="#000000" stroke-width="1.5" points="160.73,-294.5 152.73,-298.1 156.73,-294.75 152.73,-294.75 152.73,-294.5 152.73,-294.25 156.73,-294.25 152.73,-290.9 160.73,-294.5 160.73,-294.5"/>
</g>
<!-- py&#45;adv -->
<g id="node3" class="node">
<title>py&#45;adv</title>
<polygon fill="#56c8fd" stroke="#000000" points="778,-559 775,-563 754,-563 751,-559 412,-559 412,-414 778,-414 778,-559"/>
<text text-anchor="start" x="503" y="-543.9" font-family="Helvetica,sans-Serif" font-weight="bold" font-size="12.00" fill="#000000">Advanced Python Practices</text>
<text text-anchor="start" x="422" y="-528.5" font-family="Helvetica,sans-Serif" font-style="italic" font-size="10.00" fill="#000000">Topics:</text>
<text text-anchor="start" x="422" y="-512.5" font-family="Helvetica,sans-Serif" font-size="10.00" fill="#000000">object oriented design and dataclasses</text>
<text text-anchor="start" x="422" y="-497.5" font-family="Helvetica,sans-Serif" font-size="10.00" fill="#000000">iterators generators and comprehensions</text>
<text text-anchor="start" x="422" y="-482.5" font-family="Helvetica,sans-Serif" font-size="10.00" fill="#000000">typing and static analysis</text>
<text text-anchor="start" x="422" y="-467.5" font-family="Helvetica,sans-Serif" font-size="10.00" fill="#000000">asynchronous programming basics</text>
<text text-anchor="start" x="422" y="-453.5" font-family="Helvetica,sans-Serif" font-style="italic" font-size="10.00" fill="#000000">Tools:</text>
<text text-anchor="start" x="450" y="-453.5" font-family="Helvetica,sans-Serif" font-size="10.00" fill="#000000"> mypy / pytest</text>
<text text-anchor="start" x="422" y="-438.5" font-family="Helvetica,sans-Serif" font-style="italic" font-size="10.00" fill="#000000">Courses:</text>
<text text-anchor="start" x="422" y="-422.5" font-family="Helvetica,sans-Serif" font-size="10.00" fill="#000000">[Ext.] Behavior&#45;driven Development (BDD) with pytest&#45;bdd and Python</text>
</g>
<!-- py&#45;core&#45;&gt;py&#45;adv -->
<g id="edge2" class="edge">
<title>py&#45;core&#45;&gt;py&#45;adv</title>
<path fill="none" stroke="#000000" stroke-width="1.5" d="M365.29,-323.67C399.46,-323.67 429,-323.67 429,-323.67 429,-323.67 429,-405.66 429,-405.66"/>
<polygon fill="#000000" stroke="#000000" stroke-width="1.5" points="429,-413.66 425.4,-405.66 428.75,-409.66 428.75,-405.66 429,-405.66 429.25,-405.66 429.25,-409.66 432.6,-405.66 429,-413.66 429,-413.66"/>
</g>
<!-- ds&#45;ml&#45;found -->
<g id="node4" class="node">
<title>ds&#45;ml&#45;found</title>
<polygon fill="#56c8fd" stroke="#000000" points="738.5,-382 735.5,-386 714.5,-386 711.5,-382 451.5,-382 451.5,-207 738.5,-207 738.5,-382"/>
<text text-anchor="start" x="501" y="-366.9" font-family="Helvetica,sans-Serif" font-weight="bold" font-size="12.00" fill="#000000">Math And ML Fundamentals</text>
<text text-anchor="start" x="462" y="-351.5" font-family="Helvetica,sans-Serif" font-style="italic" font-size="10.00" fill="#000000">Topics:</text>
<text text-anchor="start" x="462" y="-335.5" font-family="Helvetica,sans-Serif" font-size="10.00" fill="#000000">linear algebra and calculus basics</text>
<text text-anchor="start" x="462" y="-320.5" font-family="Helvetica,sans-Serif" font-size="10.00" fill="#000000">probability and statistics for ML</text>
<text text-anchor="start" x="462" y="-305.5" font-family="Helvetica,sans-Serif" font-size="10.00" fill="#000000">supervised vs unsupervised learning</text>
<text text-anchor="start" x="462" y="-290.5" font-family="Helvetica,sans-Serif" font-size="10.00" fill="#000000">model evaluation and metrics</text>
<text text-anchor="start" x="462" y="-276.5" font-family="Helvetica,sans-Serif" font-style="italic" font-size="10.00" fill="#000000">Tools:</text>
<text text-anchor="start" x="490" y="-276.5" font-family="Helvetica,sans-Serif" font-size="10.00" fill="#000000"> NumPy / SciPy</text>
<text text-anchor="start" x="462" y="-261.5" font-family="Helvetica,sans-Serif" font-style="italic" font-size="10.00" fill="#000000">Courses:</text>
<text text-anchor="start" x="462" y="-245.5" font-family="Helvetica,sans-Serif" font-size="10.00" fill="#000000">[Ext.] Getting Started with NumPy Hands&#45;on Practice</text>
<text text-anchor="start" x="462" y="-230.5" font-family="Helvetica,sans-Serif" font-size="10.00" fill="#000000">[Ext.] Accessing Arrays with NumPy Hands&#45;on Practice</text>
<text text-anchor="start" x="462" y="-215.5" font-family="Helvetica,sans-Serif" font-size="10.00" fill="#000000">[Ext.] Getting Started with NumPy</text>
</g>
<!-- py&#45;core&#45;&gt;ds&#45;ml&#45;found -->
<g id="edge3" class="edge">
<title>py&#45;core&#45;&gt;ds&#45;ml&#45;found</title>
<path fill="none" stroke="#000000" stroke-width="1.5" d="M365.32,-265.33C365.32,-265.33 443.21,-265.33 443.21,-265.33"/>
<polygon fill="#000000" stroke="#000000" stroke-width="1.5" points="451.21,-265.33 443.21,-268.93 447.21,-265.58 443.21,-265.58 443.21,-265.33 443.21,-265.08 447.21,-265.08 443.21,-261.73 451.21,-265.33 451.21,-265.33"/>
</g>
<!-- py&#45;data -->
<g id="node5" class="node">
<title>py&#45;data</title>
<polygon fill="#56c8fd" stroke="#000000" points="745,-175 742,-179 721,-179 718,-175 445,-175 445,0 745,0 745,-175"/>
<text text-anchor="start" x="505" y="-159.9" font-family="Helvetica,sans-Serif" font-weight="bold" font-size="12.00" fill="#000000">Data Processing In Python</text>
<text text-anchor="start" x="455" y="-144.5" font-family="Helvetica,sans-Serif" font-style="italic" font-size="10.00" fill="#000000">Topics:</text>
<text text-anchor="start" x="455" y="-128.5" font-family="Helvetica,sans-Serif" font-size="10.00" fill="#000000">data loading and cleaning</text>
<text text-anchor="start" x="455" y="-113.5" font-family="Helvetica,sans-Serif" font-size="10.00" fill="#000000">feature engineering and encoding</text>
<text text-anchor="start" x="455" y="-98.5" font-family="Helvetica,sans-Serif" font-size="10.00" fill="#000000">working with tabular and text data</text>
<text text-anchor="start" x="455" y="-83.5" font-family="Helvetica,sans-Serif" font-size="10.00" fill="#000000">data visualization and exploration</text>
<text text-anchor="start" x="455" y="-69.5" font-family="Helvetica,sans-Serif" font-style="italic" font-size="10.00" fill="#000000">Tools:</text>
<text text-anchor="start" x="483" y="-69.5" font-family="Helvetica,sans-Serif" font-size="10.00" fill="#000000"> Pandas / Matplotlib / Seaborn</text>
<text text-anchor="start" x="455" y="-54.5" font-family="Helvetica,sans-Serif" font-style="italic" font-size="10.00" fill="#000000">Courses:</text>
<text text-anchor="start" x="455" y="-38.5" font-family="Helvetica,sans-Serif" font-size="10.00" fill="#000000">[Ext.] Python: Backend Data Visualization with Matplotlib</text>
<text text-anchor="start" x="455" y="-23.5" font-family="Helvetica,sans-Serif" font-size="10.00" fill="#000000">[Ext.] Getting Started with Matplotlib</text>
<text text-anchor="start" x="455" y="-8.5" font-family="Helvetica,sans-Serif" font-size="10.00" fill="#000000">[Ext.] Up and Running with Pandas Hands&#45;on Practice</text>
</g>
<!-- py&#45;core&#45;&gt;py&#45;data -->
<g id="edge4" class="edge">
<title>py&#45;core&#45;&gt;py&#45;data</title>
<path fill="none" stroke="#000000" stroke-width="1.5" d="M263,-206.71C263,-150.3 263,-87.5 263,-87.5 263,-87.5 436.54,-87.5 436.54,-87.5"/>
<polygon fill="#000000" stroke="#000000" stroke-width="1.5" points="444.54,-87.5 436.54,-91.1 440.54,-87.75 436.54,-87.75 436.54,-87.5 436.54,-87.25 440.54,-87.25 436.54,-83.9 444.54,-87.5 444.54,-87.5"/>
</g>
<!-- sw&#45;eng -->
<g id="node6" class="node">
<title>sw&#45;eng</title>
<polygon fill="#56c8fd" stroke="#000000" points="1154,-574 1151,-578 1130,-578 1127,-574 825,-574 825,-399 1154,-399 1154,-574"/>
<text text-anchor="start" x="894.5" y="-558.9" font-family="Helvetica,sans-Serif" font-weight="bold" font-size="12.00" fill="#000000">Software Engineering For AI</text>
<text text-anchor="start" x="835.5" y="-543.5" font-family="Helvetica,sans-Serif" font-style="italic" font-size="10.00" fill="#000000">Topics:</text>
<text text-anchor="start" x="835.5" y="-527.5" font-family="Helvetica,sans-Serif" font-size="10.00" fill="#000000">clean code and modular design</text>
<text text-anchor="start" x="835.5" y="-512.5" font-family="Helvetica,sans-Serif" font-size="10.00" fill="#000000">testing strategies and coverage</text>
<text text-anchor="start" x="835.5" y="-497.5" font-family="Helvetica,sans-Serif" font-size="10.00" fill="#000000">logging configuration and cli design</text>
<text text-anchor="start" x="835.5" y="-482.5" font-family="Helvetica,sans-Serif" font-size="10.00" fill="#000000">package structure and dependency management</text>
<text text-anchor="start" x="835.5" y="-468.5" font-family="Helvetica,sans-Serif" font-style="italic" font-size="10.00" fill="#000000">Tools:</text>
<text text-anchor="start" x="863.5" y="-468.5" font-family="Helvetica,sans-Serif" font-size="10.00" fill="#000000"> Git / pytest / Poetry</text>
<text text-anchor="start" x="835.5" y="-453.5" font-family="Helvetica,sans-Serif" font-style="italic" font-size="10.00" fill="#000000">Courses:</text>
<text text-anchor="start" x="835.5" y="-437.5" font-family="Helvetica,sans-Serif" font-size="10.00" fill="#000000">[Ext.] Working with Git Branches</text>
<text text-anchor="start" x="835.5" y="-422.5" font-family="Helvetica,sans-Serif" font-size="10.00" fill="#000000">[Ext.] Linux+ Automation: Implement Version Control Using Git</text>
<text text-anchor="start" x="835.5" y="-407.5" font-family="Helvetica,sans-Serif" font-size="10.00" fill="#000000">[Ext.] Guided: Branching and Merging in Git</text>
</g>
<!-- py&#45;adv&#45;&gt;sw&#45;eng -->
<g id="edge5" class="edge">
<title>py&#45;adv&#45;&gt;sw&#45;eng</title>
<path fill="none" stroke="#000000" stroke-width="1.5" d="M778.1,-486.5C778.1,-486.5 816.89,-486.5 816.89,-486.5"/>
<polygon fill="#000000" stroke="#000000" stroke-width="1.5" points="824.89,-486.5 816.89,-490.1 820.89,-486.75 816.89,-486.75 816.89,-486.5 816.89,-486.25 820.89,-486.25 816.89,-482.9 824.89,-486.5 824.89,-486.5"/>
</g>
<!-- ml&#45;core -->
<g id="node7" class="node">
<title>ml&#45;core</title>
<polygon fill="#56c8fd" stroke="#000000" points="1117.5,-366 1114.5,-370 1093.5,-370 1090.5,-366 861.5,-366 861.5,-191 1117.5,-191 1117.5,-366"/>
<text text-anchor="start" x="929" y="-350.9" font-family="Helvetica,sans-Serif" font-weight="bold" font-size="12.00" fill="#000000">Core ML Modeling</text>
<text text-anchor="start" x="871.5" y="-335.5" font-family="Helvetica,sans-Serif" font-style="italic" font-size="10.00" fill="#000000">Topics:</text>
<text text-anchor="start" x="871.5" y="-319.5" font-family="Helvetica,sans-Serif" font-size="10.00" fill="#000000">regression and classification models</text>
<text text-anchor="start" x="871.5" y="-304.5" font-family="Helvetica,sans-Serif" font-size="10.00" fill="#000000">tree based and ensemble methods</text>
<text text-anchor="start" x="871.5" y="-289.5" font-family="Helvetica,sans-Serif" font-size="10.00" fill="#000000">cross validation and hyperparameter tuning</text>
<text text-anchor="start" x="871.5" y="-274.5" font-family="Helvetica,sans-Serif" font-size="10.00" fill="#000000">handling overfitting and imbalanced data</text>
<text text-anchor="start" x="871.5" y="-260.5" font-family="Helvetica,sans-Serif" font-style="italic" font-size="10.00" fill="#000000">Tools:</text>
<text text-anchor="start" x="899.5" y="-260.5" font-family="Helvetica,sans-Serif" font-size="10.00" fill="#000000"> scikit&#45;learn</text>
<text text-anchor="start" x="871.5" y="-245.5" font-family="Helvetica,sans-Serif" font-style="italic" font-size="10.00" fill="#000000">Courses:</text>
<text text-anchor="start" x="871.5" y="-229.5" font-family="Helvetica,sans-Serif" font-size="10.00" fill="#000000">[Ext.] Building Your First scikit&#45;learn Solution</text>
<text text-anchor="start" x="871.5" y="-214.5" font-family="Helvetica,sans-Serif" font-size="10.00" fill="#000000">[Ext.] Scaling scikit&#45;learn Solutions</text>
<text text-anchor="start" x="871.5" y="-199.5" font-family="Helvetica,sans-Serif" font-size="10.00" fill="#000000">[Ext.] Building Neural Networks with scikit&#45;learn</text>
</g>
<!-- ds&#45;ml&#45;found&#45;&gt;ml&#45;core -->
<g id="edge6" class="edge">
<title>ds&#45;ml&#45;found&#45;&gt;ml&#45;core</title>
<path fill="none" stroke="#000000" stroke-width="1.5" d="M738.54,-286.5C738.54,-286.5 853.42,-286.5 853.42,-286.5"/>
<polygon fill="#000000" stroke="#000000" stroke-width="1.5" points="861.42,-286.5 853.42,-290.1 857.42,-286.75 853.42,-286.75 853.42,-286.5 853.42,-286.25 857.42,-286.25 853.42,-282.9 861.42,-286.5 861.42,-286.5"/>
</g>
<!-- py&#45;data&#45;&gt;ml&#45;core -->
<g id="edge7" class="edge">
<title>py&#45;data&#45;&gt;ml&#45;core</title>
<path fill="none" stroke="#000000" stroke-width="1.5" d="M595,-175.08C595,-189.04 595,-199 595,-199 595,-199 853.42,-199 853.42,-199"/>
<polygon fill="#000000" stroke="#000000" stroke-width="1.5" points="861.42,-199 853.42,-202.6 857.42,-199.25 853.42,-199.25 853.42,-199 853.42,-198.75 857.42,-198.75 853.42,-195.4 861.42,-199 861.42,-199"/>
</g>
<!-- ai&#45;systems -->
<g id="node8" class="node">
<title>ai&#45;systems</title>
<polygon fill="#56c8fd" stroke="#000000" points="1527.5,-574 1524.5,-578 1503.5,-578 1500.5,-574 1210.5,-574 1210.5,-399 1527.5,-399 1527.5,-574"/>
<text text-anchor="start" x="1309.5" y="-558.9" font-family="Helvetica,sans-Serif" font-weight="bold" font-size="12.00" fill="#000000">AI System Design</text>
<text text-anchor="start" x="1221" y="-543.5" font-family="Helvetica,sans-Serif" font-style="italic" font-size="10.00" fill="#000000">Topics:</text>
<text text-anchor="start" x="1221" y="-527.5" font-family="Helvetica,sans-Serif" font-size="10.00" fill="#000000">serving models as apis</text>
<text text-anchor="start" x="1221" y="-512.5" font-family="Helvetica,sans-Serif" font-size="10.00" fill="#000000">data and feature pipelines</text>
<text text-anchor="start" x="1221" y="-497.5" font-family="Helvetica,sans-Serif" font-size="10.00" fill="#000000">caching and latency optimization</text>
<text text-anchor="start" x="1221" y="-482.5" font-family="Helvetica,sans-Serif" font-size="10.00" fill="#000000">evaluation and feedback loops</text>
<text text-anchor="start" x="1221" y="-468.5" font-family="Helvetica,sans-Serif" font-style="italic" font-size="10.00" fill="#000000">Tools:</text>
<text text-anchor="start" x="1249" y="-468.5" font-family="Helvetica,sans-Serif" font-size="10.00" fill="#000000"> FastAPI / Kafka</text>
<text text-anchor="start" x="1221" y="-453.5" font-family="Helvetica,sans-Serif" font-style="italic" font-size="10.00" fill="#000000">Courses:</text>
<text text-anchor="start" x="1221" y="-437.5" font-family="Helvetica,sans-Serif" font-size="10.00" fill="#000000">[Ext.] FastAPI Foundations</text>
<text text-anchor="start" x="1221" y="-422.5" font-family="Helvetica,sans-Serif" font-size="10.00" fill="#000000">[Ext.] Creating a Streaming Data Pipeline With Apache Kafka</text>
<text text-anchor="start" x="1221" y="-407.5" font-family="Helvetica,sans-Serif" font-size="10.00" fill="#000000">[Ext.] FastAPI: Advanced Request Handling and Middleware</text>
</g>
<!-- sw&#45;eng&#45;&gt;ai&#45;systems -->
<g id="edge8" class="edge">
<title>sw&#45;eng&#45;&gt;ai&#45;systems</title>
<path fill="none" stroke="#000000" stroke-width="1.5" d="M1154.02,-515.67C1154.02,-515.67 1202.43,-515.67 1202.43,-515.67"/>
<polygon fill="#000000" stroke="#000000" stroke-width="1.5" points="1210.43,-515.67 1202.43,-519.27 1206.43,-515.92 1202.43,-515.92 1202.43,-515.67 1202.43,-515.42 1206.43,-515.42 1202.43,-512.07 1210.43,-515.67 1210.43,-515.67"/>
</g>
<!-- ml&#45;core&#45;&gt;ai&#45;systems -->
<g id="edge9" class="edge">
<title>ml&#45;core&#45;&gt;ai&#45;systems</title>
<path fill="none" stroke="#000000" stroke-width="1.5" d="M1117.58,-305.67C1151.08,-305.67 1178,-305.67 1178,-305.67 1178,-305.67 1178,-457.33 1178,-457.33 1178,-457.33 1202.4,-457.33 1202.4,-457.33"/>
<polygon fill="#000000" stroke="#000000" stroke-width="1.5" points="1210.4,-457.33 1202.4,-460.93 1206.4,-457.58 1202.4,-457.58 1202.4,-457.33 1202.4,-457.08 1206.4,-457.08 1202.4,-453.73 1210.4,-457.33 1210.4,-457.33"/>
</g>
<!-- deep&#45;learning -->
<g id="node9" class="node">
<title>deep&#45;learning</title>
<polygon fill="#56c8fd" stroke="#000000" points="1537,-363 1534,-367 1513,-367 1510,-363 1201,-363 1201,-188 1537,-188 1537,-363"/>
<text text-anchor="start" x="1276.5" y="-347.9" font-family="Helvetica,sans-Serif" font-weight="bold" font-size="12.00" fill="#000000">Deep Learning Foundations</text>
<text text-anchor="start" x="1211" y="-332.5" font-family="Helvetica,sans-Serif" font-style="italic" font-size="10.00" fill="#000000">Topics:</text>
<text text-anchor="start" x="1211" y="-316.5" font-family="Helvetica,sans-Serif" font-size="10.00" fill="#000000">neural network architectures</text>
<text text-anchor="start" x="1211" y="-301.5" font-family="Helvetica,sans-Serif" font-size="10.00" fill="#000000">backpropagation and optimization</text>
<text text-anchor="start" x="1211" y="-286.5" font-family="Helvetica,sans-Serif" font-size="10.00" fill="#000000">convolutional and recurrent networks</text>
<text text-anchor="start" x="1211" y="-271.5" font-family="Helvetica,sans-Serif" font-size="10.00" fill="#000000">training regularization and evaluation</text>
<text text-anchor="start" x="1211" y="-257.5" font-family="Helvetica,sans-Serif" font-style="italic" font-size="10.00" fill="#000000">Tools:</text>
<text text-anchor="start" x="1239" y="-257.5" font-family="Helvetica,sans-Serif" font-size="10.00" fill="#000000"> PyTorch / TensorFlow</text>
<text text-anchor="start" x="1211" y="-242.5" font-family="Helvetica,sans-Serif" font-style="italic" font-size="10.00" fill="#000000">Courses:</text>
<text text-anchor="start" x="1211" y="-226.5" font-family="Helvetica,sans-Serif" font-size="10.00" fill="#000000">[Ext.] Hands&#45;On PyTorch Machine Learning</text>
<text text-anchor="start" x="1211" y="-211.5" font-family="Helvetica,sans-Serif" font-size="10.00" fill="#000000">[Ext.] Deploying PyTorch Models in Production: PyTorch Playbook</text>
<text text-anchor="start" x="1211" y="-196.5" font-family="Helvetica,sans-Serif" font-size="10.00" fill="#000000">[Ext.] Getting Started with PyTorch for Machine Learning</text>
</g>
<!-- ml&#45;core&#45;&gt;deep&#45;learning -->
<g id="edge10" class="edge">
<title>ml&#45;core&#45;&gt;deep&#45;learning</title>
<path fill="none" stroke="#000000" stroke-width="1.5" d="M1117.72,-248.33C1117.72,-248.33 1192.75,-248.33 1192.75,-248.33"/>
<polygon fill="#000000" stroke="#000000" stroke-width="1.5" points="1200.75,-248.33 1192.75,-251.93 1196.75,-248.58 1192.75,-248.58 1192.75,-248.33 1192.75,-248.08 1196.75,-248.08 1192.75,-244.73 1200.75,-248.33 1200.75,-248.33"/>
</g>
<!-- mlops -->
<g id="node10" class="node">
<title>mlops</title>
<polygon fill="#56c8fd" stroke="#000000" points="1893,-575 1890,-579 1869,-579 1866,-575 1614,-575 1614,-400 1893,-400 1893,-575"/>
<text text-anchor="start" x="1654.5" y="-559.9" font-family="Helvetica,sans-Serif" font-weight="bold" font-size="12.00" fill="#000000">MLOps And Productionization</text>
<text text-anchor="start" x="1624.5" y="-544.5" font-family="Helvetica,sans-Serif" font-style="italic" font-size="10.00" fill="#000000">Topics:</text>
<text text-anchor="start" x="1624.5" y="-528.5" font-family="Helvetica,sans-Serif" font-size="10.00" fill="#000000">model versioning and registry</text>
<text text-anchor="start" x="1624.5" y="-513.5" font-family="Helvetica,sans-Serif" font-size="10.00" fill="#000000">experiment tracking and lineage</text>
<text text-anchor="start" x="1624.5" y="-498.5" font-family="Helvetica,sans-Serif" font-size="10.00" fill="#000000">model monitoring and drift detection</text>
<text text-anchor="start" x="1624.5" y="-483.5" font-family="Helvetica,sans-Serif" font-size="10.00" fill="#000000">ci cd for ml services</text>
<text text-anchor="start" x="1624.5" y="-469.5" font-family="Helvetica,sans-Serif" font-style="italic" font-size="10.00" fill="#000000">Tools:</text>
<text text-anchor="start" x="1652.5" y="-469.5" font-family="Helvetica,sans-Serif" font-size="10.00" fill="#000000"> MLflow / Docker / Kubernetes</text>
<text text-anchor="start" x="1624.5" y="-454.5" font-family="Helvetica,sans-Serif" font-style="italic" font-size="10.00" fill="#000000">Courses:</text>
<text text-anchor="start" x="1624.5" y="-438.5" font-family="Helvetica,sans-Serif" font-size="10.00" fill="#000000">[Ext.] Docker: Continuous Delivery</text>
<text text-anchor="start" x="1624.5" y="-423.5" font-family="Helvetica,sans-Serif" font-size="10.00" fill="#000000">[Ext.] Getting Started with Google Kubernetes Engine</text>
<text text-anchor="start" x="1624.5" y="-408.5" font-family="Helvetica,sans-Serif" font-size="10.00" fill="#000000">[Ext.] Using Kubernetes as a Developer</text>
</g>
<!-- ai&#45;systems&#45;&gt;mlops -->
<g id="edge11" class="edge">
<title>ai&#45;systems&#45;&gt;mlops</title>
<path fill="none" stroke="#000000" stroke-width="1.5" d="M1527.61,-487C1527.61,-487 1606,-487 1606,-487"/>
<polygon fill="#000000" stroke="#000000" stroke-width="1.5" points="1614,-487 1606,-490.6 1610,-487.25 1606,-487.25 1606,-487 1606,-486.75 1610,-486.75 1606,-483.4 1614,-487 1614,-487"/>
</g>
<!-- nlp&#45;genai -->
<g id="node11" class="node">
<title>nlp&#45;genai</title>
<polygon fill="#56c8fd" stroke="#000000" points="1923,-367.5 1920,-371.5 1899,-371.5 1896,-367.5 1584,-367.5 1584,-181.5 1923,-181.5 1923,-367.5"/>
<text text-anchor="start" x="1677" y="-352.9" font-family="Helvetica,sans-Serif" font-weight="bold" font-size="12.00" fill="#000000">NLP And Generative AI</text>
<text text-anchor="start" x="1594.5" y="-337.5" font-family="Helvetica,sans-Serif" font-style="italic" font-size="10.00" fill="#000000">Topics:</text>
<text text-anchor="start" x="1594.5" y="-321.5" font-family="Helvetica,sans-Serif" font-size="10.00" fill="#000000">text preprocessing and embeddings</text>
<text text-anchor="start" x="1594.5" y="-306.5" font-family="Helvetica,sans-Serif" font-size="10.00" fill="#000000">transformers and attention</text>
<text text-anchor="start" x="1594.5" y="-291.5" font-family="Helvetica,sans-Serif" font-size="10.00" fill="#000000">using and fine tuning LLMs</text>
<text text-anchor="start" x="1594.5" y="-276.5" font-family="Helvetica,sans-Serif" font-size="10.00" fill="#000000">prompt engineering and evaluation</text>
<text text-anchor="start" x="1594.5" y="-262.5" font-family="Helvetica,sans-Serif" font-style="italic" font-size="10.00" fill="#000000">Tools:</text>
<text text-anchor="start" x="1622.5" y="-262.5" font-family="Helvetica,sans-Serif" font-size="10.00" fill="#000000"> Hugging Face Transformers / spaCy</text>
<text text-anchor="start" x="1594.5" y="-247.5" font-family="Helvetica,sans-Serif" font-style="italic" font-size="10.00" fill="#000000">Courses:</text>
<text text-anchor="start" x="1594.5" y="-231.5" font-family="Helvetica,sans-Serif" font-size="10.00" fill="#000000">[Ext.] Building NLP Pipelines with spaCy</text>
<text text-anchor="start" x="1594.5" y="-216.5" font-family="Helvetica,sans-Serif" font-size="10.00" fill="#000000">[Ext.] Applied AI: Getting Started with Hugging Face Transformers</text>
<text text-anchor="start" x="1594.5" y="-201.5" font-family="Helvetica,sans-Serif" font-size="10.00" fill="#000000">[Ext.] AI Sentiment Analysis with PyTorch and Hugging Face</text>
<text text-anchor="start" x="1708" y="-190.5" font-family="Helvetica,sans-Serif" font-size="10.00" fill="#000000">Transformers</text>
</g>
<!-- deep&#45;learning&#45;&gt;nlp&#45;genai -->
<g id="edge12" class="edge">
<title>deep&#45;learning&#45;&gt;nlp&#45;genai</title>
<path fill="none" stroke="#000000" stroke-width="1.5" d="M1537.09,-275.5C1537.09,-275.5 1575.99,-275.5 1575.99,-275.5"/>
<polygon fill="#000000" stroke="#000000" stroke-width="1.5" points="1583.99,-275.5 1575.99,-279.1 1579.99,-275.75 1575.99,-275.75 1575.99,-275.5 1575.99,-275.25 1579.99,-275.25 1575.99,-271.9 1583.99,-275.5 1583.99,-275.5"/>
</g>
<!-- leadership -->
<g id="node12" class="node">
<title>leadership</title>
<polygon fill="#56c8fd" stroke="#000000" points="2204,-430.5 2201,-434.5 2180,-434.5 2177,-430.5 1970,-430.5 1970,-330.5 2204,-330.5 2204,-430.5"/>
<text text-anchor="start" x="2002.5" y="-415.9" font-family="Helvetica,sans-Serif" font-weight="bold" font-size="12.00" fill="#000000">Senior Engineering Skills</text>
<text text-anchor="start" x="1980" y="-400.5" font-family="Helvetica,sans-Serif" font-style="italic" font-size="10.00" fill="#000000">Topics:</text>
<text text-anchor="start" x="1980" y="-384.5" font-family="Helvetica,sans-Serif" font-size="10.00" fill="#000000">technical decision making and tradeoffs</text>
<text text-anchor="start" x="1980" y="-369.5" font-family="Helvetica,sans-Serif" font-size="10.00" fill="#000000">code review and mentoring</text>
<text text-anchor="start" x="1980" y="-354.5" font-family="Helvetica,sans-Serif" font-size="10.00" fill="#000000">design docs and architecture diagrams</text>
<text text-anchor="start" x="1980" y="-339.5" font-family="Helvetica,sans-Serif" font-size="10.00" fill="#000000">collaboration with product and stakeholders</text>
</g>
<!-- mlops&#45;&gt;leadership -->
<g id="edge14" class="edge">
<title>mlops&#45;&gt;leadership</title>
<path fill="none" stroke="#000000" stroke-width="1.5" d="M1893,-415.25C1893,-415.25 1961.98,-415.25 1961.98,-415.25"/>
<polygon fill="#000000" stroke="#000000" stroke-width="1.5" points="1969.98,-415.25 1961.98,-418.85 1965.98,-415.5 1961.98,-415.5 1961.98,-415.25 1961.98,-415 1965.98,-415 1961.98,-411.65 1969.98,-415.25 1969.98,-415.25"/>
</g>
<!-- nlp&#45;genai&#45;&gt;leadership -->
<g id="edge13" class="edge">
<title>nlp&#45;genai&#45;&gt;leadership</title>
<path fill="none" stroke="#000000" stroke-width="1.5" d="M1923.18,-349C1923.18,-349 1961.82,-349 1961.82,-349"/>
<polygon fill="#000000" stroke="#000000" stroke-width="1.5" points="1969.82,-349 1961.82,-352.6 1965.82,-349.25 1961.82,-349.25 1961.82,-349 1961.82,-348.75 1965.82,-348.75 1961.82,-345.4 1969.82,-349 1969.82,-349"/>
</g>
<!-- target -->
<g id="node13" class="node">
<title>target</title>
<polygon fill="#ffb24d" stroke="#1b1b1b" points="2458,-398.5 2455,-402.5 2434,-402.5 2431,-398.5 2251,-398.5 2251,-362.5 2458,-362.5 2458,-398.5"/>
<text text-anchor="start" x="2261.5" y="-377.9" font-family="Helvetica,sans-Serif" font-weight="bold" font-size="12.00" fill="#000000">Python Senior AI Developer</text>
</g>
<!-- leadership&#45;&gt;target -->
<g id="edge15" class="edge">
<title>leadership&#45;&gt;target</title>
<path fill="none" stroke="#000000" stroke-width="1.5" d="M2204.33,-380.5C2204.33,-380.5 2242.7,-380.5 2242.7,-380.5"/>
<polygon fill="#000000" stroke="#000000" stroke-width="1.5" points="2250.7,-380.5 2242.7,-384.1 2246.7,-380.75 2242.7,-380.75 2242.7,-380.5 2242.7,-380.25 2246.7,-380.25 2242.7,-376.9 2250.7,-380.5 2250.7,-380.5"/>
</g>
</g>
</svg>
